<mxfile host="Electron" modified="2024-10-22T22:50:35.412Z" agent="Mozilla/5.0 (Windows NT 10.0; Win64; x64) AppleWebKit/537.36 (KHTML, like Gecko) draw.io/24.6.4 Chrome/124.0.6367.207 Electron/30.0.6 Safari/537.36" etag="BIrmX0wdREFin8o0C3Qm" version="24.6.4" type="device">
  <diagram id="f8HUdOenqdTuvBpSDShq" name="Page-1">
    <mxGraphModel dx="3400" dy="1830" grid="0" gridSize="10" guides="0" tooltips="1" connect="0" arrows="0" fold="1" page="0" pageScale="1" pageWidth="827" pageHeight="1169" math="0" shadow="0">
      <root>
        <mxCell id="0" />
        <mxCell id="1" parent="0" />
        <mxCell id="bQfWvRvFdCdmx63TbRXj-250" style="edgeStyle=orthogonalEdgeStyle;rounded=1;orthogonalLoop=1;jettySize=auto;html=1;exitX=0;exitY=0.5;exitDx=0;exitDy=0;labelBackgroundColor=none;fontColor=default;strokeColor=#788AA3;fontSize=16;" parent="1" source="bQfWvRvFdCdmx63TbRXj-18" target="bQfWvRvFdCdmx63TbRXj-302" edge="1">
          <mxGeometry relative="1" as="geometry">
            <mxPoint x="67" y="1613" as="targetPoint" />
            <Array as="points">
              <mxPoint x="-1132" y="-276" />
              <mxPoint x="-1132" y="1160" />
              <mxPoint x="-832" y="1160" />
              <mxPoint x="-832" y="980" />
            </Array>
          </mxGeometry>
        </mxCell>
        <mxCell id="bQfWvRvFdCdmx63TbRXj-364" value="System core transaction" style="swimlane;whiteSpace=wrap;html=1;labelBackgroundColor=none;fillColor=#B2C9AB;strokeColor=#788AA3;fontColor=#46495D;rounded=1;fontSize=16;" parent="1" vertex="1">
          <mxGeometry x="-1112" y="-355" width="1292" height="640" as="geometry" />
        </mxCell>
        <mxCell id="bQfWvRvFdCdmx63TbRXj-111" value="Values :&amp;nbsp;&lt;br style=&quot;font-size: 16px;&quot;&gt;&lt;ul style=&quot;font-size: 16px;&quot;&gt;&lt;li style=&quot;font-size: 16px;&quot;&gt;Acheté&lt;/li&gt;&lt;li style=&quot;font-size: 16px;&quot;&gt;Reçu&lt;/li&gt;&lt;li style=&quot;font-size: 16px;&quot;&gt;Commandé&lt;/li&gt;&lt;li style=&quot;font-size: 16px;&quot;&gt;&quot;&quot;&lt;/li&gt;&lt;/ul&gt;" style="shape=note;size=20;whiteSpace=wrap;html=1;align=left;labelBackgroundColor=none;fillColor=#B2C9AB;strokeColor=#788AA3;fontColor=#46495D;rounded=1;fontSize=16;" parent="bQfWvRvFdCdmx63TbRXj-364" vertex="1">
          <mxGeometry x="1133" y="310" width="128" height="135" as="geometry" />
        </mxCell>
        <mxCell id="bQfWvRvFdCdmx63TbRXj-1" value="inventorytransactionstatusinput" style="shape=table;startSize=30;container=1;collapsible=1;childLayout=tableLayout;fixedRows=1;rowLines=0;fontStyle=1;align=center;resizeLast=1;html=1;whiteSpace=wrap;labelBackgroundColor=none;fillColor=#B2C9AB;strokeColor=#788AA3;fontColor=#46495D;rounded=1;fontSize=16;" parent="bQfWvRvFdCdmx63TbRXj-364" vertex="1">
          <mxGeometry x="761" y="460" width="353" height="90" as="geometry" />
        </mxCell>
        <mxCell id="bQfWvRvFdCdmx63TbRXj-5" value="" style="shape=tableRow;horizontal=0;startSize=0;swimlaneHead=0;swimlaneBody=0;fillColor=none;collapsible=0;dropTarget=0;points=[[0,0.5],[1,0.5]];portConstraint=eastwest;top=0;left=0;right=0;bottom=1;html=1;labelBackgroundColor=none;strokeColor=#788AA3;fontColor=#46495D;rounded=1;fontSize=16;" parent="bQfWvRvFdCdmx63TbRXj-1" vertex="1">
          <mxGeometry y="30" width="353" height="30" as="geometry" />
        </mxCell>
        <mxCell id="bQfWvRvFdCdmx63TbRXj-6" value="PK" style="shape=partialRectangle;connectable=0;fillColor=none;top=0;left=0;bottom=0;right=0;fontStyle=1;overflow=hidden;html=1;whiteSpace=wrap;labelBackgroundColor=none;strokeColor=#788AA3;fontColor=#46495D;rounded=1;fontSize=16;" parent="bQfWvRvFdCdmx63TbRXj-5" vertex="1">
          <mxGeometry width="60" height="30" as="geometry">
            <mxRectangle width="60" height="30" as="alternateBounds" />
          </mxGeometry>
        </mxCell>
        <mxCell id="bQfWvRvFdCdmx63TbRXj-7" value="refinventorytransactionstatusinput" style="shape=partialRectangle;connectable=0;fillColor=none;top=0;left=0;bottom=0;right=0;align=left;spacingLeft=6;fontStyle=5;overflow=hidden;html=1;whiteSpace=wrap;labelBackgroundColor=none;strokeColor=#788AA3;fontColor=#46495D;rounded=1;fontSize=16;" parent="bQfWvRvFdCdmx63TbRXj-5" vertex="1">
          <mxGeometry x="60" width="293" height="30" as="geometry">
            <mxRectangle width="293" height="30" as="alternateBounds" />
          </mxGeometry>
        </mxCell>
        <mxCell id="bQfWvRvFdCdmx63TbRXj-8" value="" style="shape=tableRow;horizontal=0;startSize=0;swimlaneHead=0;swimlaneBody=0;fillColor=none;collapsible=0;dropTarget=0;points=[[0,0.5],[1,0.5]];portConstraint=eastwest;top=0;left=0;right=0;bottom=0;html=1;labelBackgroundColor=none;strokeColor=#788AA3;fontColor=#46495D;rounded=1;fontSize=16;" parent="bQfWvRvFdCdmx63TbRXj-1" vertex="1">
          <mxGeometry y="60" width="353" height="30" as="geometry" />
        </mxCell>
        <mxCell id="bQfWvRvFdCdmx63TbRXj-9" value="" style="shape=partialRectangle;connectable=0;fillColor=none;top=0;left=0;bottom=0;right=0;editable=1;overflow=hidden;html=1;whiteSpace=wrap;labelBackgroundColor=none;strokeColor=#788AA3;fontColor=#46495D;rounded=1;fontSize=16;" parent="bQfWvRvFdCdmx63TbRXj-8" vertex="1">
          <mxGeometry width="60" height="30" as="geometry">
            <mxRectangle width="60" height="30" as="alternateBounds" />
          </mxGeometry>
        </mxCell>
        <mxCell id="bQfWvRvFdCdmx63TbRXj-10" value="inventorytransactionstatusinput" style="shape=partialRectangle;connectable=0;fillColor=none;top=0;left=0;bottom=0;right=0;align=left;spacingLeft=6;overflow=hidden;html=1;whiteSpace=wrap;labelBackgroundColor=none;strokeColor=#788AA3;fontColor=#46495D;rounded=1;fontSize=16;" parent="bQfWvRvFdCdmx63TbRXj-8" vertex="1">
          <mxGeometry x="60" width="293" height="30" as="geometry">
            <mxRectangle width="293" height="30" as="alternateBounds" />
          </mxGeometry>
        </mxCell>
        <mxCell id="bQfWvRvFdCdmx63TbRXj-14" value="inventorytransactionorigine" style="shape=table;startSize=30;container=1;collapsible=1;childLayout=tableLayout;fixedRows=1;rowLines=0;fontStyle=1;align=center;resizeLast=1;html=1;whiteSpace=wrap;labelBackgroundColor=none;fillColor=#B2C9AB;strokeColor=#788AA3;fontColor=#46495D;rounded=1;fontSize=16;" parent="bQfWvRvFdCdmx63TbRXj-364" vertex="1">
          <mxGeometry x="44.09" y="34" width="316.91" height="150" as="geometry" />
        </mxCell>
        <mxCell id="bQfWvRvFdCdmx63TbRXj-18" value="" style="shape=tableRow;horizontal=0;startSize=0;swimlaneHead=0;swimlaneBody=0;fillColor=none;collapsible=0;dropTarget=0;points=[[0,0.5],[1,0.5]];portConstraint=eastwest;top=0;left=0;right=0;bottom=1;html=1;labelBackgroundColor=none;strokeColor=#788AA3;fontColor=#46495D;rounded=1;fontSize=16;" parent="bQfWvRvFdCdmx63TbRXj-14" vertex="1">
          <mxGeometry y="30" width="316.91" height="30" as="geometry" />
        </mxCell>
        <mxCell id="bQfWvRvFdCdmx63TbRXj-19" value="PK" style="shape=partialRectangle;connectable=0;fillColor=none;top=0;left=0;bottom=0;right=0;fontStyle=1;overflow=hidden;html=1;whiteSpace=wrap;labelBackgroundColor=none;strokeColor=#788AA3;fontColor=#46495D;rounded=1;fontSize=16;" parent="bQfWvRvFdCdmx63TbRXj-18" vertex="1">
          <mxGeometry width="60" height="30" as="geometry">
            <mxRectangle width="60" height="30" as="alternateBounds" />
          </mxGeometry>
        </mxCell>
        <mxCell id="bQfWvRvFdCdmx63TbRXj-20" value="refinventorytransactionorigine" style="shape=partialRectangle;connectable=0;fillColor=none;top=0;left=0;bottom=0;right=0;align=left;spacingLeft=6;fontStyle=5;overflow=hidden;html=1;whiteSpace=wrap;labelBackgroundColor=none;strokeColor=#788AA3;fontColor=#46495D;rounded=1;fontSize=16;" parent="bQfWvRvFdCdmx63TbRXj-18" vertex="1">
          <mxGeometry x="60" width="256.91" height="30" as="geometry">
            <mxRectangle width="256.91" height="30" as="alternateBounds" />
          </mxGeometry>
        </mxCell>
        <mxCell id="bQfWvRvFdCdmx63TbRXj-21" value="" style="shape=tableRow;horizontal=0;startSize=0;swimlaneHead=0;swimlaneBody=0;fillColor=none;collapsible=0;dropTarget=0;points=[[0,0.5],[1,0.5]];portConstraint=eastwest;top=0;left=0;right=0;bottom=0;html=1;labelBackgroundColor=none;strokeColor=#788AA3;fontColor=#46495D;rounded=1;fontSize=16;" parent="bQfWvRvFdCdmx63TbRXj-14" vertex="1">
          <mxGeometry y="60" width="316.91" height="30" as="geometry" />
        </mxCell>
        <mxCell id="bQfWvRvFdCdmx63TbRXj-22" value="" style="shape=partialRectangle;connectable=0;fillColor=none;top=0;left=0;bottom=0;right=0;editable=1;overflow=hidden;html=1;whiteSpace=wrap;labelBackgroundColor=none;strokeColor=#788AA3;fontColor=#46495D;rounded=1;fontSize=16;" parent="bQfWvRvFdCdmx63TbRXj-21" vertex="1">
          <mxGeometry width="60" height="30" as="geometry">
            <mxRectangle width="60" height="30" as="alternateBounds" />
          </mxGeometry>
        </mxCell>
        <mxCell id="bQfWvRvFdCdmx63TbRXj-23" value="refoperation" style="shape=partialRectangle;connectable=0;fillColor=none;top=0;left=0;bottom=0;right=0;align=left;spacingLeft=6;overflow=hidden;html=1;whiteSpace=wrap;labelBackgroundColor=none;strokeColor=#788AA3;fontColor=#46495D;rounded=1;fontSize=16;" parent="bQfWvRvFdCdmx63TbRXj-21" vertex="1">
          <mxGeometry x="60" width="256.91" height="30" as="geometry">
            <mxRectangle width="256.91" height="30" as="alternateBounds" />
          </mxGeometry>
        </mxCell>
        <mxCell id="bQfWvRvFdCdmx63TbRXj-100" style="shape=tableRow;horizontal=0;startSize=0;swimlaneHead=0;swimlaneBody=0;fillColor=none;collapsible=0;dropTarget=0;points=[[0,0.5],[1,0.5]];portConstraint=eastwest;top=0;left=0;right=0;bottom=0;html=1;labelBackgroundColor=none;strokeColor=#788AA3;fontColor=#46495D;rounded=1;fontSize=16;" parent="bQfWvRvFdCdmx63TbRXj-14" vertex="1">
          <mxGeometry y="90" width="316.91" height="30" as="geometry" />
        </mxCell>
        <mxCell id="bQfWvRvFdCdmx63TbRXj-101" value="FK" style="shape=partialRectangle;connectable=0;fillColor=none;top=0;left=0;bottom=0;right=0;editable=1;overflow=hidden;html=1;whiteSpace=wrap;labelBackgroundColor=none;strokeColor=#788AA3;fontColor=#46495D;rounded=1;fontSize=16;" parent="bQfWvRvFdCdmx63TbRXj-100" vertex="1">
          <mxGeometry width="60" height="30" as="geometry">
            <mxRectangle width="60" height="30" as="alternateBounds" />
          </mxGeometry>
        </mxCell>
        <mxCell id="bQfWvRvFdCdmx63TbRXj-102" value="refinventorytransactionoriginetype" style="shape=partialRectangle;connectable=0;fillColor=none;top=0;left=0;bottom=0;right=0;align=left;spacingLeft=6;overflow=hidden;html=1;whiteSpace=wrap;labelBackgroundColor=none;strokeColor=#788AA3;fontColor=#46495D;rounded=1;fontSize=16;" parent="bQfWvRvFdCdmx63TbRXj-100" vertex="1">
          <mxGeometry x="60" width="256.91" height="30" as="geometry">
            <mxRectangle width="256.91" height="30" as="alternateBounds" />
          </mxGeometry>
        </mxCell>
        <mxCell id="bQfWvRvFdCdmx63TbRXj-122" style="shape=tableRow;horizontal=0;startSize=0;swimlaneHead=0;swimlaneBody=0;fillColor=none;collapsible=0;dropTarget=0;points=[[0,0.5],[1,0.5]];portConstraint=eastwest;top=0;left=0;right=0;bottom=0;html=1;labelBackgroundColor=none;strokeColor=#788AA3;fontColor=#46495D;rounded=1;fontSize=16;" parent="bQfWvRvFdCdmx63TbRXj-14" vertex="1">
          <mxGeometry y="120" width="316.91" height="30" as="geometry" />
        </mxCell>
        <mxCell id="bQfWvRvFdCdmx63TbRXj-123" value="FK" style="shape=partialRectangle;connectable=0;fillColor=none;top=0;left=0;bottom=0;right=0;editable=1;overflow=hidden;html=1;whiteSpace=wrap;labelBackgroundColor=none;strokeColor=#788AA3;fontColor=#46495D;rounded=1;fontSize=16;" parent="bQfWvRvFdCdmx63TbRXj-122" vertex="1">
          <mxGeometry width="60" height="30" as="geometry">
            <mxRectangle width="60" height="30" as="alternateBounds" />
          </mxGeometry>
        </mxCell>
        <mxCell id="bQfWvRvFdCdmx63TbRXj-124" value="refitem" style="shape=partialRectangle;connectable=0;fillColor=none;top=0;left=0;bottom=0;right=0;align=left;spacingLeft=6;overflow=hidden;html=1;whiteSpace=wrap;labelBackgroundColor=none;strokeColor=#788AA3;fontColor=#46495D;rounded=1;fontSize=16;" parent="bQfWvRvFdCdmx63TbRXj-122" vertex="1">
          <mxGeometry x="60" width="256.91" height="30" as="geometry">
            <mxRectangle width="256.91" height="30" as="alternateBounds" />
          </mxGeometry>
        </mxCell>
        <mxCell id="bQfWvRvFdCdmx63TbRXj-28" value="inventorytransaction" style="shape=table;startSize=30;container=1;collapsible=1;childLayout=tableLayout;fixedRows=1;rowLines=0;fontStyle=1;align=center;resizeLast=1;html=1;whiteSpace=wrap;labelBackgroundColor=none;fillColor=#B2C9AB;strokeColor=#788AA3;fontColor=#46495D;rounded=1;fontSize=16;" parent="bQfWvRvFdCdmx63TbRXj-364" vertex="1">
          <mxGeometry x="389" y="34" width="330" height="540" as="geometry" />
        </mxCell>
        <mxCell id="bQfWvRvFdCdmx63TbRXj-32" value="" style="shape=tableRow;horizontal=0;startSize=0;swimlaneHead=0;swimlaneBody=0;fillColor=none;collapsible=0;dropTarget=0;points=[[0,0.5],[1,0.5]];portConstraint=eastwest;top=0;left=0;right=0;bottom=1;html=1;labelBackgroundColor=none;strokeColor=#788AA3;fontColor=#46495D;rounded=1;fontSize=16;" parent="bQfWvRvFdCdmx63TbRXj-28" vertex="1">
          <mxGeometry y="30" width="330" height="30" as="geometry" />
        </mxCell>
        <mxCell id="bQfWvRvFdCdmx63TbRXj-33" value="PK" style="shape=partialRectangle;connectable=0;fillColor=none;top=0;left=0;bottom=0;right=0;fontStyle=1;overflow=hidden;html=1;whiteSpace=wrap;labelBackgroundColor=none;strokeColor=#788AA3;fontColor=#46495D;rounded=1;fontSize=16;" parent="bQfWvRvFdCdmx63TbRXj-32" vertex="1">
          <mxGeometry width="60" height="30" as="geometry">
            <mxRectangle width="60" height="30" as="alternateBounds" />
          </mxGeometry>
        </mxCell>
        <mxCell id="bQfWvRvFdCdmx63TbRXj-34" value="id" style="shape=partialRectangle;connectable=0;fillColor=none;top=0;left=0;bottom=0;right=0;align=left;spacingLeft=6;fontStyle=5;overflow=hidden;html=1;whiteSpace=wrap;labelBackgroundColor=none;strokeColor=#788AA3;fontColor=#46495D;rounded=1;fontSize=16;" parent="bQfWvRvFdCdmx63TbRXj-32" vertex="1">
          <mxGeometry x="60" width="270" height="30" as="geometry">
            <mxRectangle width="270" height="30" as="alternateBounds" />
          </mxGeometry>
        </mxCell>
        <mxCell id="bQfWvRvFdCdmx63TbRXj-35" value="" style="shape=tableRow;horizontal=0;startSize=0;swimlaneHead=0;swimlaneBody=0;fillColor=none;collapsible=0;dropTarget=0;points=[[0,0.5],[1,0.5]];portConstraint=eastwest;top=0;left=0;right=0;bottom=0;html=1;labelBackgroundColor=none;strokeColor=#788AA3;fontColor=#46495D;rounded=1;fontSize=16;" parent="bQfWvRvFdCdmx63TbRXj-28" vertex="1">
          <mxGeometry y="60" width="330" height="30" as="geometry" />
        </mxCell>
        <mxCell id="bQfWvRvFdCdmx63TbRXj-36" value="FK" style="shape=partialRectangle;connectable=0;fillColor=none;top=0;left=0;bottom=0;right=0;editable=1;overflow=hidden;html=1;whiteSpace=wrap;labelBackgroundColor=none;strokeColor=#788AA3;fontColor=#46495D;rounded=1;fontSize=16;" parent="bQfWvRvFdCdmx63TbRXj-35" vertex="1">
          <mxGeometry width="60" height="30" as="geometry">
            <mxRectangle width="60" height="30" as="alternateBounds" />
          </mxGeometry>
        </mxCell>
        <mxCell id="bQfWvRvFdCdmx63TbRXj-37" value="refinventorytransactionorigine" style="shape=partialRectangle;connectable=0;fillColor=none;top=0;left=0;bottom=0;right=0;align=left;spacingLeft=6;overflow=hidden;html=1;whiteSpace=wrap;labelBackgroundColor=none;strokeColor=#788AA3;fontColor=#46495D;rounded=1;fontSize=16;" parent="bQfWvRvFdCdmx63TbRXj-35" vertex="1">
          <mxGeometry x="60" width="270" height="30" as="geometry">
            <mxRectangle width="270" height="30" as="alternateBounds" />
          </mxGeometry>
        </mxCell>
        <mxCell id="bQfWvRvFdCdmx63TbRXj-38" value="" style="shape=tableRow;horizontal=0;startSize=0;swimlaneHead=0;swimlaneBody=0;fillColor=none;collapsible=0;dropTarget=0;points=[[0,0.5],[1,0.5]];portConstraint=eastwest;top=0;left=0;right=0;bottom=0;html=1;labelBackgroundColor=none;strokeColor=#788AA3;fontColor=#46495D;rounded=1;fontSize=16;" parent="bQfWvRvFdCdmx63TbRXj-28" vertex="1">
          <mxGeometry y="90" width="330" height="30" as="geometry" />
        </mxCell>
        <mxCell id="bQfWvRvFdCdmx63TbRXj-39" value="" style="shape=partialRectangle;connectable=0;fillColor=none;top=0;left=0;bottom=0;right=0;editable=1;overflow=hidden;html=1;whiteSpace=wrap;labelBackgroundColor=none;strokeColor=#788AA3;fontColor=#46495D;rounded=1;fontSize=16;" parent="bQfWvRvFdCdmx63TbRXj-38" vertex="1">
          <mxGeometry width="60" height="30" as="geometry">
            <mxRectangle width="60" height="30" as="alternateBounds" />
          </mxGeometry>
        </mxCell>
        <mxCell id="bQfWvRvFdCdmx63TbRXj-40" value="qty" style="shape=partialRectangle;connectable=0;fillColor=none;top=0;left=0;bottom=0;right=0;align=left;spacingLeft=6;overflow=hidden;html=1;whiteSpace=wrap;labelBackgroundColor=none;strokeColor=#788AA3;fontColor=#46495D;rounded=1;fontSize=16;" parent="bQfWvRvFdCdmx63TbRXj-38" vertex="1">
          <mxGeometry x="60" width="270" height="30" as="geometry">
            <mxRectangle width="270" height="30" as="alternateBounds" />
          </mxGeometry>
        </mxCell>
        <mxCell id="bQfWvRvFdCdmx63TbRXj-41" style="shape=tableRow;horizontal=0;startSize=0;swimlaneHead=0;swimlaneBody=0;fillColor=none;collapsible=0;dropTarget=0;points=[[0,0.5],[1,0.5]];portConstraint=eastwest;top=0;left=0;right=0;bottom=0;html=1;labelBackgroundColor=none;strokeColor=#788AA3;fontColor=#46495D;rounded=1;fontSize=16;" parent="bQfWvRvFdCdmx63TbRXj-28" vertex="1">
          <mxGeometry y="120" width="330" height="30" as="geometry" />
        </mxCell>
        <mxCell id="bQfWvRvFdCdmx63TbRXj-42" value="FK" style="shape=partialRectangle;connectable=0;fillColor=none;top=0;left=0;bottom=0;right=0;editable=1;overflow=hidden;html=1;whiteSpace=wrap;labelBackgroundColor=none;strokeColor=#788AA3;fontColor=#46495D;rounded=1;fontSize=16;" parent="bQfWvRvFdCdmx63TbRXj-41" vertex="1">
          <mxGeometry width="60" height="30" as="geometry">
            <mxRectangle width="60" height="30" as="alternateBounds" />
          </mxGeometry>
        </mxCell>
        <mxCell id="bQfWvRvFdCdmx63TbRXj-43" value="inventdimid" style="shape=partialRectangle;connectable=0;fillColor=none;top=0;left=0;bottom=0;right=0;align=left;spacingLeft=6;overflow=hidden;html=1;whiteSpace=wrap;labelBackgroundColor=none;strokeColor=#788AA3;fontColor=#46495D;rounded=1;fontSize=16;" parent="bQfWvRvFdCdmx63TbRXj-41" vertex="1">
          <mxGeometry x="60" width="270" height="30" as="geometry">
            <mxRectangle width="270" height="30" as="alternateBounds" />
          </mxGeometry>
        </mxCell>
        <mxCell id="bQfWvRvFdCdmx63TbRXj-44" style="shape=tableRow;horizontal=0;startSize=0;swimlaneHead=0;swimlaneBody=0;fillColor=none;collapsible=0;dropTarget=0;points=[[0,0.5],[1,0.5]];portConstraint=eastwest;top=0;left=0;right=0;bottom=0;html=1;labelBackgroundColor=none;strokeColor=#788AA3;fontColor=#46495D;rounded=1;fontSize=16;" parent="bQfWvRvFdCdmx63TbRXj-28" vertex="1">
          <mxGeometry y="150" width="330" height="30" as="geometry" />
        </mxCell>
        <mxCell id="bQfWvRvFdCdmx63TbRXj-45" value="FK" style="shape=partialRectangle;connectable=0;fillColor=none;top=0;left=0;bottom=0;right=0;editable=1;overflow=hidden;html=1;whiteSpace=wrap;labelBackgroundColor=none;strokeColor=#788AA3;fontColor=#46495D;rounded=1;fontSize=16;" parent="bQfWvRvFdCdmx63TbRXj-44" vertex="1">
          <mxGeometry width="60" height="30" as="geometry">
            <mxRectangle width="60" height="30" as="alternateBounds" />
          </mxGeometry>
        </mxCell>
        <mxCell id="bQfWvRvFdCdmx63TbRXj-46" value="refitem" style="shape=partialRectangle;connectable=0;fillColor=none;top=0;left=0;bottom=0;right=0;align=left;spacingLeft=6;overflow=hidden;html=1;whiteSpace=wrap;labelBackgroundColor=none;strokeColor=#788AA3;fontColor=#46495D;rounded=1;fontSize=16;" parent="bQfWvRvFdCdmx63TbRXj-44" vertex="1">
          <mxGeometry x="60" width="270" height="30" as="geometry">
            <mxRectangle width="270" height="30" as="alternateBounds" />
          </mxGeometry>
        </mxCell>
        <mxCell id="bQfWvRvFdCdmx63TbRXj-47" style="shape=tableRow;horizontal=0;startSize=0;swimlaneHead=0;swimlaneBody=0;fillColor=none;collapsible=0;dropTarget=0;points=[[0,0.5],[1,0.5]];portConstraint=eastwest;top=0;left=0;right=0;bottom=0;html=1;labelBackgroundColor=none;strokeColor=#788AA3;fontColor=#46495D;rounded=1;fontSize=16;" parent="bQfWvRvFdCdmx63TbRXj-28" vertex="1">
          <mxGeometry y="180" width="330" height="30" as="geometry" />
        </mxCell>
        <mxCell id="bQfWvRvFdCdmx63TbRXj-48" style="shape=partialRectangle;connectable=0;fillColor=none;top=0;left=0;bottom=0;right=0;editable=1;overflow=hidden;html=1;whiteSpace=wrap;labelBackgroundColor=none;strokeColor=#788AA3;fontColor=#46495D;rounded=1;fontSize=16;" parent="bQfWvRvFdCdmx63TbRXj-47" vertex="1">
          <mxGeometry width="60" height="30" as="geometry">
            <mxRectangle width="60" height="30" as="alternateBounds" />
          </mxGeometry>
        </mxCell>
        <mxCell id="bQfWvRvFdCdmx63TbRXj-49" value="physicalcust" style="shape=partialRectangle;connectable=0;fillColor=none;top=0;left=0;bottom=0;right=0;align=left;spacingLeft=6;overflow=hidden;html=1;whiteSpace=wrap;labelBackgroundColor=none;strokeColor=#788AA3;fontColor=#46495D;rounded=1;fontSize=16;" parent="bQfWvRvFdCdmx63TbRXj-47" vertex="1">
          <mxGeometry x="60" width="270" height="30" as="geometry">
            <mxRectangle width="270" height="30" as="alternateBounds" />
          </mxGeometry>
        </mxCell>
        <mxCell id="bQfWvRvFdCdmx63TbRXj-50" style="shape=tableRow;horizontal=0;startSize=0;swimlaneHead=0;swimlaneBody=0;fillColor=none;collapsible=0;dropTarget=0;points=[[0,0.5],[1,0.5]];portConstraint=eastwest;top=0;left=0;right=0;bottom=0;html=1;labelBackgroundColor=none;strokeColor=#788AA3;fontColor=#46495D;rounded=1;fontSize=16;" parent="bQfWvRvFdCdmx63TbRXj-28" vertex="1">
          <mxGeometry y="210" width="330" height="30" as="geometry" />
        </mxCell>
        <mxCell id="bQfWvRvFdCdmx63TbRXj-51" style="shape=partialRectangle;connectable=0;fillColor=none;top=0;left=0;bottom=0;right=0;editable=1;overflow=hidden;html=1;whiteSpace=wrap;labelBackgroundColor=none;strokeColor=#788AA3;fontColor=#46495D;rounded=1;fontSize=16;" parent="bQfWvRvFdCdmx63TbRXj-50" vertex="1">
          <mxGeometry width="60" height="30" as="geometry">
            <mxRectangle width="60" height="30" as="alternateBounds" />
          </mxGeometry>
        </mxCell>
        <mxCell id="bQfWvRvFdCdmx63TbRXj-52" value="financialcust" style="shape=partialRectangle;connectable=0;fillColor=none;top=0;left=0;bottom=0;right=0;align=left;spacingLeft=6;overflow=hidden;html=1;whiteSpace=wrap;labelBackgroundColor=none;strokeColor=#788AA3;fontColor=#46495D;rounded=1;fontSize=16;" parent="bQfWvRvFdCdmx63TbRXj-50" vertex="1">
          <mxGeometry x="60" width="270" height="30" as="geometry">
            <mxRectangle width="270" height="30" as="alternateBounds" />
          </mxGeometry>
        </mxCell>
        <mxCell id="bQfWvRvFdCdmx63TbRXj-56" style="shape=tableRow;horizontal=0;startSize=0;swimlaneHead=0;swimlaneBody=0;fillColor=none;collapsible=0;dropTarget=0;points=[[0,0.5],[1,0.5]];portConstraint=eastwest;top=0;left=0;right=0;bottom=0;html=1;labelBackgroundColor=none;strokeColor=#788AA3;fontColor=#46495D;rounded=1;fontSize=16;" parent="bQfWvRvFdCdmx63TbRXj-28" vertex="1">
          <mxGeometry y="240" width="330" height="30" as="geometry" />
        </mxCell>
        <mxCell id="bQfWvRvFdCdmx63TbRXj-57" style="shape=partialRectangle;connectable=0;fillColor=none;top=0;left=0;bottom=0;right=0;editable=1;overflow=hidden;html=1;whiteSpace=wrap;labelBackgroundColor=none;strokeColor=#788AA3;fontColor=#46495D;rounded=1;fontSize=16;" parent="bQfWvRvFdCdmx63TbRXj-56" vertex="1">
          <mxGeometry width="60" height="30" as="geometry">
            <mxRectangle width="60" height="30" as="alternateBounds" />
          </mxGeometry>
        </mxCell>
        <mxCell id="bQfWvRvFdCdmx63TbRXj-58" value="physicaldate" style="shape=partialRectangle;connectable=0;fillColor=none;top=0;left=0;bottom=0;right=0;align=left;spacingLeft=6;overflow=hidden;html=1;whiteSpace=wrap;labelBackgroundColor=none;strokeColor=#788AA3;fontColor=#46495D;rounded=1;fontSize=16;" parent="bQfWvRvFdCdmx63TbRXj-56" vertex="1">
          <mxGeometry x="60" width="270" height="30" as="geometry">
            <mxRectangle width="270" height="30" as="alternateBounds" />
          </mxGeometry>
        </mxCell>
        <mxCell id="bQfWvRvFdCdmx63TbRXj-53" style="shape=tableRow;horizontal=0;startSize=0;swimlaneHead=0;swimlaneBody=0;fillColor=none;collapsible=0;dropTarget=0;points=[[0,0.5],[1,0.5]];portConstraint=eastwest;top=0;left=0;right=0;bottom=0;html=1;labelBackgroundColor=none;strokeColor=#788AA3;fontColor=#46495D;rounded=1;fontSize=16;" parent="bQfWvRvFdCdmx63TbRXj-28" vertex="1">
          <mxGeometry y="270" width="330" height="30" as="geometry" />
        </mxCell>
        <mxCell id="bQfWvRvFdCdmx63TbRXj-54" style="shape=partialRectangle;connectable=0;fillColor=none;top=0;left=0;bottom=0;right=0;editable=1;overflow=hidden;html=1;whiteSpace=wrap;labelBackgroundColor=none;strokeColor=#788AA3;fontColor=#46495D;rounded=1;fontSize=16;" parent="bQfWvRvFdCdmx63TbRXj-53" vertex="1">
          <mxGeometry width="60" height="30" as="geometry">
            <mxRectangle width="60" height="30" as="alternateBounds" />
          </mxGeometry>
        </mxCell>
        <mxCell id="bQfWvRvFdCdmx63TbRXj-55" value="financialdate" style="shape=partialRectangle;connectable=0;fillColor=none;top=0;left=0;bottom=0;right=0;align=left;spacingLeft=6;overflow=hidden;html=1;whiteSpace=wrap;labelBackgroundColor=none;strokeColor=#788AA3;fontColor=#46495D;rounded=1;fontSize=16;" parent="bQfWvRvFdCdmx63TbRXj-53" vertex="1">
          <mxGeometry x="60" width="270" height="30" as="geometry">
            <mxRectangle width="270" height="30" as="alternateBounds" />
          </mxGeometry>
        </mxCell>
        <mxCell id="bQfWvRvFdCdmx63TbRXj-68" style="shape=tableRow;horizontal=0;startSize=0;swimlaneHead=0;swimlaneBody=0;fillColor=none;collapsible=0;dropTarget=0;points=[[0,0.5],[1,0.5]];portConstraint=eastwest;top=0;left=0;right=0;bottom=0;html=1;labelBackgroundColor=none;strokeColor=#788AA3;fontColor=#46495D;rounded=1;fontSize=16;" parent="bQfWvRvFdCdmx63TbRXj-28" vertex="1">
          <mxGeometry y="300" width="330" height="30" as="geometry" />
        </mxCell>
        <mxCell id="bQfWvRvFdCdmx63TbRXj-69" style="shape=partialRectangle;connectable=0;fillColor=none;top=0;left=0;bottom=0;right=0;editable=1;overflow=hidden;html=1;whiteSpace=wrap;labelBackgroundColor=none;strokeColor=#788AA3;fontColor=#46495D;rounded=1;fontSize=16;" parent="bQfWvRvFdCdmx63TbRXj-68" vertex="1">
          <mxGeometry width="60" height="30" as="geometry">
            <mxRectangle width="60" height="30" as="alternateBounds" />
          </mxGeometry>
        </mxCell>
        <mxCell id="bQfWvRvFdCdmx63TbRXj-70" value="priceunit" style="shape=partialRectangle;connectable=0;fillColor=none;top=0;left=0;bottom=0;right=0;align=left;spacingLeft=6;overflow=hidden;html=1;whiteSpace=wrap;labelBackgroundColor=none;strokeColor=#788AA3;fontColor=#46495D;rounded=1;fontSize=16;" parent="bQfWvRvFdCdmx63TbRXj-68" vertex="1">
          <mxGeometry x="60" width="270" height="30" as="geometry">
            <mxRectangle width="270" height="30" as="alternateBounds" />
          </mxGeometry>
        </mxCell>
        <mxCell id="bQfWvRvFdCdmx63TbRXj-65" style="shape=tableRow;horizontal=0;startSize=0;swimlaneHead=0;swimlaneBody=0;fillColor=none;collapsible=0;dropTarget=0;points=[[0,0.5],[1,0.5]];portConstraint=eastwest;top=0;left=0;right=0;bottom=0;html=1;labelBackgroundColor=none;strokeColor=#788AA3;fontColor=#46495D;rounded=1;fontSize=16;" parent="bQfWvRvFdCdmx63TbRXj-28" vertex="1">
          <mxGeometry y="330" width="330" height="30" as="geometry" />
        </mxCell>
        <mxCell id="bQfWvRvFdCdmx63TbRXj-66" value="FK" style="shape=partialRectangle;connectable=0;fillColor=none;top=0;left=0;bottom=0;right=0;editable=1;overflow=hidden;html=1;whiteSpace=wrap;labelBackgroundColor=none;strokeColor=#788AA3;fontColor=#46495D;rounded=1;fontSize=16;" parent="bQfWvRvFdCdmx63TbRXj-65" vertex="1">
          <mxGeometry width="60" height="30" as="geometry">
            <mxRectangle width="60" height="30" as="alternateBounds" />
          </mxGeometry>
        </mxCell>
        <mxCell id="bQfWvRvFdCdmx63TbRXj-67" value="inventunit" style="shape=partialRectangle;connectable=0;fillColor=none;top=0;left=0;bottom=0;right=0;align=left;spacingLeft=6;overflow=hidden;html=1;whiteSpace=wrap;labelBackgroundColor=none;strokeColor=#788AA3;fontColor=#46495D;rounded=1;fontSize=16;" parent="bQfWvRvFdCdmx63TbRXj-65" vertex="1">
          <mxGeometry x="60" width="270" height="30" as="geometry">
            <mxRectangle width="270" height="30" as="alternateBounds" />
          </mxGeometry>
        </mxCell>
        <mxCell id="bQfWvRvFdCdmx63TbRXj-62" style="shape=tableRow;horizontal=0;startSize=0;swimlaneHead=0;swimlaneBody=0;fillColor=none;collapsible=0;dropTarget=0;points=[[0,0.5],[1,0.5]];portConstraint=eastwest;top=0;left=0;right=0;bottom=0;html=1;labelBackgroundColor=none;strokeColor=#788AA3;fontColor=#46495D;rounded=1;fontSize=16;" parent="bQfWvRvFdCdmx63TbRXj-28" vertex="1">
          <mxGeometry y="360" width="330" height="30" as="geometry" />
        </mxCell>
        <mxCell id="bQfWvRvFdCdmx63TbRXj-63" value="FK" style="shape=partialRectangle;connectable=0;fillColor=none;top=0;left=0;bottom=0;right=0;editable=1;overflow=hidden;html=1;whiteSpace=wrap;labelBackgroundColor=none;strokeColor=#788AA3;fontColor=#46495D;rounded=1;fontSize=16;" parent="bQfWvRvFdCdmx63TbRXj-62" vertex="1">
          <mxGeometry width="60" height="30" as="geometry">
            <mxRectangle width="60" height="30" as="alternateBounds" />
          </mxGeometry>
        </mxCell>
        <mxCell id="bQfWvRvFdCdmx63TbRXj-64" value="transactionunit" style="shape=partialRectangle;connectable=0;fillColor=none;top=0;left=0;bottom=0;right=0;align=left;spacingLeft=6;overflow=hidden;html=1;whiteSpace=wrap;labelBackgroundColor=none;strokeColor=#788AA3;fontColor=#46495D;rounded=1;fontSize=16;" parent="bQfWvRvFdCdmx63TbRXj-62" vertex="1">
          <mxGeometry x="60" width="270" height="30" as="geometry">
            <mxRectangle width="270" height="30" as="alternateBounds" />
          </mxGeometry>
        </mxCell>
        <mxCell id="bQfWvRvFdCdmx63TbRXj-59" style="shape=tableRow;horizontal=0;startSize=0;swimlaneHead=0;swimlaneBody=0;fillColor=none;collapsible=0;dropTarget=0;points=[[0,0.5],[1,0.5]];portConstraint=eastwest;top=0;left=0;right=0;bottom=0;html=1;labelBackgroundColor=none;strokeColor=#788AA3;fontColor=#46495D;rounded=1;fontSize=16;" parent="bQfWvRvFdCdmx63TbRXj-28" vertex="1">
          <mxGeometry y="390" width="330" height="30" as="geometry" />
        </mxCell>
        <mxCell id="bQfWvRvFdCdmx63TbRXj-60" style="shape=partialRectangle;connectable=0;fillColor=none;top=0;left=0;bottom=0;right=0;editable=1;overflow=hidden;html=1;whiteSpace=wrap;labelBackgroundColor=none;strokeColor=#788AA3;fontColor=#46495D;rounded=1;fontSize=16;" parent="bQfWvRvFdCdmx63TbRXj-59" vertex="1">
          <mxGeometry width="60" height="30" as="geometry">
            <mxRectangle width="60" height="30" as="alternateBounds" />
          </mxGeometry>
        </mxCell>
        <mxCell id="bQfWvRvFdCdmx63TbRXj-61" value="coefficient" style="shape=partialRectangle;connectable=0;fillColor=none;top=0;left=0;bottom=0;right=0;align=left;spacingLeft=6;overflow=hidden;html=1;whiteSpace=wrap;labelBackgroundColor=none;strokeColor=#788AA3;fontColor=#46495D;rounded=1;fontSize=16;" parent="bQfWvRvFdCdmx63TbRXj-59" vertex="1">
          <mxGeometry x="60" width="270" height="30" as="geometry">
            <mxRectangle width="270" height="30" as="alternateBounds" />
          </mxGeometry>
        </mxCell>
        <mxCell id="bQfWvRvFdCdmx63TbRXj-88" style="shape=tableRow;horizontal=0;startSize=0;swimlaneHead=0;swimlaneBody=0;fillColor=none;collapsible=0;dropTarget=0;points=[[0,0.5],[1,0.5]];portConstraint=eastwest;top=0;left=0;right=0;bottom=0;html=1;labelBackgroundColor=none;strokeColor=#788AA3;fontColor=#46495D;rounded=1;fontSize=16;" parent="bQfWvRvFdCdmx63TbRXj-28" vertex="1">
          <mxGeometry y="420" width="330" height="30" as="geometry" />
        </mxCell>
        <mxCell id="bQfWvRvFdCdmx63TbRXj-89" value="FK" style="shape=partialRectangle;connectable=0;fillColor=none;top=0;left=0;bottom=0;right=0;editable=1;overflow=hidden;html=1;whiteSpace=wrap;labelBackgroundColor=none;strokeColor=#788AA3;fontColor=#46495D;rounded=1;fontSize=16;" parent="bQfWvRvFdCdmx63TbRXj-88" vertex="1">
          <mxGeometry width="60" height="30" as="geometry">
            <mxRectangle width="60" height="30" as="alternateBounds" />
          </mxGeometry>
        </mxCell>
        <mxCell id="bQfWvRvFdCdmx63TbRXj-90" value="refinventorytransactionstatusoutput" style="shape=partialRectangle;connectable=0;fillColor=none;top=0;left=0;bottom=0;right=0;align=left;spacingLeft=6;overflow=hidden;html=1;whiteSpace=wrap;labelBackgroundColor=none;strokeColor=#788AA3;fontColor=#46495D;rounded=1;fontSize=16;" parent="bQfWvRvFdCdmx63TbRXj-88" vertex="1">
          <mxGeometry x="60" width="270" height="30" as="geometry">
            <mxRectangle width="270" height="30" as="alternateBounds" />
          </mxGeometry>
        </mxCell>
        <mxCell id="bQfWvRvFdCdmx63TbRXj-85" style="shape=tableRow;horizontal=0;startSize=0;swimlaneHead=0;swimlaneBody=0;fillColor=none;collapsible=0;dropTarget=0;points=[[0,0.5],[1,0.5]];portConstraint=eastwest;top=0;left=0;right=0;bottom=0;html=1;labelBackgroundColor=none;strokeColor=#788AA3;fontColor=#46495D;rounded=1;fontSize=16;" parent="bQfWvRvFdCdmx63TbRXj-28" vertex="1">
          <mxGeometry y="450" width="330" height="30" as="geometry" />
        </mxCell>
        <mxCell id="bQfWvRvFdCdmx63TbRXj-86" value="FK" style="shape=partialRectangle;connectable=0;fillColor=none;top=0;left=0;bottom=0;right=0;editable=1;overflow=hidden;html=1;whiteSpace=wrap;labelBackgroundColor=none;strokeColor=#788AA3;fontColor=#46495D;rounded=1;fontSize=16;" parent="bQfWvRvFdCdmx63TbRXj-85" vertex="1">
          <mxGeometry width="60" height="30" as="geometry">
            <mxRectangle width="60" height="30" as="alternateBounds" />
          </mxGeometry>
        </mxCell>
        <mxCell id="bQfWvRvFdCdmx63TbRXj-87" value="refinventorytransactionstatusinput" style="shape=partialRectangle;connectable=0;fillColor=none;top=0;left=0;bottom=0;right=0;align=left;spacingLeft=6;overflow=hidden;html=1;whiteSpace=wrap;labelBackgroundColor=none;strokeColor=#788AA3;fontColor=#46495D;rounded=1;fontSize=16;" parent="bQfWvRvFdCdmx63TbRXj-85" vertex="1">
          <mxGeometry x="60" width="270" height="30" as="geometry">
            <mxRectangle width="270" height="30" as="alternateBounds" />
          </mxGeometry>
        </mxCell>
        <mxCell id="bQfWvRvFdCdmx63TbRXj-126" style="shape=tableRow;horizontal=0;startSize=0;swimlaneHead=0;swimlaneBody=0;fillColor=none;collapsible=0;dropTarget=0;points=[[0,0.5],[1,0.5]];portConstraint=eastwest;top=0;left=0;right=0;bottom=0;html=1;labelBackgroundColor=none;strokeColor=#788AA3;fontColor=#46495D;rounded=1;fontSize=16;" parent="bQfWvRvFdCdmx63TbRXj-28" vertex="1">
          <mxGeometry y="480" width="330" height="30" as="geometry" />
        </mxCell>
        <mxCell id="bQfWvRvFdCdmx63TbRXj-127" value="FK" style="shape=partialRectangle;connectable=0;fillColor=none;top=0;left=0;bottom=0;right=0;editable=1;overflow=hidden;html=1;whiteSpace=wrap;labelBackgroundColor=none;strokeColor=#788AA3;fontColor=#46495D;rounded=1;fontSize=16;" parent="bQfWvRvFdCdmx63TbRXj-126" vertex="1">
          <mxGeometry width="60" height="30" as="geometry">
            <mxRectangle width="60" height="30" as="alternateBounds" />
          </mxGeometry>
        </mxCell>
        <mxCell id="bQfWvRvFdCdmx63TbRXj-128" value="refitem" style="shape=partialRectangle;connectable=0;fillColor=none;top=0;left=0;bottom=0;right=0;align=left;spacingLeft=6;overflow=hidden;html=1;whiteSpace=wrap;labelBackgroundColor=none;strokeColor=#788AA3;fontColor=#46495D;rounded=1;fontSize=16;" parent="bQfWvRvFdCdmx63TbRXj-126" vertex="1">
          <mxGeometry x="60" width="270" height="30" as="geometry">
            <mxRectangle width="270" height="30" as="alternateBounds" />
          </mxGeometry>
        </mxCell>
        <mxCell id="bQfWvRvFdCdmx63TbRXj-156" style="shape=tableRow;horizontal=0;startSize=0;swimlaneHead=0;swimlaneBody=0;fillColor=none;collapsible=0;dropTarget=0;points=[[0,0.5],[1,0.5]];portConstraint=eastwest;top=0;left=0;right=0;bottom=0;html=1;labelBackgroundColor=none;strokeColor=#788AA3;fontColor=#46495D;rounded=1;fontSize=16;" parent="bQfWvRvFdCdmx63TbRXj-28" vertex="1">
          <mxGeometry y="510" width="330" height="30" as="geometry" />
        </mxCell>
        <mxCell id="bQfWvRvFdCdmx63TbRXj-157" value="FK" style="shape=partialRectangle;connectable=0;fillColor=none;top=0;left=0;bottom=0;right=0;editable=1;overflow=hidden;html=1;whiteSpace=wrap;labelBackgroundColor=none;strokeColor=#788AA3;fontColor=#46495D;rounded=1;fontSize=16;" parent="bQfWvRvFdCdmx63TbRXj-156" vertex="1">
          <mxGeometry width="60" height="30" as="geometry">
            <mxRectangle width="60" height="30" as="alternateBounds" />
          </mxGeometry>
        </mxCell>
        <mxCell id="bQfWvRvFdCdmx63TbRXj-158" value="refcurrency" style="shape=partialRectangle;connectable=0;fillColor=none;top=0;left=0;bottom=0;right=0;align=left;spacingLeft=6;overflow=hidden;html=1;whiteSpace=wrap;labelBackgroundColor=none;strokeColor=#788AA3;fontColor=#46495D;rounded=1;fontSize=16;" parent="bQfWvRvFdCdmx63TbRXj-156" vertex="1">
          <mxGeometry x="60" width="270" height="30" as="geometry">
            <mxRectangle width="270" height="30" as="alternateBounds" />
          </mxGeometry>
        </mxCell>
        <mxCell id="bQfWvRvFdCdmx63TbRXj-253" style="edgeStyle=orthogonalEdgeStyle;rounded=1;orthogonalLoop=1;jettySize=auto;html=1;labelBackgroundColor=none;fontColor=default;strokeColor=#788AA3;fontSize=16;" parent="bQfWvRvFdCdmx63TbRXj-364" source="bQfWvRvFdCdmx63TbRXj-79" target="bQfWvRvFdCdmx63TbRXj-110" edge="1">
          <mxGeometry relative="1" as="geometry">
            <Array as="points">
              <mxPoint x="1110" y="394" />
              <mxPoint x="1110" y="297" />
              <mxPoint x="1160" y="297" />
            </Array>
          </mxGeometry>
        </mxCell>
        <mxCell id="bQfWvRvFdCdmx63TbRXj-72" value="inventorytransactionstatusoutput" style="shape=table;startSize=30;container=1;collapsible=1;childLayout=tableLayout;fixedRows=1;rowLines=0;fontStyle=1;align=center;resizeLast=1;html=1;whiteSpace=wrap;labelBackgroundColor=none;fillColor=#B2C9AB;strokeColor=#788AA3;fontColor=#46495D;rounded=1;fontSize=16;" parent="bQfWvRvFdCdmx63TbRXj-364" vertex="1">
          <mxGeometry x="744" y="322" width="355" height="90" as="geometry" />
        </mxCell>
        <mxCell id="bQfWvRvFdCdmx63TbRXj-76" value="" style="shape=tableRow;horizontal=0;startSize=0;swimlaneHead=0;swimlaneBody=0;fillColor=none;collapsible=0;dropTarget=0;points=[[0,0.5],[1,0.5]];portConstraint=eastwest;top=0;left=0;right=0;bottom=1;html=1;labelBackgroundColor=none;strokeColor=#788AA3;fontColor=#46495D;rounded=1;fontSize=16;" parent="bQfWvRvFdCdmx63TbRXj-72" vertex="1">
          <mxGeometry y="30" width="355" height="30" as="geometry" />
        </mxCell>
        <mxCell id="bQfWvRvFdCdmx63TbRXj-77" value="PK" style="shape=partialRectangle;connectable=0;fillColor=none;top=0;left=0;bottom=0;right=0;fontStyle=1;overflow=hidden;html=1;whiteSpace=wrap;labelBackgroundColor=none;strokeColor=#788AA3;fontColor=#46495D;rounded=1;fontSize=16;" parent="bQfWvRvFdCdmx63TbRXj-76" vertex="1">
          <mxGeometry width="60" height="30" as="geometry">
            <mxRectangle width="60" height="30" as="alternateBounds" />
          </mxGeometry>
        </mxCell>
        <mxCell id="bQfWvRvFdCdmx63TbRXj-78" value="refinventorytransactionstatusoutput" style="shape=partialRectangle;connectable=0;fillColor=none;top=0;left=0;bottom=0;right=0;align=left;spacingLeft=6;fontStyle=5;overflow=hidden;html=1;whiteSpace=wrap;labelBackgroundColor=none;strokeColor=#788AA3;fontColor=#46495D;rounded=1;fontSize=16;" parent="bQfWvRvFdCdmx63TbRXj-76" vertex="1">
          <mxGeometry x="60" width="295" height="30" as="geometry">
            <mxRectangle width="295" height="30" as="alternateBounds" />
          </mxGeometry>
        </mxCell>
        <mxCell id="bQfWvRvFdCdmx63TbRXj-79" value="" style="shape=tableRow;horizontal=0;startSize=0;swimlaneHead=0;swimlaneBody=0;fillColor=none;collapsible=0;dropTarget=0;points=[[0,0.5],[1,0.5]];portConstraint=eastwest;top=0;left=0;right=0;bottom=0;html=1;labelBackgroundColor=none;strokeColor=#788AA3;fontColor=#46495D;rounded=1;fontSize=16;" parent="bQfWvRvFdCdmx63TbRXj-72" vertex="1">
          <mxGeometry y="60" width="355" height="30" as="geometry" />
        </mxCell>
        <mxCell id="bQfWvRvFdCdmx63TbRXj-80" value="" style="shape=partialRectangle;connectable=0;fillColor=none;top=0;left=0;bottom=0;right=0;editable=1;overflow=hidden;html=1;whiteSpace=wrap;labelBackgroundColor=none;strokeColor=#788AA3;fontColor=#46495D;rounded=1;fontSize=16;" parent="bQfWvRvFdCdmx63TbRXj-79" vertex="1">
          <mxGeometry width="60" height="30" as="geometry">
            <mxRectangle width="60" height="30" as="alternateBounds" />
          </mxGeometry>
        </mxCell>
        <mxCell id="bQfWvRvFdCdmx63TbRXj-81" value="inventorytransactionstatusoutput" style="shape=partialRectangle;connectable=0;fillColor=none;top=0;left=0;bottom=0;right=0;align=left;spacingLeft=6;overflow=hidden;html=1;whiteSpace=wrap;labelBackgroundColor=none;strokeColor=#788AA3;fontColor=#46495D;rounded=1;fontSize=16;" parent="bQfWvRvFdCdmx63TbRXj-79" vertex="1">
          <mxGeometry x="60" width="295" height="30" as="geometry">
            <mxRectangle width="295" height="30" as="alternateBounds" />
          </mxGeometry>
        </mxCell>
        <mxCell id="bQfWvRvFdCdmx63TbRXj-91" style="edgeStyle=orthogonalEdgeStyle;rounded=1;orthogonalLoop=1;jettySize=auto;html=1;exitX=0;exitY=0.5;exitDx=0;exitDy=0;entryX=1;entryY=0.5;entryDx=0;entryDy=0;labelBackgroundColor=none;fontColor=default;strokeColor=#788AA3;fontSize=16;" parent="bQfWvRvFdCdmx63TbRXj-364" source="bQfWvRvFdCdmx63TbRXj-76" target="bQfWvRvFdCdmx63TbRXj-88" edge="1">
          <mxGeometry relative="1" as="geometry">
            <mxPoint x="566.9999999999999" y="469" as="targetPoint" />
            <Array as="points">
              <mxPoint x="744" y="378" />
              <mxPoint x="735" y="378" />
              <mxPoint x="735" y="469" />
            </Array>
          </mxGeometry>
        </mxCell>
        <mxCell id="bQfWvRvFdCdmx63TbRXj-92" style="edgeStyle=orthogonalEdgeStyle;rounded=1;orthogonalLoop=1;jettySize=auto;html=1;exitX=0;exitY=0.5;exitDx=0;exitDy=0;entryX=1;entryY=0.5;entryDx=0;entryDy=0;labelBackgroundColor=none;fontColor=default;strokeColor=#788AA3;fontSize=16;" parent="bQfWvRvFdCdmx63TbRXj-364" source="bQfWvRvFdCdmx63TbRXj-5" target="bQfWvRvFdCdmx63TbRXj-85" edge="1">
          <mxGeometry relative="1" as="geometry">
            <mxPoint x="566.9999999999999" y="499" as="targetPoint" />
            <Array as="points">
              <mxPoint x="746" y="505" />
              <mxPoint x="746" y="499" />
            </Array>
          </mxGeometry>
        </mxCell>
        <mxCell id="bQfWvRvFdCdmx63TbRXj-93" value="inventorytransactionoriginetype" style="shape=table;startSize=30;container=1;collapsible=1;childLayout=tableLayout;fixedRows=1;rowLines=0;fontStyle=1;align=center;resizeLast=1;html=1;whiteSpace=wrap;labelBackgroundColor=none;fillColor=#B2C9AB;strokeColor=#788AA3;fontColor=#46495D;rounded=1;fontSize=16;" parent="bQfWvRvFdCdmx63TbRXj-364" vertex="1">
          <mxGeometry x="26" y="196" width="343" height="90" as="geometry" />
        </mxCell>
        <mxCell id="bQfWvRvFdCdmx63TbRXj-94" value="" style="shape=tableRow;horizontal=0;startSize=0;swimlaneHead=0;swimlaneBody=0;fillColor=none;collapsible=0;dropTarget=0;points=[[0,0.5],[1,0.5]];portConstraint=eastwest;top=0;left=0;right=0;bottom=1;html=1;labelBackgroundColor=none;strokeColor=#788AA3;fontColor=#46495D;rounded=1;fontSize=16;" parent="bQfWvRvFdCdmx63TbRXj-93" vertex="1">
          <mxGeometry y="30" width="343" height="30" as="geometry" />
        </mxCell>
        <mxCell id="bQfWvRvFdCdmx63TbRXj-95" value="PK" style="shape=partialRectangle;connectable=0;fillColor=none;top=0;left=0;bottom=0;right=0;fontStyle=1;overflow=hidden;html=1;whiteSpace=wrap;labelBackgroundColor=none;strokeColor=#788AA3;fontColor=#46495D;rounded=1;fontSize=16;" parent="bQfWvRvFdCdmx63TbRXj-94" vertex="1">
          <mxGeometry width="60" height="30" as="geometry">
            <mxRectangle width="60" height="30" as="alternateBounds" />
          </mxGeometry>
        </mxCell>
        <mxCell id="bQfWvRvFdCdmx63TbRXj-96" value="refinventorytransactionoriginetype" style="shape=partialRectangle;connectable=0;fillColor=none;top=0;left=0;bottom=0;right=0;align=left;spacingLeft=6;fontStyle=5;overflow=hidden;html=1;whiteSpace=wrap;labelBackgroundColor=none;strokeColor=#788AA3;fontColor=#46495D;rounded=1;fontSize=16;" parent="bQfWvRvFdCdmx63TbRXj-94" vertex="1">
          <mxGeometry x="60" width="283" height="30" as="geometry">
            <mxRectangle width="283" height="30" as="alternateBounds" />
          </mxGeometry>
        </mxCell>
        <mxCell id="bQfWvRvFdCdmx63TbRXj-97" value="" style="shape=tableRow;horizontal=0;startSize=0;swimlaneHead=0;swimlaneBody=0;fillColor=none;collapsible=0;dropTarget=0;points=[[0,0.5],[1,0.5]];portConstraint=eastwest;top=0;left=0;right=0;bottom=0;html=1;labelBackgroundColor=none;strokeColor=#788AA3;fontColor=#46495D;rounded=1;fontSize=16;" parent="bQfWvRvFdCdmx63TbRXj-93" vertex="1">
          <mxGeometry y="60" width="343" height="30" as="geometry" />
        </mxCell>
        <mxCell id="bQfWvRvFdCdmx63TbRXj-98" value="" style="shape=partialRectangle;connectable=0;fillColor=none;top=0;left=0;bottom=0;right=0;editable=1;overflow=hidden;html=1;whiteSpace=wrap;labelBackgroundColor=none;strokeColor=#788AA3;fontColor=#46495D;rounded=1;fontSize=16;" parent="bQfWvRvFdCdmx63TbRXj-97" vertex="1">
          <mxGeometry width="60" height="30" as="geometry">
            <mxRectangle width="60" height="30" as="alternateBounds" />
          </mxGeometry>
        </mxCell>
        <mxCell id="bQfWvRvFdCdmx63TbRXj-99" value="inventorytransactionoriginetype" style="shape=partialRectangle;connectable=0;fillColor=none;top=0;left=0;bottom=0;right=0;align=left;spacingLeft=6;overflow=hidden;html=1;whiteSpace=wrap;labelBackgroundColor=none;strokeColor=#788AA3;fontColor=#46495D;rounded=1;fontSize=16;" parent="bQfWvRvFdCdmx63TbRXj-97" vertex="1">
          <mxGeometry x="60" width="283" height="30" as="geometry">
            <mxRectangle width="283" height="30" as="alternateBounds" />
          </mxGeometry>
        </mxCell>
        <mxCell id="bQfWvRvFdCdmx63TbRXj-104" style="edgeStyle=orthogonalEdgeStyle;rounded=1;orthogonalLoop=1;jettySize=auto;html=1;exitX=1;exitY=0.5;exitDx=0;exitDy=0;entryX=0;entryY=0.5;entryDx=0;entryDy=0;labelBackgroundColor=none;fontColor=default;strokeColor=#788AA3;fontSize=16;" parent="bQfWvRvFdCdmx63TbRXj-364" source="bQfWvRvFdCdmx63TbRXj-18" target="bQfWvRvFdCdmx63TbRXj-35" edge="1">
          <mxGeometry relative="1" as="geometry" />
        </mxCell>
        <mxCell id="bQfWvRvFdCdmx63TbRXj-106" value="Values :&amp;nbsp;&lt;br style=&quot;font-size: 16px;&quot;&gt;&lt;ul style=&quot;font-size: 16px;&quot;&gt;&lt;li style=&quot;font-size: 16px;&quot;&gt;Commande Fournisseur&lt;/li&gt;&lt;li style=&quot;font-size: 16px;&quot;&gt;Commande vente&lt;/li&gt;&lt;li style=&quot;font-size: 16px;&quot;&gt;journal de transfert&lt;/li&gt;&lt;/ul&gt;" style="shape=note;size=20;whiteSpace=wrap;html=1;align=left;labelBackgroundColor=none;fillColor=#B2C9AB;strokeColor=#788AA3;fontColor=#46495D;rounded=1;fontSize=16;" parent="bQfWvRvFdCdmx63TbRXj-364" vertex="1">
          <mxGeometry x="51.59" y="300" width="226.41" height="110" as="geometry" />
        </mxCell>
        <mxCell id="bQfWvRvFdCdmx63TbRXj-108" style="edgeStyle=orthogonalEdgeStyle;rounded=1;orthogonalLoop=1;jettySize=auto;html=1;exitX=0;exitY=0.5;exitDx=0;exitDy=0;entryX=0;entryY=0.5;entryDx=0;entryDy=0;labelBackgroundColor=none;fontColor=default;strokeColor=#788AA3;fontSize=16;" parent="bQfWvRvFdCdmx63TbRXj-364" source="bQfWvRvFdCdmx63TbRXj-94" target="bQfWvRvFdCdmx63TbRXj-100" edge="1">
          <mxGeometry relative="1" as="geometry" />
        </mxCell>
        <mxCell id="bQfWvRvFdCdmx63TbRXj-109" style="edgeStyle=orthogonalEdgeStyle;rounded=1;orthogonalLoop=1;jettySize=auto;html=1;entryX=0;entryY=0.5;entryDx=0;entryDy=0;entryPerimeter=0;exitX=0;exitY=0.5;exitDx=0;exitDy=0;labelBackgroundColor=none;fontColor=default;strokeColor=#788AA3;fontSize=16;" parent="bQfWvRvFdCdmx63TbRXj-364" source="bQfWvRvFdCdmx63TbRXj-97" target="bQfWvRvFdCdmx63TbRXj-106" edge="1">
          <mxGeometry relative="1" as="geometry">
            <mxPoint x="-145.91" y="286" as="sourcePoint" />
            <Array as="points">
              <mxPoint x="13" y="271" />
              <mxPoint x="13" y="356" />
              <mxPoint x="41" y="356" />
            </Array>
          </mxGeometry>
        </mxCell>
        <mxCell id="bQfWvRvFdCdmx63TbRXj-110" value="Values :&amp;nbsp;&lt;br style=&quot;font-size: 16px;&quot;&gt;&lt;ul style=&quot;font-size: 16px;&quot;&gt;&lt;li style=&quot;font-size: 16px;&quot;&gt;Vendu.&lt;/li&gt;&lt;li style=&quot;font-size: 16px;&quot;&gt;Prélevé.&lt;/li&gt;&lt;li style=&quot;font-size: 16px;&quot;&gt;Commandé.&lt;/li&gt;&lt;li style=&quot;font-size: 16px;&quot;&gt;Physique reservé.&lt;/li&gt;&lt;li style=&quot;font-size: 16px;&quot;&gt;&quot;&quot;&lt;/li&gt;&lt;/ul&gt;" style="shape=note;size=20;whiteSpace=wrap;html=1;align=left;labelBackgroundColor=none;fillColor=#B2C9AB;strokeColor=#788AA3;fontColor=#46495D;rounded=1;fontSize=16;" parent="bQfWvRvFdCdmx63TbRXj-364" vertex="1">
          <mxGeometry x="1077" y="103" width="159" height="161" as="geometry" />
        </mxCell>
        <mxCell id="bQfWvRvFdCdmx63TbRXj-125" style="edgeStyle=orthogonalEdgeStyle;rounded=1;orthogonalLoop=1;jettySize=auto;html=1;exitX=1;exitY=0.5;exitDx=0;exitDy=0;entryX=1;entryY=0.5;entryDx=0;entryDy=0;labelBackgroundColor=none;fontColor=default;strokeColor=#788AA3;fontSize=16;" parent="bQfWvRvFdCdmx63TbRXj-364" source="bQfWvRvFdCdmx63TbRXj-114" target="bQfWvRvFdCdmx63TbRXj-122" edge="1">
          <mxGeometry relative="1" as="geometry">
            <Array as="points">
              <mxPoint x="232" y="474" />
              <mxPoint x="232" y="427" />
              <mxPoint x="379" y="427" />
              <mxPoint x="379" y="169" />
            </Array>
          </mxGeometry>
        </mxCell>
        <mxCell id="bQfWvRvFdCdmx63TbRXj-114" value="itemsreleased" style="shape=table;startSize=30;container=1;collapsible=1;childLayout=tableLayout;fixedRows=1;rowLines=0;fontStyle=1;align=center;resizeLast=1;html=1;whiteSpace=wrap;labelBackgroundColor=none;fillColor=#B2C9AB;strokeColor=#788AA3;fontColor=#46495D;rounded=1;fontSize=16;" parent="bQfWvRvFdCdmx63TbRXj-364" vertex="1">
          <mxGeometry x="48" y="429" width="143" height="90" as="geometry" />
        </mxCell>
        <mxCell id="bQfWvRvFdCdmx63TbRXj-115" value="" style="shape=tableRow;horizontal=0;startSize=0;swimlaneHead=0;swimlaneBody=0;fillColor=none;collapsible=0;dropTarget=0;points=[[0,0.5],[1,0.5]];portConstraint=eastwest;top=0;left=0;right=0;bottom=1;html=1;labelBackgroundColor=none;strokeColor=#788AA3;fontColor=#46495D;rounded=1;fontSize=16;" parent="bQfWvRvFdCdmx63TbRXj-114" vertex="1">
          <mxGeometry y="30" width="143" height="30" as="geometry" />
        </mxCell>
        <mxCell id="bQfWvRvFdCdmx63TbRXj-116" value="PK" style="shape=partialRectangle;connectable=0;fillColor=none;top=0;left=0;bottom=0;right=0;fontStyle=1;overflow=hidden;html=1;whiteSpace=wrap;labelBackgroundColor=none;strokeColor=#788AA3;fontColor=#46495D;rounded=1;fontSize=16;" parent="bQfWvRvFdCdmx63TbRXj-115" vertex="1">
          <mxGeometry width="60" height="30" as="geometry">
            <mxRectangle width="60" height="30" as="alternateBounds" />
          </mxGeometry>
        </mxCell>
        <mxCell id="bQfWvRvFdCdmx63TbRXj-117" value="refitem" style="shape=partialRectangle;connectable=0;fillColor=none;top=0;left=0;bottom=0;right=0;align=left;spacingLeft=6;fontStyle=5;overflow=hidden;html=1;whiteSpace=wrap;labelBackgroundColor=none;strokeColor=#788AA3;fontColor=#46495D;rounded=1;fontSize=16;" parent="bQfWvRvFdCdmx63TbRXj-115" vertex="1">
          <mxGeometry x="60" width="83" height="30" as="geometry">
            <mxRectangle width="83" height="30" as="alternateBounds" />
          </mxGeometry>
        </mxCell>
        <mxCell id="bQfWvRvFdCdmx63TbRXj-118" value="" style="shape=tableRow;horizontal=0;startSize=0;swimlaneHead=0;swimlaneBody=0;fillColor=none;collapsible=0;dropTarget=0;points=[[0,0.5],[1,0.5]];portConstraint=eastwest;top=0;left=0;right=0;bottom=0;html=1;labelBackgroundColor=none;strokeColor=#788AA3;fontColor=#46495D;rounded=1;fontSize=16;" parent="bQfWvRvFdCdmx63TbRXj-114" vertex="1">
          <mxGeometry y="60" width="143" height="30" as="geometry" />
        </mxCell>
        <mxCell id="bQfWvRvFdCdmx63TbRXj-119" value="" style="shape=partialRectangle;connectable=0;fillColor=none;top=0;left=0;bottom=0;right=0;editable=1;overflow=hidden;html=1;whiteSpace=wrap;labelBackgroundColor=none;strokeColor=#788AA3;fontColor=#46495D;rounded=1;fontSize=16;" parent="bQfWvRvFdCdmx63TbRXj-118" vertex="1">
          <mxGeometry width="60" height="30" as="geometry">
            <mxRectangle width="60" height="30" as="alternateBounds" />
          </mxGeometry>
        </mxCell>
        <mxCell id="bQfWvRvFdCdmx63TbRXj-120" value="item" style="shape=partialRectangle;connectable=0;fillColor=none;top=0;left=0;bottom=0;right=0;align=left;spacingLeft=6;overflow=hidden;html=1;whiteSpace=wrap;labelBackgroundColor=none;strokeColor=#788AA3;fontColor=#46495D;rounded=1;fontSize=16;" parent="bQfWvRvFdCdmx63TbRXj-118" vertex="1">
          <mxGeometry x="60" width="83" height="30" as="geometry">
            <mxRectangle width="83" height="30" as="alternateBounds" />
          </mxGeometry>
        </mxCell>
        <mxCell id="bQfWvRvFdCdmx63TbRXj-130" value="inventorydimension" style="shape=table;startSize=30;container=1;collapsible=1;childLayout=tableLayout;fixedRows=1;rowLines=0;fontStyle=1;align=center;resizeLast=1;html=1;whiteSpace=wrap;labelBackgroundColor=none;fillColor=#B2C9AB;strokeColor=#788AA3;fontColor=#46495D;rounded=1;fontSize=16;" parent="bQfWvRvFdCdmx63TbRXj-364" vertex="1">
          <mxGeometry x="766.9999999999999" y="35" width="283" height="270" as="geometry" />
        </mxCell>
        <mxCell id="bQfWvRvFdCdmx63TbRXj-131" value="" style="shape=tableRow;horizontal=0;startSize=0;swimlaneHead=0;swimlaneBody=0;fillColor=none;collapsible=0;dropTarget=0;points=[[0,0.5],[1,0.5]];portConstraint=eastwest;top=0;left=0;right=0;bottom=1;html=1;labelBackgroundColor=none;strokeColor=#788AA3;fontColor=#46495D;rounded=1;fontSize=16;" parent="bQfWvRvFdCdmx63TbRXj-130" vertex="1">
          <mxGeometry y="30" width="283" height="30" as="geometry" />
        </mxCell>
        <mxCell id="bQfWvRvFdCdmx63TbRXj-132" value="PK" style="shape=partialRectangle;connectable=0;fillColor=none;top=0;left=0;bottom=0;right=0;fontStyle=1;overflow=hidden;html=1;whiteSpace=wrap;labelBackgroundColor=none;strokeColor=#788AA3;fontColor=#46495D;rounded=1;fontSize=16;" parent="bQfWvRvFdCdmx63TbRXj-131" vertex="1">
          <mxGeometry width="60" height="30" as="geometry">
            <mxRectangle width="60" height="30" as="alternateBounds" />
          </mxGeometry>
        </mxCell>
        <mxCell id="bQfWvRvFdCdmx63TbRXj-133" value="inventdimid" style="shape=partialRectangle;connectable=0;fillColor=none;top=0;left=0;bottom=0;right=0;align=left;spacingLeft=6;fontStyle=5;overflow=hidden;html=1;whiteSpace=wrap;labelBackgroundColor=none;strokeColor=#788AA3;fontColor=#46495D;rounded=1;fontSize=16;" parent="bQfWvRvFdCdmx63TbRXj-131" vertex="1">
          <mxGeometry x="60" width="223" height="30" as="geometry">
            <mxRectangle width="223" height="30" as="alternateBounds" />
          </mxGeometry>
        </mxCell>
        <mxCell id="bQfWvRvFdCdmx63TbRXj-134" value="" style="shape=tableRow;horizontal=0;startSize=0;swimlaneHead=0;swimlaneBody=0;fillColor=none;collapsible=0;dropTarget=0;points=[[0,0.5],[1,0.5]];portConstraint=eastwest;top=0;left=0;right=0;bottom=0;html=1;labelBackgroundColor=none;strokeColor=#788AA3;fontColor=#46495D;rounded=1;fontSize=16;" parent="bQfWvRvFdCdmx63TbRXj-130" vertex="1">
          <mxGeometry y="60" width="283" height="30" as="geometry" />
        </mxCell>
        <mxCell id="bQfWvRvFdCdmx63TbRXj-135" value="" style="shape=partialRectangle;connectable=0;fillColor=none;top=0;left=0;bottom=0;right=0;editable=1;overflow=hidden;html=1;whiteSpace=wrap;labelBackgroundColor=none;strokeColor=#788AA3;fontColor=#46495D;rounded=1;fontSize=16;" parent="bQfWvRvFdCdmx63TbRXj-134" vertex="1">
          <mxGeometry width="60" height="30" as="geometry">
            <mxRectangle width="60" height="30" as="alternateBounds" />
          </mxGeometry>
        </mxCell>
        <mxCell id="bQfWvRvFdCdmx63TbRXj-136" value="batchnumber" style="shape=partialRectangle;connectable=0;fillColor=none;top=0;left=0;bottom=0;right=0;align=left;spacingLeft=6;overflow=hidden;html=1;whiteSpace=wrap;labelBackgroundColor=none;strokeColor=#788AA3;fontColor=#46495D;rounded=1;fontSize=16;" parent="bQfWvRvFdCdmx63TbRXj-134" vertex="1">
          <mxGeometry x="60" width="223" height="30" as="geometry">
            <mxRectangle width="223" height="30" as="alternateBounds" />
          </mxGeometry>
        </mxCell>
        <mxCell id="bQfWvRvFdCdmx63TbRXj-137" style="shape=tableRow;horizontal=0;startSize=0;swimlaneHead=0;swimlaneBody=0;fillColor=none;collapsible=0;dropTarget=0;points=[[0,0.5],[1,0.5]];portConstraint=eastwest;top=0;left=0;right=0;bottom=0;html=1;labelBackgroundColor=none;strokeColor=#788AA3;fontColor=#46495D;rounded=1;fontSize=16;" parent="bQfWvRvFdCdmx63TbRXj-130" vertex="1">
          <mxGeometry y="90" width="283" height="30" as="geometry" />
        </mxCell>
        <mxCell id="bQfWvRvFdCdmx63TbRXj-138" style="shape=partialRectangle;connectable=0;fillColor=none;top=0;left=0;bottom=0;right=0;editable=1;overflow=hidden;html=1;whiteSpace=wrap;labelBackgroundColor=none;strokeColor=#788AA3;fontColor=#46495D;rounded=1;fontSize=16;" parent="bQfWvRvFdCdmx63TbRXj-137" vertex="1">
          <mxGeometry width="60" height="30" as="geometry">
            <mxRectangle width="60" height="30" as="alternateBounds" />
          </mxGeometry>
        </mxCell>
        <mxCell id="bQfWvRvFdCdmx63TbRXj-139" value="serialnumber" style="shape=partialRectangle;connectable=0;fillColor=none;top=0;left=0;bottom=0;right=0;align=left;spacingLeft=6;overflow=hidden;html=1;whiteSpace=wrap;labelBackgroundColor=none;strokeColor=#788AA3;fontColor=#46495D;rounded=1;fontSize=16;" parent="bQfWvRvFdCdmx63TbRXj-137" vertex="1">
          <mxGeometry x="60" width="223" height="30" as="geometry">
            <mxRectangle width="223" height="30" as="alternateBounds" />
          </mxGeometry>
        </mxCell>
        <mxCell id="bQfWvRvFdCdmx63TbRXj-140" style="shape=tableRow;horizontal=0;startSize=0;swimlaneHead=0;swimlaneBody=0;fillColor=none;collapsible=0;dropTarget=0;points=[[0,0.5],[1,0.5]];portConstraint=eastwest;top=0;left=0;right=0;bottom=0;html=1;labelBackgroundColor=none;strokeColor=#788AA3;fontColor=#46495D;rounded=1;fontSize=16;" parent="bQfWvRvFdCdmx63TbRXj-130" vertex="1">
          <mxGeometry y="120" width="283" height="30" as="geometry" />
        </mxCell>
        <mxCell id="bQfWvRvFdCdmx63TbRXj-141" style="shape=partialRectangle;connectable=0;fillColor=none;top=0;left=0;bottom=0;right=0;editable=1;overflow=hidden;html=1;whiteSpace=wrap;labelBackgroundColor=none;strokeColor=#788AA3;fontColor=#46495D;rounded=1;fontSize=16;" parent="bQfWvRvFdCdmx63TbRXj-140" vertex="1">
          <mxGeometry width="60" height="30" as="geometry">
            <mxRectangle width="60" height="30" as="alternateBounds" />
          </mxGeometry>
        </mxCell>
        <mxCell id="bQfWvRvFdCdmx63TbRXj-142" value="palettenumber" style="shape=partialRectangle;connectable=0;fillColor=none;top=0;left=0;bottom=0;right=0;align=left;spacingLeft=6;overflow=hidden;html=1;whiteSpace=wrap;labelBackgroundColor=none;strokeColor=#788AA3;fontColor=#46495D;rounded=1;fontSize=16;" parent="bQfWvRvFdCdmx63TbRXj-140" vertex="1">
          <mxGeometry x="60" width="223" height="30" as="geometry">
            <mxRectangle width="223" height="30" as="alternateBounds" />
          </mxGeometry>
        </mxCell>
        <mxCell id="bQfWvRvFdCdmx63TbRXj-143" style="shape=tableRow;horizontal=0;startSize=0;swimlaneHead=0;swimlaneBody=0;fillColor=none;collapsible=0;dropTarget=0;points=[[0,0.5],[1,0.5]];portConstraint=eastwest;top=0;left=0;right=0;bottom=0;html=1;labelBackgroundColor=none;strokeColor=#788AA3;fontColor=#46495D;rounded=1;fontSize=16;" parent="bQfWvRvFdCdmx63TbRXj-130" vertex="1">
          <mxGeometry y="150" width="283" height="30" as="geometry" />
        </mxCell>
        <mxCell id="bQfWvRvFdCdmx63TbRXj-144" style="shape=partialRectangle;connectable=0;fillColor=none;top=0;left=0;bottom=0;right=0;editable=1;overflow=hidden;html=1;whiteSpace=wrap;labelBackgroundColor=none;strokeColor=#788AA3;fontColor=#46495D;rounded=1;fontSize=16;" parent="bQfWvRvFdCdmx63TbRXj-143" vertex="1">
          <mxGeometry width="60" height="30" as="geometry">
            <mxRectangle width="60" height="30" as="alternateBounds" />
          </mxGeometry>
        </mxCell>
        <mxCell id="bQfWvRvFdCdmx63TbRXj-145" value="owner" style="shape=partialRectangle;connectable=0;fillColor=none;top=0;left=0;bottom=0;right=0;align=left;spacingLeft=6;overflow=hidden;html=1;whiteSpace=wrap;labelBackgroundColor=none;strokeColor=#788AA3;fontColor=#46495D;rounded=1;fontSize=16;" parent="bQfWvRvFdCdmx63TbRXj-143" vertex="1">
          <mxGeometry x="60" width="223" height="30" as="geometry">
            <mxRectangle width="223" height="30" as="alternateBounds" />
          </mxGeometry>
        </mxCell>
        <mxCell id="bQfWvRvFdCdmx63TbRXj-146" style="shape=tableRow;horizontal=0;startSize=0;swimlaneHead=0;swimlaneBody=0;fillColor=none;collapsible=0;dropTarget=0;points=[[0,0.5],[1,0.5]];portConstraint=eastwest;top=0;left=0;right=0;bottom=0;html=1;labelBackgroundColor=none;strokeColor=#788AA3;fontColor=#46495D;rounded=1;fontSize=16;" parent="bQfWvRvFdCdmx63TbRXj-130" vertex="1">
          <mxGeometry y="180" width="283" height="30" as="geometry" />
        </mxCell>
        <mxCell id="bQfWvRvFdCdmx63TbRXj-147" style="shape=partialRectangle;connectable=0;fillColor=none;top=0;left=0;bottom=0;right=0;editable=1;overflow=hidden;html=1;whiteSpace=wrap;labelBackgroundColor=none;strokeColor=#788AA3;fontColor=#46495D;rounded=1;fontSize=16;" parent="bQfWvRvFdCdmx63TbRXj-146" vertex="1">
          <mxGeometry width="60" height="30" as="geometry">
            <mxRectangle width="60" height="30" as="alternateBounds" />
          </mxGeometry>
        </mxCell>
        <mxCell id="bQfWvRvFdCdmx63TbRXj-148" value="reflocation" style="shape=partialRectangle;connectable=0;fillColor=none;top=0;left=0;bottom=0;right=0;align=left;spacingLeft=6;overflow=hidden;html=1;whiteSpace=wrap;labelBackgroundColor=none;strokeColor=#788AA3;fontColor=#46495D;rounded=1;fontSize=16;" parent="bQfWvRvFdCdmx63TbRXj-146" vertex="1">
          <mxGeometry x="60" width="223" height="30" as="geometry">
            <mxRectangle width="223" height="30" as="alternateBounds" />
          </mxGeometry>
        </mxCell>
        <mxCell id="bQfWvRvFdCdmx63TbRXj-149" style="shape=tableRow;horizontal=0;startSize=0;swimlaneHead=0;swimlaneBody=0;fillColor=none;collapsible=0;dropTarget=0;points=[[0,0.5],[1,0.5]];portConstraint=eastwest;top=0;left=0;right=0;bottom=0;html=1;labelBackgroundColor=none;strokeColor=#788AA3;fontColor=#46495D;rounded=1;fontSize=16;" parent="bQfWvRvFdCdmx63TbRXj-130" vertex="1">
          <mxGeometry y="210" width="283" height="30" as="geometry" />
        </mxCell>
        <mxCell id="bQfWvRvFdCdmx63TbRXj-150" style="shape=partialRectangle;connectable=0;fillColor=none;top=0;left=0;bottom=0;right=0;editable=1;overflow=hidden;html=1;whiteSpace=wrap;labelBackgroundColor=none;strokeColor=#788AA3;fontColor=#46495D;rounded=1;fontSize=16;" parent="bQfWvRvFdCdmx63TbRXj-149" vertex="1">
          <mxGeometry width="60" height="30" as="geometry">
            <mxRectangle width="60" height="30" as="alternateBounds" />
          </mxGeometry>
        </mxCell>
        <mxCell id="bQfWvRvFdCdmx63TbRXj-151" value="refwarehouse" style="shape=partialRectangle;connectable=0;fillColor=none;top=0;left=0;bottom=0;right=0;align=left;spacingLeft=6;overflow=hidden;html=1;whiteSpace=wrap;labelBackgroundColor=none;strokeColor=#788AA3;fontColor=#46495D;rounded=1;fontSize=16;" parent="bQfWvRvFdCdmx63TbRXj-149" vertex="1">
          <mxGeometry x="60" width="223" height="30" as="geometry">
            <mxRectangle width="223" height="30" as="alternateBounds" />
          </mxGeometry>
        </mxCell>
        <mxCell id="bQfWvRvFdCdmx63TbRXj-152" style="shape=tableRow;horizontal=0;startSize=0;swimlaneHead=0;swimlaneBody=0;fillColor=none;collapsible=0;dropTarget=0;points=[[0,0.5],[1,0.5]];portConstraint=eastwest;top=0;left=0;right=0;bottom=0;html=1;labelBackgroundColor=none;strokeColor=#788AA3;fontColor=#46495D;rounded=1;fontSize=16;" parent="bQfWvRvFdCdmx63TbRXj-130" vertex="1">
          <mxGeometry y="240" width="283" height="30" as="geometry" />
        </mxCell>
        <mxCell id="bQfWvRvFdCdmx63TbRXj-153" style="shape=partialRectangle;connectable=0;fillColor=none;top=0;left=0;bottom=0;right=0;editable=1;overflow=hidden;html=1;whiteSpace=wrap;labelBackgroundColor=none;strokeColor=#788AA3;fontColor=#46495D;rounded=1;fontSize=16;" parent="bQfWvRvFdCdmx63TbRXj-152" vertex="1">
          <mxGeometry width="60" height="30" as="geometry">
            <mxRectangle width="60" height="30" as="alternateBounds" />
          </mxGeometry>
        </mxCell>
        <mxCell id="bQfWvRvFdCdmx63TbRXj-154" value="refsite" style="shape=partialRectangle;connectable=0;fillColor=none;top=0;left=0;bottom=0;right=0;align=left;spacingLeft=6;overflow=hidden;html=1;whiteSpace=wrap;labelBackgroundColor=none;strokeColor=#788AA3;fontColor=#46495D;rounded=1;fontSize=16;" parent="bQfWvRvFdCdmx63TbRXj-152" vertex="1">
          <mxGeometry x="60" width="223" height="30" as="geometry">
            <mxRectangle width="223" height="30" as="alternateBounds" />
          </mxGeometry>
        </mxCell>
        <mxCell id="bQfWvRvFdCdmx63TbRXj-155" style="edgeStyle=orthogonalEdgeStyle;rounded=1;orthogonalLoop=1;jettySize=auto;html=1;exitX=0;exitY=0.5;exitDx=0;exitDy=0;labelBackgroundColor=none;fontColor=default;strokeColor=#788AA3;fontSize=16;" parent="bQfWvRvFdCdmx63TbRXj-364" source="bQfWvRvFdCdmx63TbRXj-131" target="bQfWvRvFdCdmx63TbRXj-41" edge="1">
          <mxGeometry relative="1" as="geometry">
            <Array as="points">
              <mxPoint x="739" y="80" />
              <mxPoint x="739" y="169" />
            </Array>
          </mxGeometry>
        </mxCell>
        <mxCell id="bQfWvRvFdCdmx63TbRXj-159" value="currecy" style="shape=table;startSize=30;container=1;collapsible=1;childLayout=tableLayout;fixedRows=1;rowLines=0;fontStyle=1;align=center;resizeLast=1;html=1;whiteSpace=wrap;labelBackgroundColor=none;fillColor=#B2C9AB;strokeColor=#788AA3;fontColor=#46495D;rounded=1;fontSize=16;" parent="bQfWvRvFdCdmx63TbRXj-364" vertex="1">
          <mxGeometry x="34" y="531" width="204.91" height="90" as="geometry" />
        </mxCell>
        <mxCell id="bQfWvRvFdCdmx63TbRXj-160" value="" style="shape=tableRow;horizontal=0;startSize=0;swimlaneHead=0;swimlaneBody=0;fillColor=none;collapsible=0;dropTarget=0;points=[[0,0.5],[1,0.5]];portConstraint=eastwest;top=0;left=0;right=0;bottom=1;html=1;labelBackgroundColor=none;strokeColor=#788AA3;fontColor=#46495D;rounded=1;fontSize=16;" parent="bQfWvRvFdCdmx63TbRXj-159" vertex="1">
          <mxGeometry y="30" width="204.91" height="30" as="geometry" />
        </mxCell>
        <mxCell id="bQfWvRvFdCdmx63TbRXj-161" value="PK" style="shape=partialRectangle;connectable=0;fillColor=none;top=0;left=0;bottom=0;right=0;fontStyle=1;overflow=hidden;html=1;whiteSpace=wrap;labelBackgroundColor=none;strokeColor=#788AA3;fontColor=#46495D;rounded=1;fontSize=16;" parent="bQfWvRvFdCdmx63TbRXj-160" vertex="1">
          <mxGeometry width="60" height="30" as="geometry">
            <mxRectangle width="60" height="30" as="alternateBounds" />
          </mxGeometry>
        </mxCell>
        <mxCell id="bQfWvRvFdCdmx63TbRXj-162" value="refcurrecny" style="shape=partialRectangle;connectable=0;fillColor=none;top=0;left=0;bottom=0;right=0;align=left;spacingLeft=6;fontStyle=5;overflow=hidden;html=1;whiteSpace=wrap;labelBackgroundColor=none;strokeColor=#788AA3;fontColor=#46495D;rounded=1;fontSize=16;" parent="bQfWvRvFdCdmx63TbRXj-160" vertex="1">
          <mxGeometry x="60" width="144.91" height="30" as="geometry">
            <mxRectangle width="144.91" height="30" as="alternateBounds" />
          </mxGeometry>
        </mxCell>
        <mxCell id="bQfWvRvFdCdmx63TbRXj-163" value="" style="shape=tableRow;horizontal=0;startSize=0;swimlaneHead=0;swimlaneBody=0;fillColor=none;collapsible=0;dropTarget=0;points=[[0,0.5],[1,0.5]];portConstraint=eastwest;top=0;left=0;right=0;bottom=0;html=1;labelBackgroundColor=none;strokeColor=#788AA3;fontColor=#46495D;rounded=1;fontSize=16;" parent="bQfWvRvFdCdmx63TbRXj-159" vertex="1">
          <mxGeometry y="60" width="204.91" height="30" as="geometry" />
        </mxCell>
        <mxCell id="bQfWvRvFdCdmx63TbRXj-164" value="" style="shape=partialRectangle;connectable=0;fillColor=none;top=0;left=0;bottom=0;right=0;editable=1;overflow=hidden;html=1;whiteSpace=wrap;labelBackgroundColor=none;strokeColor=#788AA3;fontColor=#46495D;rounded=1;fontSize=16;" parent="bQfWvRvFdCdmx63TbRXj-163" vertex="1">
          <mxGeometry width="60" height="30" as="geometry">
            <mxRectangle width="60" height="30" as="alternateBounds" />
          </mxGeometry>
        </mxCell>
        <mxCell id="bQfWvRvFdCdmx63TbRXj-165" value="currency" style="shape=partialRectangle;connectable=0;fillColor=none;top=0;left=0;bottom=0;right=0;align=left;spacingLeft=6;overflow=hidden;html=1;whiteSpace=wrap;labelBackgroundColor=none;strokeColor=#788AA3;fontColor=#46495D;rounded=1;fontSize=16;" parent="bQfWvRvFdCdmx63TbRXj-163" vertex="1">
          <mxGeometry x="60" width="144.91" height="30" as="geometry">
            <mxRectangle width="144.91" height="30" as="alternateBounds" />
          </mxGeometry>
        </mxCell>
        <mxCell id="bQfWvRvFdCdmx63TbRXj-166" style="edgeStyle=orthogonalEdgeStyle;rounded=1;orthogonalLoop=1;jettySize=auto;html=1;exitX=1;exitY=0.5;exitDx=0;exitDy=0;entryX=0;entryY=0.5;entryDx=0;entryDy=0;labelBackgroundColor=none;fontColor=default;strokeColor=#788AA3;fontSize=16;" parent="bQfWvRvFdCdmx63TbRXj-364" source="bQfWvRvFdCdmx63TbRXj-160" target="bQfWvRvFdCdmx63TbRXj-156" edge="1">
          <mxGeometry relative="1" as="geometry">
            <Array as="points">
              <mxPoint x="317" y="576" />
              <mxPoint x="317" y="558" />
              <mxPoint x="359" y="558" />
            </Array>
          </mxGeometry>
        </mxCell>
        <mxCell id="bQfWvRvFdCdmx63TbRXj-167" style="edgeStyle=orthogonalEdgeStyle;rounded=1;orthogonalLoop=1;jettySize=auto;html=1;exitX=1;exitY=0.5;exitDx=0;exitDy=0;labelBackgroundColor=none;fontColor=default;strokeColor=#788AA3;fontSize=16;" parent="bQfWvRvFdCdmx63TbRXj-364" source="bQfWvRvFdCdmx63TbRXj-115" target="bQfWvRvFdCdmx63TbRXj-126" edge="1">
          <mxGeometry relative="1" as="geometry">
            <Array as="points">
              <mxPoint x="194" y="474" />
              <mxPoint x="194" y="476" />
              <mxPoint x="369" y="476" />
              <mxPoint x="369" y="529" />
            </Array>
          </mxGeometry>
        </mxCell>
        <mxCell id="bQfWvRvFdCdmx63TbRXj-360" style="edgeStyle=orthogonalEdgeStyle;rounded=1;orthogonalLoop=1;jettySize=auto;html=1;labelBackgroundColor=none;fontColor=default;strokeColor=#788AA3;fontSize=16;" parent="bQfWvRvFdCdmx63TbRXj-364" source="bQfWvRvFdCdmx63TbRXj-8" target="bQfWvRvFdCdmx63TbRXj-111" edge="1">
          <mxGeometry relative="1" as="geometry">
            <mxPoint x="607.9999999999999" y="734.9999999999998" as="targetPoint" />
            <Array as="points">
              <mxPoint x="1213" y="533" />
            </Array>
          </mxGeometry>
        </mxCell>
        <mxCell id="bQfWvRvFdCdmx63TbRXj-365" value="Inventory transfer management" style="swimlane;whiteSpace=wrap;html=1;labelBackgroundColor=none;fillColor=#B2C9AB;strokeColor=#788AA3;fontColor=#46495D;rounded=1;fontSize=16;" parent="1" vertex="1">
          <mxGeometry x="-1106" y="345" width="1289" height="877" as="geometry" />
        </mxCell>
        <mxCell id="bQfWvRvFdCdmx63TbRXj-181" value="inventorytransfer" style="shape=table;startSize=30;container=1;collapsible=1;childLayout=tableLayout;fixedRows=1;rowLines=0;fontStyle=1;align=center;resizeLast=1;html=1;whiteSpace=wrap;labelBackgroundColor=none;fillColor=#B2C9AB;strokeColor=#788AA3;fontColor=#46495D;rounded=1;fontSize=16;" parent="bQfWvRvFdCdmx63TbRXj-365" vertex="1">
          <mxGeometry x="400" y="43" width="270" height="210" as="geometry" />
        </mxCell>
        <mxCell id="bQfWvRvFdCdmx63TbRXj-182" value="" style="shape=tableRow;horizontal=0;startSize=0;swimlaneHead=0;swimlaneBody=0;fillColor=none;collapsible=0;dropTarget=0;points=[[0,0.5],[1,0.5]];portConstraint=eastwest;top=0;left=0;right=0;bottom=1;html=1;labelBackgroundColor=none;strokeColor=#788AA3;fontColor=#46495D;rounded=1;fontSize=16;" parent="bQfWvRvFdCdmx63TbRXj-181" vertex="1">
          <mxGeometry y="30" width="270" height="30" as="geometry" />
        </mxCell>
        <mxCell id="bQfWvRvFdCdmx63TbRXj-183" value="PK" style="shape=partialRectangle;connectable=0;fillColor=none;top=0;left=0;bottom=0;right=0;fontStyle=1;overflow=hidden;html=1;whiteSpace=wrap;labelBackgroundColor=none;strokeColor=#788AA3;fontColor=#46495D;rounded=1;fontSize=16;" parent="bQfWvRvFdCdmx63TbRXj-182" vertex="1">
          <mxGeometry width="60" height="30" as="geometry">
            <mxRectangle width="60" height="30" as="alternateBounds" />
          </mxGeometry>
        </mxCell>
        <mxCell id="bQfWvRvFdCdmx63TbRXj-184" value="refinventorytransfer" style="shape=partialRectangle;connectable=0;fillColor=none;top=0;left=0;bottom=0;right=0;align=left;spacingLeft=6;fontStyle=5;overflow=hidden;html=1;whiteSpace=wrap;labelBackgroundColor=none;strokeColor=#788AA3;fontColor=#46495D;rounded=1;fontSize=16;" parent="bQfWvRvFdCdmx63TbRXj-182" vertex="1">
          <mxGeometry x="60" width="210" height="30" as="geometry">
            <mxRectangle width="210" height="30" as="alternateBounds" />
          </mxGeometry>
        </mxCell>
        <mxCell id="bQfWvRvFdCdmx63TbRXj-185" value="" style="shape=tableRow;horizontal=0;startSize=0;swimlaneHead=0;swimlaneBody=0;fillColor=none;collapsible=0;dropTarget=0;points=[[0,0.5],[1,0.5]];portConstraint=eastwest;top=0;left=0;right=0;bottom=0;html=1;labelBackgroundColor=none;strokeColor=#788AA3;fontColor=#46495D;rounded=1;fontSize=16;" parent="bQfWvRvFdCdmx63TbRXj-181" vertex="1">
          <mxGeometry y="60" width="270" height="30" as="geometry" />
        </mxCell>
        <mxCell id="bQfWvRvFdCdmx63TbRXj-186" value="FK" style="shape=partialRectangle;connectable=0;fillColor=none;top=0;left=0;bottom=0;right=0;editable=1;overflow=hidden;html=1;whiteSpace=wrap;labelBackgroundColor=none;strokeColor=#788AA3;fontColor=#46495D;rounded=1;fontSize=16;" parent="bQfWvRvFdCdmx63TbRXj-185" vertex="1">
          <mxGeometry width="60" height="30" as="geometry">
            <mxRectangle width="60" height="30" as="alternateBounds" />
          </mxGeometry>
        </mxCell>
        <mxCell id="bQfWvRvFdCdmx63TbRXj-187" value="refwarehousefrom" style="shape=partialRectangle;connectable=0;fillColor=none;top=0;left=0;bottom=0;right=0;align=left;spacingLeft=6;overflow=hidden;html=1;whiteSpace=wrap;labelBackgroundColor=none;strokeColor=#788AA3;fontColor=#46495D;rounded=1;fontSize=16;" parent="bQfWvRvFdCdmx63TbRXj-185" vertex="1">
          <mxGeometry x="60" width="210" height="30" as="geometry">
            <mxRectangle width="210" height="30" as="alternateBounds" />
          </mxGeometry>
        </mxCell>
        <mxCell id="bQfWvRvFdCdmx63TbRXj-188" style="shape=tableRow;horizontal=0;startSize=0;swimlaneHead=0;swimlaneBody=0;fillColor=none;collapsible=0;dropTarget=0;points=[[0,0.5],[1,0.5]];portConstraint=eastwest;top=0;left=0;right=0;bottom=0;html=1;labelBackgroundColor=none;strokeColor=#788AA3;fontColor=#46495D;rounded=1;fontSize=16;" parent="bQfWvRvFdCdmx63TbRXj-181" vertex="1">
          <mxGeometry y="90" width="270" height="30" as="geometry" />
        </mxCell>
        <mxCell id="bQfWvRvFdCdmx63TbRXj-189" value="FK" style="shape=partialRectangle;connectable=0;fillColor=none;top=0;left=0;bottom=0;right=0;editable=1;overflow=hidden;html=1;whiteSpace=wrap;labelBackgroundColor=none;strokeColor=#788AA3;fontColor=#46495D;rounded=1;fontSize=16;" parent="bQfWvRvFdCdmx63TbRXj-188" vertex="1">
          <mxGeometry width="60" height="30" as="geometry">
            <mxRectangle width="60" height="30" as="alternateBounds" />
          </mxGeometry>
        </mxCell>
        <mxCell id="bQfWvRvFdCdmx63TbRXj-190" value="refordertransferstatus" style="shape=partialRectangle;connectable=0;fillColor=none;top=0;left=0;bottom=0;right=0;align=left;spacingLeft=6;overflow=hidden;html=1;whiteSpace=wrap;labelBackgroundColor=none;strokeColor=#788AA3;fontColor=#46495D;rounded=1;fontSize=16;" parent="bQfWvRvFdCdmx63TbRXj-188" vertex="1">
          <mxGeometry x="60" width="210" height="30" as="geometry">
            <mxRectangle width="210" height="30" as="alternateBounds" />
          </mxGeometry>
        </mxCell>
        <mxCell id="bQfWvRvFdCdmx63TbRXj-191" style="shape=tableRow;horizontal=0;startSize=0;swimlaneHead=0;swimlaneBody=0;fillColor=none;collapsible=0;dropTarget=0;points=[[0,0.5],[1,0.5]];portConstraint=eastwest;top=0;left=0;right=0;bottom=0;html=1;labelBackgroundColor=none;strokeColor=#788AA3;fontColor=#46495D;rounded=1;fontSize=16;" parent="bQfWvRvFdCdmx63TbRXj-181" vertex="1">
          <mxGeometry y="120" width="270" height="30" as="geometry" />
        </mxCell>
        <mxCell id="bQfWvRvFdCdmx63TbRXj-192" value="FK" style="shape=partialRectangle;connectable=0;fillColor=none;top=0;left=0;bottom=0;right=0;editable=1;overflow=hidden;html=1;whiteSpace=wrap;labelBackgroundColor=none;strokeColor=#788AA3;fontColor=#46495D;rounded=1;fontSize=16;" parent="bQfWvRvFdCdmx63TbRXj-191" vertex="1">
          <mxGeometry width="60" height="30" as="geometry">
            <mxRectangle width="60" height="30" as="alternateBounds" />
          </mxGeometry>
        </mxCell>
        <mxCell id="bQfWvRvFdCdmx63TbRXj-193" value="refwarehousetransitfrom" style="shape=partialRectangle;connectable=0;fillColor=none;top=0;left=0;bottom=0;right=0;align=left;spacingLeft=6;overflow=hidden;html=1;whiteSpace=wrap;labelBackgroundColor=none;strokeColor=#788AA3;fontColor=#46495D;rounded=1;fontSize=16;" parent="bQfWvRvFdCdmx63TbRXj-191" vertex="1">
          <mxGeometry x="60" width="210" height="30" as="geometry">
            <mxRectangle width="210" height="30" as="alternateBounds" />
          </mxGeometry>
        </mxCell>
        <mxCell id="bQfWvRvFdCdmx63TbRXj-207" style="shape=tableRow;horizontal=0;startSize=0;swimlaneHead=0;swimlaneBody=0;fillColor=none;collapsible=0;dropTarget=0;points=[[0,0.5],[1,0.5]];portConstraint=eastwest;top=0;left=0;right=0;bottom=0;html=1;labelBackgroundColor=none;strokeColor=#788AA3;fontColor=#46495D;rounded=1;fontSize=16;" parent="bQfWvRvFdCdmx63TbRXj-181" vertex="1">
          <mxGeometry y="150" width="270" height="30" as="geometry" />
        </mxCell>
        <mxCell id="bQfWvRvFdCdmx63TbRXj-208" value="FK" style="shape=partialRectangle;connectable=0;fillColor=none;top=0;left=0;bottom=0;right=0;editable=1;overflow=hidden;html=1;whiteSpace=wrap;labelBackgroundColor=none;strokeColor=#788AA3;fontColor=#46495D;rounded=1;fontSize=16;" parent="bQfWvRvFdCdmx63TbRXj-207" vertex="1">
          <mxGeometry width="60" height="30" as="geometry">
            <mxRectangle width="60" height="30" as="alternateBounds" />
          </mxGeometry>
        </mxCell>
        <mxCell id="bQfWvRvFdCdmx63TbRXj-209" value="refwarehouseto" style="shape=partialRectangle;connectable=0;fillColor=none;top=0;left=0;bottom=0;right=0;align=left;spacingLeft=6;overflow=hidden;html=1;whiteSpace=wrap;labelBackgroundColor=none;strokeColor=#788AA3;fontColor=#46495D;rounded=1;fontSize=16;" parent="bQfWvRvFdCdmx63TbRXj-207" vertex="1">
          <mxGeometry x="60" width="210" height="30" as="geometry">
            <mxRectangle width="210" height="30" as="alternateBounds" />
          </mxGeometry>
        </mxCell>
        <mxCell id="bQfWvRvFdCdmx63TbRXj-366" style="shape=tableRow;horizontal=0;startSize=0;swimlaneHead=0;swimlaneBody=0;fillColor=none;collapsible=0;dropTarget=0;points=[[0,0.5],[1,0.5]];portConstraint=eastwest;top=0;left=0;right=0;bottom=0;html=1;labelBackgroundColor=none;strokeColor=#788AA3;fontColor=#46495D;rounded=1;fontSize=16;" parent="bQfWvRvFdCdmx63TbRXj-181" vertex="1">
          <mxGeometry y="180" width="270" height="30" as="geometry" />
        </mxCell>
        <mxCell id="bQfWvRvFdCdmx63TbRXj-367" value="FK" style="shape=partialRectangle;connectable=0;fillColor=none;top=0;left=0;bottom=0;right=0;editable=1;overflow=hidden;html=1;whiteSpace=wrap;labelBackgroundColor=none;strokeColor=#788AA3;fontColor=#46495D;rounded=1;fontSize=16;" parent="bQfWvRvFdCdmx63TbRXj-366" vertex="1">
          <mxGeometry width="60" height="30" as="geometry">
            <mxRectangle width="60" height="30" as="alternateBounds" />
          </mxGeometry>
        </mxCell>
        <mxCell id="bQfWvRvFdCdmx63TbRXj-368" value="refinventorytransfertype" style="shape=partialRectangle;connectable=0;fillColor=none;top=0;left=0;bottom=0;right=0;align=left;spacingLeft=6;overflow=hidden;html=1;whiteSpace=wrap;labelBackgroundColor=none;strokeColor=#788AA3;fontColor=#46495D;rounded=1;fontSize=16;" parent="bQfWvRvFdCdmx63TbRXj-366" vertex="1">
          <mxGeometry x="60" width="210" height="30" as="geometry">
            <mxRectangle width="210" height="30" as="alternateBounds" />
          </mxGeometry>
        </mxCell>
        <mxCell id="bQfWvRvFdCdmx63TbRXj-194" value="inventorytransfer&lt;span style=&quot;text-align: left; font-size: 16px;&quot;&gt;status&lt;/span&gt;" style="shape=table;startSize=30;container=1;collapsible=1;childLayout=tableLayout;fixedRows=1;rowLines=0;fontStyle=1;align=center;resizeLast=1;html=1;whiteSpace=wrap;labelBackgroundColor=none;fillColor=#B2C9AB;strokeColor=#788AA3;fontColor=#46495D;rounded=1;fontSize=16;" parent="bQfWvRvFdCdmx63TbRXj-365" vertex="1">
          <mxGeometry x="873" y="240" width="297" height="90" as="geometry" />
        </mxCell>
        <mxCell id="bQfWvRvFdCdmx63TbRXj-195" value="" style="shape=tableRow;horizontal=0;startSize=0;swimlaneHead=0;swimlaneBody=0;fillColor=none;collapsible=0;dropTarget=0;points=[[0,0.5],[1,0.5]];portConstraint=eastwest;top=0;left=0;right=0;bottom=1;html=1;labelBackgroundColor=none;strokeColor=#788AA3;fontColor=#46495D;rounded=1;fontSize=16;" parent="bQfWvRvFdCdmx63TbRXj-194" vertex="1">
          <mxGeometry y="30" width="297" height="30" as="geometry" />
        </mxCell>
        <mxCell id="bQfWvRvFdCdmx63TbRXj-196" value="PK" style="shape=partialRectangle;connectable=0;fillColor=none;top=0;left=0;bottom=0;right=0;fontStyle=1;overflow=hidden;html=1;whiteSpace=wrap;labelBackgroundColor=none;strokeColor=#788AA3;fontColor=#46495D;rounded=1;fontSize=16;" parent="bQfWvRvFdCdmx63TbRXj-195" vertex="1">
          <mxGeometry width="60" height="30" as="geometry">
            <mxRectangle width="60" height="30" as="alternateBounds" />
          </mxGeometry>
        </mxCell>
        <mxCell id="bQfWvRvFdCdmx63TbRXj-197" value="refinventorytransferstatus" style="shape=partialRectangle;connectable=0;fillColor=none;top=0;left=0;bottom=0;right=0;align=left;spacingLeft=6;fontStyle=5;overflow=hidden;html=1;whiteSpace=wrap;labelBackgroundColor=none;strokeColor=#788AA3;fontColor=#46495D;rounded=1;fontSize=16;" parent="bQfWvRvFdCdmx63TbRXj-195" vertex="1">
          <mxGeometry x="60" width="237" height="30" as="geometry">
            <mxRectangle width="237" height="30" as="alternateBounds" />
          </mxGeometry>
        </mxCell>
        <mxCell id="bQfWvRvFdCdmx63TbRXj-198" value="" style="shape=tableRow;horizontal=0;startSize=0;swimlaneHead=0;swimlaneBody=0;fillColor=none;collapsible=0;dropTarget=0;points=[[0,0.5],[1,0.5]];portConstraint=eastwest;top=0;left=0;right=0;bottom=0;html=1;labelBackgroundColor=none;strokeColor=#788AA3;fontColor=#46495D;rounded=1;fontSize=16;" parent="bQfWvRvFdCdmx63TbRXj-194" vertex="1">
          <mxGeometry y="60" width="297" height="30" as="geometry" />
        </mxCell>
        <mxCell id="bQfWvRvFdCdmx63TbRXj-199" value="" style="shape=partialRectangle;connectable=0;fillColor=none;top=0;left=0;bottom=0;right=0;editable=1;overflow=hidden;html=1;whiteSpace=wrap;labelBackgroundColor=none;strokeColor=#788AA3;fontColor=#46495D;rounded=1;fontSize=16;" parent="bQfWvRvFdCdmx63TbRXj-198" vertex="1">
          <mxGeometry width="60" height="30" as="geometry">
            <mxRectangle width="60" height="30" as="alternateBounds" />
          </mxGeometry>
        </mxCell>
        <mxCell id="bQfWvRvFdCdmx63TbRXj-200" value="inventorytransferstatus" style="shape=partialRectangle;connectable=0;fillColor=none;top=0;left=0;bottom=0;right=0;align=left;spacingLeft=6;overflow=hidden;html=1;whiteSpace=wrap;labelBackgroundColor=none;strokeColor=#788AA3;fontColor=#46495D;rounded=1;fontSize=16;" parent="bQfWvRvFdCdmx63TbRXj-198" vertex="1">
          <mxGeometry x="60" width="237" height="30" as="geometry">
            <mxRectangle width="237" height="30" as="alternateBounds" />
          </mxGeometry>
        </mxCell>
        <mxCell id="bQfWvRvFdCdmx63TbRXj-210" style="edgeStyle=orthogonalEdgeStyle;rounded=1;orthogonalLoop=1;jettySize=auto;html=1;exitX=0;exitY=0.5;exitDx=0;exitDy=0;labelBackgroundColor=none;fontColor=default;strokeColor=#788AA3;fontSize=16;" parent="bQfWvRvFdCdmx63TbRXj-365" source="bQfWvRvFdCdmx63TbRXj-195" target="bQfWvRvFdCdmx63TbRXj-188" edge="1">
          <mxGeometry relative="1" as="geometry">
            <Array as="points">
              <mxPoint x="873" y="289" />
              <mxPoint x="785" y="289" />
              <mxPoint x="785" y="148" />
            </Array>
          </mxGeometry>
        </mxCell>
        <mxCell id="bQfWvRvFdCdmx63TbRXj-211" value="inventorytransferline" style="shape=table;startSize=30;container=1;collapsible=1;childLayout=tableLayout;fixedRows=1;rowLines=0;fontStyle=1;align=center;resizeLast=1;html=1;whiteSpace=wrap;labelBackgroundColor=none;fillColor=#B2C9AB;strokeColor=#788AA3;fontColor=#46495D;rounded=1;fontSize=16;" parent="bQfWvRvFdCdmx63TbRXj-365" vertex="1">
          <mxGeometry x="49" y="54" width="270" height="390" as="geometry" />
        </mxCell>
        <mxCell id="bQfWvRvFdCdmx63TbRXj-212" value="" style="shape=tableRow;horizontal=0;startSize=0;swimlaneHead=0;swimlaneBody=0;fillColor=none;collapsible=0;dropTarget=0;points=[[0,0.5],[1,0.5]];portConstraint=eastwest;top=0;left=0;right=0;bottom=1;html=1;labelBackgroundColor=none;strokeColor=#788AA3;fontColor=#46495D;rounded=1;fontSize=16;" parent="bQfWvRvFdCdmx63TbRXj-211" vertex="1">
          <mxGeometry y="30" width="270" height="30" as="geometry" />
        </mxCell>
        <mxCell id="bQfWvRvFdCdmx63TbRXj-213" value="PK" style="shape=partialRectangle;connectable=0;fillColor=none;top=0;left=0;bottom=0;right=0;fontStyle=1;overflow=hidden;html=1;whiteSpace=wrap;labelBackgroundColor=none;strokeColor=#788AA3;fontColor=#46495D;rounded=1;fontSize=16;" parent="bQfWvRvFdCdmx63TbRXj-212" vertex="1">
          <mxGeometry width="60" height="30" as="geometry">
            <mxRectangle width="60" height="30" as="alternateBounds" />
          </mxGeometry>
        </mxCell>
        <mxCell id="bQfWvRvFdCdmx63TbRXj-214" value="id" style="shape=partialRectangle;connectable=0;fillColor=none;top=0;left=0;bottom=0;right=0;align=left;spacingLeft=6;fontStyle=5;overflow=hidden;html=1;whiteSpace=wrap;labelBackgroundColor=none;strokeColor=#788AA3;fontColor=#46495D;rounded=1;fontSize=16;" parent="bQfWvRvFdCdmx63TbRXj-212" vertex="1">
          <mxGeometry x="60" width="210" height="30" as="geometry">
            <mxRectangle width="210" height="30" as="alternateBounds" />
          </mxGeometry>
        </mxCell>
        <mxCell id="bQfWvRvFdCdmx63TbRXj-215" value="" style="shape=tableRow;horizontal=0;startSize=0;swimlaneHead=0;swimlaneBody=0;fillColor=none;collapsible=0;dropTarget=0;points=[[0,0.5],[1,0.5]];portConstraint=eastwest;top=0;left=0;right=0;bottom=0;html=1;labelBackgroundColor=none;strokeColor=#788AA3;fontColor=#46495D;rounded=1;fontSize=16;" parent="bQfWvRvFdCdmx63TbRXj-211" vertex="1">
          <mxGeometry y="60" width="270" height="30" as="geometry" />
        </mxCell>
        <mxCell id="bQfWvRvFdCdmx63TbRXj-216" value="FK" style="shape=partialRectangle;connectable=0;fillColor=none;top=0;left=0;bottom=0;right=0;editable=1;overflow=hidden;html=1;whiteSpace=wrap;labelBackgroundColor=none;strokeColor=#788AA3;fontColor=#46495D;rounded=1;fontSize=16;" parent="bQfWvRvFdCdmx63TbRXj-215" vertex="1">
          <mxGeometry width="60" height="30" as="geometry">
            <mxRectangle width="60" height="30" as="alternateBounds" />
          </mxGeometry>
        </mxCell>
        <mxCell id="bQfWvRvFdCdmx63TbRXj-217" value="refinventorytransfer" style="shape=partialRectangle;connectable=0;fillColor=none;top=0;left=0;bottom=0;right=0;align=left;spacingLeft=6;overflow=hidden;html=1;whiteSpace=wrap;labelBackgroundColor=none;strokeColor=#788AA3;fontColor=#46495D;rounded=1;fontSize=16;" parent="bQfWvRvFdCdmx63TbRXj-215" vertex="1">
          <mxGeometry x="60" width="210" height="30" as="geometry">
            <mxRectangle width="210" height="30" as="alternateBounds" />
          </mxGeometry>
        </mxCell>
        <mxCell id="bQfWvRvFdCdmx63TbRXj-218" style="shape=tableRow;horizontal=0;startSize=0;swimlaneHead=0;swimlaneBody=0;fillColor=none;collapsible=0;dropTarget=0;points=[[0,0.5],[1,0.5]];portConstraint=eastwest;top=0;left=0;right=0;bottom=0;html=1;labelBackgroundColor=none;strokeColor=#788AA3;fontColor=#46495D;rounded=1;fontSize=16;" parent="bQfWvRvFdCdmx63TbRXj-211" vertex="1">
          <mxGeometry y="90" width="270" height="30" as="geometry" />
        </mxCell>
        <mxCell id="bQfWvRvFdCdmx63TbRXj-219" value="FK" style="shape=partialRectangle;connectable=0;fillColor=none;top=0;left=0;bottom=0;right=0;editable=1;overflow=hidden;html=1;whiteSpace=wrap;labelBackgroundColor=none;strokeColor=#788AA3;fontColor=#46495D;rounded=1;fontSize=16;" parent="bQfWvRvFdCdmx63TbRXj-218" vertex="1">
          <mxGeometry width="60" height="30" as="geometry">
            <mxRectangle width="60" height="30" as="alternateBounds" />
          </mxGeometry>
        </mxCell>
        <mxCell id="bQfWvRvFdCdmx63TbRXj-220" value="inventdimid" style="shape=partialRectangle;connectable=0;fillColor=none;top=0;left=0;bottom=0;right=0;align=left;spacingLeft=6;overflow=hidden;html=1;whiteSpace=wrap;labelBackgroundColor=none;strokeColor=#788AA3;fontColor=#46495D;rounded=1;fontSize=16;" parent="bQfWvRvFdCdmx63TbRXj-218" vertex="1">
          <mxGeometry x="60" width="210" height="30" as="geometry">
            <mxRectangle width="210" height="30" as="alternateBounds" />
          </mxGeometry>
        </mxCell>
        <mxCell id="bQfWvRvFdCdmx63TbRXj-221" style="shape=tableRow;horizontal=0;startSize=0;swimlaneHead=0;swimlaneBody=0;fillColor=none;collapsible=0;dropTarget=0;points=[[0,0.5],[1,0.5]];portConstraint=eastwest;top=0;left=0;right=0;bottom=0;html=1;labelBackgroundColor=none;strokeColor=#788AA3;fontColor=#46495D;rounded=1;fontSize=16;" parent="bQfWvRvFdCdmx63TbRXj-211" vertex="1">
          <mxGeometry y="120" width="270" height="30" as="geometry" />
        </mxCell>
        <mxCell id="bQfWvRvFdCdmx63TbRXj-222" value="FK" style="shape=partialRectangle;connectable=0;fillColor=none;top=0;left=0;bottom=0;right=0;editable=1;overflow=hidden;html=1;whiteSpace=wrap;labelBackgroundColor=none;strokeColor=#788AA3;fontColor=#46495D;rounded=1;fontSize=16;" parent="bQfWvRvFdCdmx63TbRXj-221" vertex="1">
          <mxGeometry width="60" height="30" as="geometry">
            <mxRectangle width="60" height="30" as="alternateBounds" />
          </mxGeometry>
        </mxCell>
        <mxCell id="bQfWvRvFdCdmx63TbRXj-223" value="refitem" style="shape=partialRectangle;connectable=0;fillColor=none;top=0;left=0;bottom=0;right=0;align=left;spacingLeft=6;overflow=hidden;html=1;whiteSpace=wrap;labelBackgroundColor=none;strokeColor=#788AA3;fontColor=#46495D;rounded=1;fontSize=16;" parent="bQfWvRvFdCdmx63TbRXj-221" vertex="1">
          <mxGeometry x="60" width="210" height="30" as="geometry">
            <mxRectangle width="210" height="30" as="alternateBounds" />
          </mxGeometry>
        </mxCell>
        <mxCell id="bQfWvRvFdCdmx63TbRXj-224" style="shape=tableRow;horizontal=0;startSize=0;swimlaneHead=0;swimlaneBody=0;fillColor=none;collapsible=0;dropTarget=0;points=[[0,0.5],[1,0.5]];portConstraint=eastwest;top=0;left=0;right=0;bottom=0;html=1;labelBackgroundColor=none;strokeColor=#788AA3;fontColor=#46495D;rounded=1;fontSize=16;" parent="bQfWvRvFdCdmx63TbRXj-211" vertex="1">
          <mxGeometry y="150" width="270" height="30" as="geometry" />
        </mxCell>
        <mxCell id="bQfWvRvFdCdmx63TbRXj-225" value="" style="shape=partialRectangle;connectable=0;fillColor=none;top=0;left=0;bottom=0;right=0;editable=1;overflow=hidden;html=1;whiteSpace=wrap;labelBackgroundColor=none;strokeColor=#788AA3;fontColor=#46495D;rounded=1;fontSize=16;" parent="bQfWvRvFdCdmx63TbRXj-224" vertex="1">
          <mxGeometry width="60" height="30" as="geometry">
            <mxRectangle width="60" height="30" as="alternateBounds" />
          </mxGeometry>
        </mxCell>
        <mxCell id="bQfWvRvFdCdmx63TbRXj-226" value="qty" style="shape=partialRectangle;connectable=0;fillColor=none;top=0;left=0;bottom=0;right=0;align=left;spacingLeft=6;overflow=hidden;html=1;whiteSpace=wrap;labelBackgroundColor=none;strokeColor=#788AA3;fontColor=#46495D;rounded=1;fontSize=16;" parent="bQfWvRvFdCdmx63TbRXj-224" vertex="1">
          <mxGeometry x="60" width="210" height="30" as="geometry">
            <mxRectangle width="210" height="30" as="alternateBounds" />
          </mxGeometry>
        </mxCell>
        <mxCell id="bQfWvRvFdCdmx63TbRXj-227" style="shape=tableRow;horizontal=0;startSize=0;swimlaneHead=0;swimlaneBody=0;fillColor=none;collapsible=0;dropTarget=0;points=[[0,0.5],[1,0.5]];portConstraint=eastwest;top=0;left=0;right=0;bottom=0;html=1;labelBackgroundColor=none;strokeColor=#788AA3;fontColor=#46495D;rounded=1;fontSize=16;" parent="bQfWvRvFdCdmx63TbRXj-211" vertex="1">
          <mxGeometry y="180" width="270" height="30" as="geometry" />
        </mxCell>
        <mxCell id="bQfWvRvFdCdmx63TbRXj-228" style="shape=partialRectangle;connectable=0;fillColor=none;top=0;left=0;bottom=0;right=0;editable=1;overflow=hidden;html=1;whiteSpace=wrap;labelBackgroundColor=none;strokeColor=#788AA3;fontColor=#46495D;rounded=1;fontSize=16;" parent="bQfWvRvFdCdmx63TbRXj-227" vertex="1">
          <mxGeometry width="60" height="30" as="geometry">
            <mxRectangle width="60" height="30" as="alternateBounds" />
          </mxGeometry>
        </mxCell>
        <mxCell id="bQfWvRvFdCdmx63TbRXj-229" value="qtyremaining" style="shape=partialRectangle;connectable=0;fillColor=none;top=0;left=0;bottom=0;right=0;align=left;spacingLeft=6;overflow=hidden;html=1;whiteSpace=wrap;labelBackgroundColor=none;strokeColor=#788AA3;fontColor=#46495D;rounded=1;fontSize=16;" parent="bQfWvRvFdCdmx63TbRXj-227" vertex="1">
          <mxGeometry x="60" width="210" height="30" as="geometry">
            <mxRectangle width="210" height="30" as="alternateBounds" />
          </mxGeometry>
        </mxCell>
        <mxCell id="bQfWvRvFdCdmx63TbRXj-230" style="shape=tableRow;horizontal=0;startSize=0;swimlaneHead=0;swimlaneBody=0;fillColor=none;collapsible=0;dropTarget=0;points=[[0,0.5],[1,0.5]];portConstraint=eastwest;top=0;left=0;right=0;bottom=0;html=1;labelBackgroundColor=none;strokeColor=#788AA3;fontColor=#46495D;rounded=1;fontSize=16;" parent="bQfWvRvFdCdmx63TbRXj-211" vertex="1">
          <mxGeometry y="210" width="270" height="30" as="geometry" />
        </mxCell>
        <mxCell id="bQfWvRvFdCdmx63TbRXj-231" value="FK" style="shape=partialRectangle;connectable=0;fillColor=none;top=0;left=0;bottom=0;right=0;editable=1;overflow=hidden;html=1;whiteSpace=wrap;labelBackgroundColor=none;strokeColor=#788AA3;fontColor=#46495D;rounded=1;fontSize=16;" parent="bQfWvRvFdCdmx63TbRXj-230" vertex="1">
          <mxGeometry width="60" height="30" as="geometry">
            <mxRectangle width="60" height="30" as="alternateBounds" />
          </mxGeometry>
        </mxCell>
        <mxCell id="bQfWvRvFdCdmx63TbRXj-232" value="refunitinvent" style="shape=partialRectangle;connectable=0;fillColor=none;top=0;left=0;bottom=0;right=0;align=left;spacingLeft=6;overflow=hidden;html=1;whiteSpace=wrap;labelBackgroundColor=none;strokeColor=#788AA3;fontColor=#46495D;rounded=1;fontSize=16;" parent="bQfWvRvFdCdmx63TbRXj-230" vertex="1">
          <mxGeometry x="60" width="210" height="30" as="geometry">
            <mxRectangle width="210" height="30" as="alternateBounds" />
          </mxGeometry>
        </mxCell>
        <mxCell id="bQfWvRvFdCdmx63TbRXj-233" style="shape=tableRow;horizontal=0;startSize=0;swimlaneHead=0;swimlaneBody=0;fillColor=none;collapsible=0;dropTarget=0;points=[[0,0.5],[1,0.5]];portConstraint=eastwest;top=0;left=0;right=0;bottom=0;html=1;labelBackgroundColor=none;strokeColor=#788AA3;fontColor=#46495D;rounded=1;fontSize=16;" parent="bQfWvRvFdCdmx63TbRXj-211" vertex="1">
          <mxGeometry y="240" width="270" height="30" as="geometry" />
        </mxCell>
        <mxCell id="bQfWvRvFdCdmx63TbRXj-234" value="FK" style="shape=partialRectangle;connectable=0;fillColor=none;top=0;left=0;bottom=0;right=0;editable=1;overflow=hidden;html=1;whiteSpace=wrap;labelBackgroundColor=none;strokeColor=#788AA3;fontColor=#46495D;rounded=1;fontSize=16;" parent="bQfWvRvFdCdmx63TbRXj-233" vertex="1">
          <mxGeometry width="60" height="30" as="geometry">
            <mxRectangle width="60" height="30" as="alternateBounds" />
          </mxGeometry>
        </mxCell>
        <mxCell id="bQfWvRvFdCdmx63TbRXj-235" value="refunittrans" style="shape=partialRectangle;connectable=0;fillColor=none;top=0;left=0;bottom=0;right=0;align=left;spacingLeft=6;overflow=hidden;html=1;whiteSpace=wrap;labelBackgroundColor=none;strokeColor=#788AA3;fontColor=#46495D;rounded=1;fontSize=16;" parent="bQfWvRvFdCdmx63TbRXj-233" vertex="1">
          <mxGeometry x="60" width="210" height="30" as="geometry">
            <mxRectangle width="210" height="30" as="alternateBounds" />
          </mxGeometry>
        </mxCell>
        <mxCell id="bQfWvRvFdCdmx63TbRXj-236" style="shape=tableRow;horizontal=0;startSize=0;swimlaneHead=0;swimlaneBody=0;fillColor=none;collapsible=0;dropTarget=0;points=[[0,0.5],[1,0.5]];portConstraint=eastwest;top=0;left=0;right=0;bottom=0;html=1;labelBackgroundColor=none;strokeColor=#788AA3;fontColor=#46495D;rounded=1;fontSize=16;" parent="bQfWvRvFdCdmx63TbRXj-211" vertex="1">
          <mxGeometry y="270" width="270" height="30" as="geometry" />
        </mxCell>
        <mxCell id="bQfWvRvFdCdmx63TbRXj-237" style="shape=partialRectangle;connectable=0;fillColor=none;top=0;left=0;bottom=0;right=0;editable=1;overflow=hidden;html=1;whiteSpace=wrap;labelBackgroundColor=none;strokeColor=#788AA3;fontColor=#46495D;rounded=1;fontSize=16;" parent="bQfWvRvFdCdmx63TbRXj-236" vertex="1">
          <mxGeometry width="60" height="30" as="geometry">
            <mxRectangle width="60" height="30" as="alternateBounds" />
          </mxGeometry>
        </mxCell>
        <mxCell id="bQfWvRvFdCdmx63TbRXj-238" value="coefficient" style="shape=partialRectangle;connectable=0;fillColor=none;top=0;left=0;bottom=0;right=0;align=left;spacingLeft=6;overflow=hidden;html=1;whiteSpace=wrap;labelBackgroundColor=none;strokeColor=#788AA3;fontColor=#46495D;rounded=1;fontSize=16;" parent="bQfWvRvFdCdmx63TbRXj-236" vertex="1">
          <mxGeometry x="60" width="210" height="30" as="geometry">
            <mxRectangle width="210" height="30" as="alternateBounds" />
          </mxGeometry>
        </mxCell>
        <mxCell id="bQfWvRvFdCdmx63TbRXj-239" style="shape=tableRow;horizontal=0;startSize=0;swimlaneHead=0;swimlaneBody=0;fillColor=none;collapsible=0;dropTarget=0;points=[[0,0.5],[1,0.5]];portConstraint=eastwest;top=0;left=0;right=0;bottom=0;html=1;labelBackgroundColor=none;strokeColor=#788AA3;fontColor=#46495D;rounded=1;fontSize=16;" parent="bQfWvRvFdCdmx63TbRXj-211" vertex="1">
          <mxGeometry y="300" width="270" height="30" as="geometry" />
        </mxCell>
        <mxCell id="bQfWvRvFdCdmx63TbRXj-240" style="shape=partialRectangle;connectable=0;fillColor=none;top=0;left=0;bottom=0;right=0;editable=1;overflow=hidden;html=1;whiteSpace=wrap;labelBackgroundColor=none;strokeColor=#788AA3;fontColor=#46495D;rounded=1;fontSize=16;" parent="bQfWvRvFdCdmx63TbRXj-239" vertex="1">
          <mxGeometry width="60" height="30" as="geometry">
            <mxRectangle width="60" height="30" as="alternateBounds" />
          </mxGeometry>
        </mxCell>
        <mxCell id="bQfWvRvFdCdmx63TbRXj-241" value="unitprice" style="shape=partialRectangle;connectable=0;fillColor=none;top=0;left=0;bottom=0;right=0;align=left;spacingLeft=6;overflow=hidden;html=1;whiteSpace=wrap;labelBackgroundColor=none;strokeColor=#788AA3;fontColor=#46495D;rounded=1;fontSize=16;" parent="bQfWvRvFdCdmx63TbRXj-239" vertex="1">
          <mxGeometry x="60" width="210" height="30" as="geometry">
            <mxRectangle width="210" height="30" as="alternateBounds" />
          </mxGeometry>
        </mxCell>
        <mxCell id="bQfWvRvFdCdmx63TbRXj-245" style="shape=tableRow;horizontal=0;startSize=0;swimlaneHead=0;swimlaneBody=0;fillColor=none;collapsible=0;dropTarget=0;points=[[0,0.5],[1,0.5]];portConstraint=eastwest;top=0;left=0;right=0;bottom=0;html=1;labelBackgroundColor=none;strokeColor=#788AA3;fontColor=#46495D;rounded=1;fontSize=16;" parent="bQfWvRvFdCdmx63TbRXj-211" vertex="1">
          <mxGeometry y="330" width="270" height="30" as="geometry" />
        </mxCell>
        <mxCell id="bQfWvRvFdCdmx63TbRXj-246" value="FK" style="shape=partialRectangle;connectable=0;fillColor=none;top=0;left=0;bottom=0;right=0;editable=1;overflow=hidden;html=1;whiteSpace=wrap;labelBackgroundColor=none;strokeColor=#788AA3;fontColor=#46495D;rounded=1;fontSize=16;" parent="bQfWvRvFdCdmx63TbRXj-245" vertex="1">
          <mxGeometry width="60" height="30" as="geometry">
            <mxRectangle width="60" height="30" as="alternateBounds" />
          </mxGeometry>
        </mxCell>
        <mxCell id="bQfWvRvFdCdmx63TbRXj-247" value="refinventorytransferstatus" style="shape=partialRectangle;connectable=0;fillColor=none;top=0;left=0;bottom=0;right=0;align=left;spacingLeft=6;overflow=hidden;html=1;whiteSpace=wrap;labelBackgroundColor=none;strokeColor=#788AA3;fontColor=#46495D;rounded=1;fontSize=16;" parent="bQfWvRvFdCdmx63TbRXj-245" vertex="1">
          <mxGeometry x="60" width="210" height="30" as="geometry">
            <mxRectangle width="210" height="30" as="alternateBounds" />
          </mxGeometry>
        </mxCell>
        <mxCell id="lSKp2wY-4dt-KcIXfeIq-1" style="shape=tableRow;horizontal=0;startSize=0;swimlaneHead=0;swimlaneBody=0;fillColor=none;collapsible=0;dropTarget=0;points=[[0,0.5],[1,0.5]];portConstraint=eastwest;top=0;left=0;right=0;bottom=0;html=1;labelBackgroundColor=none;strokeColor=#788AA3;fontColor=#46495D;rounded=1;fontSize=16;" parent="bQfWvRvFdCdmx63TbRXj-211" vertex="1">
          <mxGeometry y="360" width="270" height="30" as="geometry" />
        </mxCell>
        <mxCell id="lSKp2wY-4dt-KcIXfeIq-2" value="FK" style="shape=partialRectangle;connectable=0;fillColor=none;top=0;left=0;bottom=0;right=0;editable=1;overflow=hidden;html=1;whiteSpace=wrap;labelBackgroundColor=none;strokeColor=#788AA3;fontColor=#46495D;rounded=1;fontSize=16;" parent="lSKp2wY-4dt-KcIXfeIq-1" vertex="1">
          <mxGeometry width="60" height="30" as="geometry">
            <mxRectangle width="60" height="30" as="alternateBounds" />
          </mxGeometry>
        </mxCell>
        <mxCell id="lSKp2wY-4dt-KcIXfeIq-3" value="refpurchaseorder" style="shape=partialRectangle;connectable=0;fillColor=none;top=0;left=0;bottom=0;right=0;align=left;spacingLeft=6;overflow=hidden;html=1;whiteSpace=wrap;labelBackgroundColor=none;strokeColor=#788AA3;fontColor=#46495D;rounded=1;fontSize=16;" parent="lSKp2wY-4dt-KcIXfeIq-1" vertex="1">
          <mxGeometry x="60" width="210" height="30" as="geometry">
            <mxRectangle width="210" height="30" as="alternateBounds" />
          </mxGeometry>
        </mxCell>
        <mxCell id="bQfWvRvFdCdmx63TbRXj-248" style="edgeStyle=orthogonalEdgeStyle;rounded=1;orthogonalLoop=1;jettySize=auto;html=1;exitX=0;exitY=0.5;exitDx=0;exitDy=0;entryX=1;entryY=0.5;entryDx=0;entryDy=0;labelBackgroundColor=none;fontColor=default;strokeColor=#788AA3;fontSize=16;" parent="bQfWvRvFdCdmx63TbRXj-365" source="bQfWvRvFdCdmx63TbRXj-195" target="bQfWvRvFdCdmx63TbRXj-245" edge="1">
          <mxGeometry relative="1" as="geometry">
            <Array as="points">
              <mxPoint x="331" y="285" />
              <mxPoint x="331" y="399" />
            </Array>
          </mxGeometry>
        </mxCell>
        <mxCell id="bQfWvRvFdCdmx63TbRXj-251" value="Values :&amp;nbsp;&lt;br style=&quot;font-size: 16px;&quot;&gt;&lt;ul style=&quot;font-size: 16px;&quot;&gt;&lt;li style=&quot;border-color: var(--border-color); font-size: 16px;&quot;&gt;créer&lt;/li&gt;&lt;li style=&quot;border-color: var(--border-color); font-size: 16px;&quot;&gt;en revision&lt;/li&gt;&lt;li style=&quot;border-color: var(--border-color); font-size: 16px;&quot;&gt;Approuver&lt;/li&gt;&lt;li style=&quot;border-color: var(--border-color); font-size: 16px;&quot;&gt;Rejeter&lt;/li&gt;&lt;li style=&quot;font-size: 16px;&quot;&gt;Expédier&lt;/li&gt;&lt;li style=&quot;font-size: 16px;&quot;&gt;reçu&lt;/li&gt;&lt;li style=&quot;font-size: 16px;&quot;&gt;annuler&lt;/li&gt;&lt;/ul&gt;" style="shape=note;size=20;whiteSpace=wrap;html=1;align=left;labelBackgroundColor=none;fillColor=#B2C9AB;strokeColor=#788AA3;fontColor=#46495D;rounded=1;fontSize=16;" parent="bQfWvRvFdCdmx63TbRXj-365" vertex="1">
          <mxGeometry x="860" y="42" width="284" height="183" as="geometry" />
        </mxCell>
        <mxCell id="bQfWvRvFdCdmx63TbRXj-254" style="edgeStyle=orthogonalEdgeStyle;rounded=1;orthogonalLoop=1;jettySize=auto;html=1;labelBackgroundColor=none;fontColor=default;strokeColor=#788AA3;fontSize=16;" parent="bQfWvRvFdCdmx63TbRXj-365" source="bQfWvRvFdCdmx63TbRXj-194" target="bQfWvRvFdCdmx63TbRXj-251" edge="1">
          <mxGeometry relative="1" as="geometry">
            <Array as="points">
              <mxPoint x="1206" y="285" />
              <mxPoint x="1206" y="134" />
            </Array>
          </mxGeometry>
        </mxCell>
        <mxCell id="bQfWvRvFdCdmx63TbRXj-271" value="inventorytransferjournalline" style="shape=table;startSize=30;container=1;collapsible=1;childLayout=tableLayout;fixedRows=1;rowLines=0;fontStyle=1;align=center;resizeLast=1;html=1;whiteSpace=wrap;labelBackgroundColor=none;fillColor=#B2C9AB;strokeColor=#788AA3;fontColor=#46495D;rounded=1;fontSize=16;" parent="bQfWvRvFdCdmx63TbRXj-365" vertex="1">
          <mxGeometry x="392" y="290" width="304" height="420" as="geometry" />
        </mxCell>
        <mxCell id="bQfWvRvFdCdmx63TbRXj-272" value="" style="shape=tableRow;horizontal=0;startSize=0;swimlaneHead=0;swimlaneBody=0;fillColor=none;collapsible=0;dropTarget=0;points=[[0,0.5],[1,0.5]];portConstraint=eastwest;top=0;left=0;right=0;bottom=1;html=1;labelBackgroundColor=none;strokeColor=#788AA3;fontColor=#46495D;rounded=1;fontSize=16;" parent="bQfWvRvFdCdmx63TbRXj-271" vertex="1">
          <mxGeometry y="30" width="304" height="30" as="geometry" />
        </mxCell>
        <mxCell id="bQfWvRvFdCdmx63TbRXj-273" value="PK" style="shape=partialRectangle;connectable=0;fillColor=none;top=0;left=0;bottom=0;right=0;fontStyle=1;overflow=hidden;html=1;whiteSpace=wrap;labelBackgroundColor=none;strokeColor=#788AA3;fontColor=#46495D;rounded=1;fontSize=16;" parent="bQfWvRvFdCdmx63TbRXj-272" vertex="1">
          <mxGeometry width="60" height="30" as="geometry">
            <mxRectangle width="60" height="30" as="alternateBounds" />
          </mxGeometry>
        </mxCell>
        <mxCell id="bQfWvRvFdCdmx63TbRXj-274" value="id" style="shape=partialRectangle;connectable=0;fillColor=none;top=0;left=0;bottom=0;right=0;align=left;spacingLeft=6;fontStyle=5;overflow=hidden;html=1;whiteSpace=wrap;labelBackgroundColor=none;strokeColor=#788AA3;fontColor=#46495D;rounded=1;fontSize=16;" parent="bQfWvRvFdCdmx63TbRXj-272" vertex="1">
          <mxGeometry x="60" width="244" height="30" as="geometry">
            <mxRectangle width="244" height="30" as="alternateBounds" />
          </mxGeometry>
        </mxCell>
        <mxCell id="bQfWvRvFdCdmx63TbRXj-275" value="" style="shape=tableRow;horizontal=0;startSize=0;swimlaneHead=0;swimlaneBody=0;fillColor=none;collapsible=0;dropTarget=0;points=[[0,0.5],[1,0.5]];portConstraint=eastwest;top=0;left=0;right=0;bottom=0;html=1;labelBackgroundColor=none;strokeColor=#788AA3;fontColor=#46495D;rounded=1;fontSize=16;" parent="bQfWvRvFdCdmx63TbRXj-271" vertex="1">
          <mxGeometry y="60" width="304" height="30" as="geometry" />
        </mxCell>
        <mxCell id="bQfWvRvFdCdmx63TbRXj-276" value="FK" style="shape=partialRectangle;connectable=0;fillColor=none;top=0;left=0;bottom=0;right=0;editable=1;overflow=hidden;html=1;whiteSpace=wrap;labelBackgroundColor=none;strokeColor=#788AA3;fontColor=#46495D;rounded=1;fontSize=16;" parent="bQfWvRvFdCdmx63TbRXj-275" vertex="1">
          <mxGeometry width="60" height="30" as="geometry">
            <mxRectangle width="60" height="30" as="alternateBounds" />
          </mxGeometry>
        </mxCell>
        <mxCell id="bQfWvRvFdCdmx63TbRXj-277" value="inventorytransferlineid" style="shape=partialRectangle;connectable=0;fillColor=none;top=0;left=0;bottom=0;right=0;align=left;spacingLeft=6;overflow=hidden;html=1;whiteSpace=wrap;labelBackgroundColor=none;strokeColor=#788AA3;fontColor=#46495D;rounded=1;fontSize=16;" parent="bQfWvRvFdCdmx63TbRXj-275" vertex="1">
          <mxGeometry x="60" width="244" height="30" as="geometry">
            <mxRectangle width="244" height="30" as="alternateBounds" />
          </mxGeometry>
        </mxCell>
        <mxCell id="bQfWvRvFdCdmx63TbRXj-278" style="shape=tableRow;horizontal=0;startSize=0;swimlaneHead=0;swimlaneBody=0;fillColor=none;collapsible=0;dropTarget=0;points=[[0,0.5],[1,0.5]];portConstraint=eastwest;top=0;left=0;right=0;bottom=0;html=1;labelBackgroundColor=none;strokeColor=#788AA3;fontColor=#46495D;rounded=1;fontSize=16;" parent="bQfWvRvFdCdmx63TbRXj-271" vertex="1">
          <mxGeometry y="90" width="304" height="30" as="geometry" />
        </mxCell>
        <mxCell id="bQfWvRvFdCdmx63TbRXj-279" value="FK" style="shape=partialRectangle;connectable=0;fillColor=none;top=0;left=0;bottom=0;right=0;editable=1;overflow=hidden;html=1;whiteSpace=wrap;labelBackgroundColor=none;strokeColor=#788AA3;fontColor=#46495D;rounded=1;fontSize=16;" parent="bQfWvRvFdCdmx63TbRXj-278" vertex="1">
          <mxGeometry width="60" height="30" as="geometry">
            <mxRectangle width="60" height="30" as="alternateBounds" />
          </mxGeometry>
        </mxCell>
        <mxCell id="bQfWvRvFdCdmx63TbRXj-280" value="inventdimid" style="shape=partialRectangle;connectable=0;fillColor=none;top=0;left=0;bottom=0;right=0;align=left;spacingLeft=6;overflow=hidden;html=1;whiteSpace=wrap;labelBackgroundColor=none;strokeColor=#788AA3;fontColor=#46495D;rounded=1;fontSize=16;" parent="bQfWvRvFdCdmx63TbRXj-278" vertex="1">
          <mxGeometry x="60" width="244" height="30" as="geometry">
            <mxRectangle width="244" height="30" as="alternateBounds" />
          </mxGeometry>
        </mxCell>
        <mxCell id="bQfWvRvFdCdmx63TbRXj-354" style="shape=tableRow;horizontal=0;startSize=0;swimlaneHead=0;swimlaneBody=0;fillColor=none;collapsible=0;dropTarget=0;points=[[0,0.5],[1,0.5]];portConstraint=eastwest;top=0;left=0;right=0;bottom=0;html=1;labelBackgroundColor=none;strokeColor=#788AA3;fontColor=#46495D;rounded=1;fontSize=16;" parent="bQfWvRvFdCdmx63TbRXj-271" vertex="1">
          <mxGeometry y="120" width="304" height="30" as="geometry" />
        </mxCell>
        <mxCell id="bQfWvRvFdCdmx63TbRXj-355" value="FK" style="shape=partialRectangle;connectable=0;fillColor=none;top=0;left=0;bottom=0;right=0;editable=1;overflow=hidden;html=1;whiteSpace=wrap;labelBackgroundColor=none;strokeColor=#788AA3;fontColor=#46495D;rounded=1;fontSize=16;" parent="bQfWvRvFdCdmx63TbRXj-354" vertex="1">
          <mxGeometry width="60" height="30" as="geometry">
            <mxRectangle width="60" height="30" as="alternateBounds" />
          </mxGeometry>
        </mxCell>
        <mxCell id="bQfWvRvFdCdmx63TbRXj-356" value="refinventorytransferjournal" style="shape=partialRectangle;connectable=0;fillColor=none;top=0;left=0;bottom=0;right=0;align=left;spacingLeft=6;overflow=hidden;html=1;whiteSpace=wrap;labelBackgroundColor=none;strokeColor=#788AA3;fontColor=#46495D;rounded=1;fontSize=16;" parent="bQfWvRvFdCdmx63TbRXj-354" vertex="1">
          <mxGeometry x="60" width="244" height="30" as="geometry">
            <mxRectangle width="244" height="30" as="alternateBounds" />
          </mxGeometry>
        </mxCell>
        <mxCell id="bQfWvRvFdCdmx63TbRXj-281" style="shape=tableRow;horizontal=0;startSize=0;swimlaneHead=0;swimlaneBody=0;fillColor=none;collapsible=0;dropTarget=0;points=[[0,0.5],[1,0.5]];portConstraint=eastwest;top=0;left=0;right=0;bottom=0;html=1;labelBackgroundColor=none;strokeColor=#788AA3;fontColor=#46495D;rounded=1;fontSize=16;" parent="bQfWvRvFdCdmx63TbRXj-271" vertex="1">
          <mxGeometry y="150" width="304" height="30" as="geometry" />
        </mxCell>
        <mxCell id="bQfWvRvFdCdmx63TbRXj-282" value="FK" style="shape=partialRectangle;connectable=0;fillColor=none;top=0;left=0;bottom=0;right=0;editable=1;overflow=hidden;html=1;whiteSpace=wrap;labelBackgroundColor=none;strokeColor=#788AA3;fontColor=#46495D;rounded=1;fontSize=16;" parent="bQfWvRvFdCdmx63TbRXj-281" vertex="1">
          <mxGeometry width="60" height="30" as="geometry">
            <mxRectangle width="60" height="30" as="alternateBounds" />
          </mxGeometry>
        </mxCell>
        <mxCell id="bQfWvRvFdCdmx63TbRXj-283" value="refitem" style="shape=partialRectangle;connectable=0;fillColor=none;top=0;left=0;bottom=0;right=0;align=left;spacingLeft=6;overflow=hidden;html=1;whiteSpace=wrap;labelBackgroundColor=none;strokeColor=#788AA3;fontColor=#46495D;rounded=1;fontSize=16;" parent="bQfWvRvFdCdmx63TbRXj-281" vertex="1">
          <mxGeometry x="60" width="244" height="30" as="geometry">
            <mxRectangle width="244" height="30" as="alternateBounds" />
          </mxGeometry>
        </mxCell>
        <mxCell id="bQfWvRvFdCdmx63TbRXj-284" style="shape=tableRow;horizontal=0;startSize=0;swimlaneHead=0;swimlaneBody=0;fillColor=none;collapsible=0;dropTarget=0;points=[[0,0.5],[1,0.5]];portConstraint=eastwest;top=0;left=0;right=0;bottom=0;html=1;labelBackgroundColor=none;strokeColor=#788AA3;fontColor=#46495D;rounded=1;fontSize=16;" parent="bQfWvRvFdCdmx63TbRXj-271" vertex="1">
          <mxGeometry y="180" width="304" height="30" as="geometry" />
        </mxCell>
        <mxCell id="bQfWvRvFdCdmx63TbRXj-285" value="" style="shape=partialRectangle;connectable=0;fillColor=none;top=0;left=0;bottom=0;right=0;editable=1;overflow=hidden;html=1;whiteSpace=wrap;labelBackgroundColor=none;strokeColor=#788AA3;fontColor=#46495D;rounded=1;fontSize=16;" parent="bQfWvRvFdCdmx63TbRXj-284" vertex="1">
          <mxGeometry width="60" height="30" as="geometry">
            <mxRectangle width="60" height="30" as="alternateBounds" />
          </mxGeometry>
        </mxCell>
        <mxCell id="bQfWvRvFdCdmx63TbRXj-286" value="qty" style="shape=partialRectangle;connectable=0;fillColor=none;top=0;left=0;bottom=0;right=0;align=left;spacingLeft=6;overflow=hidden;html=1;whiteSpace=wrap;labelBackgroundColor=none;strokeColor=#788AA3;fontColor=#46495D;rounded=1;fontSize=16;" parent="bQfWvRvFdCdmx63TbRXj-284" vertex="1">
          <mxGeometry x="60" width="244" height="30" as="geometry">
            <mxRectangle width="244" height="30" as="alternateBounds" />
          </mxGeometry>
        </mxCell>
        <mxCell id="bQfWvRvFdCdmx63TbRXj-290" style="shape=tableRow;horizontal=0;startSize=0;swimlaneHead=0;swimlaneBody=0;fillColor=none;collapsible=0;dropTarget=0;points=[[0,0.5],[1,0.5]];portConstraint=eastwest;top=0;left=0;right=0;bottom=0;html=1;labelBackgroundColor=none;strokeColor=#788AA3;fontColor=#46495D;rounded=1;fontSize=16;" parent="bQfWvRvFdCdmx63TbRXj-271" vertex="1">
          <mxGeometry y="210" width="304" height="30" as="geometry" />
        </mxCell>
        <mxCell id="bQfWvRvFdCdmx63TbRXj-291" value="FK" style="shape=partialRectangle;connectable=0;fillColor=none;top=0;left=0;bottom=0;right=0;editable=1;overflow=hidden;html=1;whiteSpace=wrap;labelBackgroundColor=none;strokeColor=#788AA3;fontColor=#46495D;rounded=1;fontSize=16;" parent="bQfWvRvFdCdmx63TbRXj-290" vertex="1">
          <mxGeometry width="60" height="30" as="geometry">
            <mxRectangle width="60" height="30" as="alternateBounds" />
          </mxGeometry>
        </mxCell>
        <mxCell id="bQfWvRvFdCdmx63TbRXj-292" value="refunitinvent" style="shape=partialRectangle;connectable=0;fillColor=none;top=0;left=0;bottom=0;right=0;align=left;spacingLeft=6;overflow=hidden;html=1;whiteSpace=wrap;labelBackgroundColor=none;strokeColor=#788AA3;fontColor=#46495D;rounded=1;fontSize=16;" parent="bQfWvRvFdCdmx63TbRXj-290" vertex="1">
          <mxGeometry x="60" width="244" height="30" as="geometry">
            <mxRectangle width="244" height="30" as="alternateBounds" />
          </mxGeometry>
        </mxCell>
        <mxCell id="bQfWvRvFdCdmx63TbRXj-293" style="shape=tableRow;horizontal=0;startSize=0;swimlaneHead=0;swimlaneBody=0;fillColor=none;collapsible=0;dropTarget=0;points=[[0,0.5],[1,0.5]];portConstraint=eastwest;top=0;left=0;right=0;bottom=0;html=1;labelBackgroundColor=none;strokeColor=#788AA3;fontColor=#46495D;rounded=1;fontSize=16;" parent="bQfWvRvFdCdmx63TbRXj-271" vertex="1">
          <mxGeometry y="240" width="304" height="30" as="geometry" />
        </mxCell>
        <mxCell id="bQfWvRvFdCdmx63TbRXj-294" value="FK" style="shape=partialRectangle;connectable=0;fillColor=none;top=0;left=0;bottom=0;right=0;editable=1;overflow=hidden;html=1;whiteSpace=wrap;labelBackgroundColor=none;strokeColor=#788AA3;fontColor=#46495D;rounded=1;fontSize=16;" parent="bQfWvRvFdCdmx63TbRXj-293" vertex="1">
          <mxGeometry width="60" height="30" as="geometry">
            <mxRectangle width="60" height="30" as="alternateBounds" />
          </mxGeometry>
        </mxCell>
        <mxCell id="bQfWvRvFdCdmx63TbRXj-295" value="refunittrans" style="shape=partialRectangle;connectable=0;fillColor=none;top=0;left=0;bottom=0;right=0;align=left;spacingLeft=6;overflow=hidden;html=1;whiteSpace=wrap;labelBackgroundColor=none;strokeColor=#788AA3;fontColor=#46495D;rounded=1;fontSize=16;" parent="bQfWvRvFdCdmx63TbRXj-293" vertex="1">
          <mxGeometry x="60" width="244" height="30" as="geometry">
            <mxRectangle width="244" height="30" as="alternateBounds" />
          </mxGeometry>
        </mxCell>
        <mxCell id="bQfWvRvFdCdmx63TbRXj-296" style="shape=tableRow;horizontal=0;startSize=0;swimlaneHead=0;swimlaneBody=0;fillColor=none;collapsible=0;dropTarget=0;points=[[0,0.5],[1,0.5]];portConstraint=eastwest;top=0;left=0;right=0;bottom=0;html=1;labelBackgroundColor=none;strokeColor=#788AA3;fontColor=#46495D;rounded=1;fontSize=16;" parent="bQfWvRvFdCdmx63TbRXj-271" vertex="1">
          <mxGeometry y="270" width="304" height="30" as="geometry" />
        </mxCell>
        <mxCell id="bQfWvRvFdCdmx63TbRXj-297" style="shape=partialRectangle;connectable=0;fillColor=none;top=0;left=0;bottom=0;right=0;editable=1;overflow=hidden;html=1;whiteSpace=wrap;labelBackgroundColor=none;strokeColor=#788AA3;fontColor=#46495D;rounded=1;fontSize=16;" parent="bQfWvRvFdCdmx63TbRXj-296" vertex="1">
          <mxGeometry width="60" height="30" as="geometry">
            <mxRectangle width="60" height="30" as="alternateBounds" />
          </mxGeometry>
        </mxCell>
        <mxCell id="bQfWvRvFdCdmx63TbRXj-298" value="coefficient" style="shape=partialRectangle;connectable=0;fillColor=none;top=0;left=0;bottom=0;right=0;align=left;spacingLeft=6;overflow=hidden;html=1;whiteSpace=wrap;labelBackgroundColor=none;strokeColor=#788AA3;fontColor=#46495D;rounded=1;fontSize=16;" parent="bQfWvRvFdCdmx63TbRXj-296" vertex="1">
          <mxGeometry x="60" width="244" height="30" as="geometry">
            <mxRectangle width="244" height="30" as="alternateBounds" />
          </mxGeometry>
        </mxCell>
        <mxCell id="bQfWvRvFdCdmx63TbRXj-299" style="shape=tableRow;horizontal=0;startSize=0;swimlaneHead=0;swimlaneBody=0;fillColor=none;collapsible=0;dropTarget=0;points=[[0,0.5],[1,0.5]];portConstraint=eastwest;top=0;left=0;right=0;bottom=0;html=1;labelBackgroundColor=none;strokeColor=#788AA3;fontColor=#46495D;rounded=1;fontSize=16;" parent="bQfWvRvFdCdmx63TbRXj-271" vertex="1">
          <mxGeometry y="300" width="304" height="30" as="geometry" />
        </mxCell>
        <mxCell id="bQfWvRvFdCdmx63TbRXj-300" style="shape=partialRectangle;connectable=0;fillColor=none;top=0;left=0;bottom=0;right=0;editable=1;overflow=hidden;html=1;whiteSpace=wrap;labelBackgroundColor=none;strokeColor=#788AA3;fontColor=#46495D;rounded=1;fontSize=16;" parent="bQfWvRvFdCdmx63TbRXj-299" vertex="1">
          <mxGeometry width="60" height="30" as="geometry">
            <mxRectangle width="60" height="30" as="alternateBounds" />
          </mxGeometry>
        </mxCell>
        <mxCell id="bQfWvRvFdCdmx63TbRXj-301" value="unitprice" style="shape=partialRectangle;connectable=0;fillColor=none;top=0;left=0;bottom=0;right=0;align=left;spacingLeft=6;overflow=hidden;html=1;whiteSpace=wrap;labelBackgroundColor=none;strokeColor=#788AA3;fontColor=#46495D;rounded=1;fontSize=16;" parent="bQfWvRvFdCdmx63TbRXj-299" vertex="1">
          <mxGeometry x="60" width="244" height="30" as="geometry">
            <mxRectangle width="244" height="30" as="alternateBounds" />
          </mxGeometry>
        </mxCell>
        <mxCell id="bQfWvRvFdCdmx63TbRXj-302" style="shape=tableRow;horizontal=0;startSize=0;swimlaneHead=0;swimlaneBody=0;fillColor=none;collapsible=0;dropTarget=0;points=[[0,0.5],[1,0.5]];portConstraint=eastwest;top=0;left=0;right=0;bottom=0;html=1;labelBackgroundColor=none;strokeColor=#788AA3;fontColor=#46495D;rounded=1;fontSize=16;" parent="bQfWvRvFdCdmx63TbRXj-271" vertex="1">
          <mxGeometry y="330" width="304" height="30" as="geometry" />
        </mxCell>
        <mxCell id="bQfWvRvFdCdmx63TbRXj-303" value="FK" style="shape=partialRectangle;connectable=0;fillColor=none;top=0;left=0;bottom=0;right=0;editable=1;overflow=hidden;html=1;whiteSpace=wrap;labelBackgroundColor=none;strokeColor=#788AA3;fontColor=#46495D;rounded=1;fontSize=16;" parent="bQfWvRvFdCdmx63TbRXj-302" vertex="1">
          <mxGeometry width="60" height="30" as="geometry">
            <mxRectangle width="60" height="30" as="alternateBounds" />
          </mxGeometry>
        </mxCell>
        <mxCell id="bQfWvRvFdCdmx63TbRXj-304" value="refinventorytransactionorigine" style="shape=partialRectangle;connectable=0;fillColor=none;top=0;left=0;bottom=0;right=0;align=left;spacingLeft=6;overflow=hidden;html=1;whiteSpace=wrap;labelBackgroundColor=none;strokeColor=#788AA3;fontColor=#46495D;rounded=1;fontSize=16;" parent="bQfWvRvFdCdmx63TbRXj-302" vertex="1">
          <mxGeometry x="60" width="244" height="30" as="geometry">
            <mxRectangle width="244" height="30" as="alternateBounds" />
          </mxGeometry>
        </mxCell>
        <mxCell id="bQfWvRvFdCdmx63TbRXj-305" style="shape=tableRow;horizontal=0;startSize=0;swimlaneHead=0;swimlaneBody=0;fillColor=none;collapsible=0;dropTarget=0;points=[[0,0.5],[1,0.5]];portConstraint=eastwest;top=0;left=0;right=0;bottom=0;html=1;labelBackgroundColor=none;strokeColor=#788AA3;fontColor=#46495D;rounded=1;fontSize=16;" parent="bQfWvRvFdCdmx63TbRXj-271" vertex="1">
          <mxGeometry y="360" width="304" height="30" as="geometry" />
        </mxCell>
        <mxCell id="bQfWvRvFdCdmx63TbRXj-306" value="FK" style="shape=partialRectangle;connectable=0;fillColor=none;top=0;left=0;bottom=0;right=0;editable=1;overflow=hidden;html=1;whiteSpace=wrap;labelBackgroundColor=none;strokeColor=#788AA3;fontColor=#46495D;rounded=1;fontSize=16;" parent="bQfWvRvFdCdmx63TbRXj-305" vertex="1">
          <mxGeometry width="60" height="30" as="geometry">
            <mxRectangle width="60" height="30" as="alternateBounds" />
          </mxGeometry>
        </mxCell>
        <mxCell id="bQfWvRvFdCdmx63TbRXj-307" value="refinventorytransferjournalstatus" style="shape=partialRectangle;connectable=0;fillColor=none;top=0;left=0;bottom=0;right=0;align=left;spacingLeft=6;overflow=hidden;html=1;whiteSpace=wrap;labelBackgroundColor=none;strokeColor=#788AA3;fontColor=#46495D;rounded=1;fontSize=16;" parent="bQfWvRvFdCdmx63TbRXj-305" vertex="1">
          <mxGeometry x="60" width="244" height="30" as="geometry">
            <mxRectangle width="244" height="30" as="alternateBounds" />
          </mxGeometry>
        </mxCell>
        <mxCell id="lSKp2wY-4dt-KcIXfeIq-78" style="shape=tableRow;horizontal=0;startSize=0;swimlaneHead=0;swimlaneBody=0;fillColor=none;collapsible=0;dropTarget=0;points=[[0,0.5],[1,0.5]];portConstraint=eastwest;top=0;left=0;right=0;bottom=0;html=1;labelBackgroundColor=none;strokeColor=#788AA3;fontColor=#46495D;rounded=1;fontSize=16;" parent="bQfWvRvFdCdmx63TbRXj-271" vertex="1">
          <mxGeometry y="390" width="304" height="30" as="geometry" />
        </mxCell>
        <mxCell id="lSKp2wY-4dt-KcIXfeIq-79" value="FK" style="shape=partialRectangle;connectable=0;fillColor=none;top=0;left=0;bottom=0;right=0;editable=1;overflow=hidden;html=1;whiteSpace=wrap;labelBackgroundColor=none;strokeColor=#788AA3;fontColor=#46495D;rounded=1;fontSize=16;" parent="lSKp2wY-4dt-KcIXfeIq-78" vertex="1">
          <mxGeometry width="60" height="30" as="geometry">
            <mxRectangle width="60" height="30" as="alternateBounds" />
          </mxGeometry>
        </mxCell>
        <mxCell id="lSKp2wY-4dt-KcIXfeIq-80" value="&lt;span style=&quot;color: rgb(0, 0, 0); font-family: Helvetica; font-size: 16px; font-style: normal; font-variant-ligatures: normal; font-variant-caps: normal; letter-spacing: normal; orphans: 2; text-align: center; text-indent: 0px; text-transform: none; widows: 2; word-spacing: 0px; -webkit-text-stroke-width: 0px; background-color: rgb(251, 251, 251); float: none; display: inline !important;&quot;&gt;receivingjournallineid&lt;/span&gt;" style="shape=partialRectangle;connectable=0;fillColor=none;top=0;left=0;bottom=0;right=0;align=left;spacingLeft=6;overflow=hidden;html=1;whiteSpace=wrap;labelBackgroundColor=none;strokeColor=#788AA3;fontColor=#46495D;rounded=1;fontSize=16;" parent="lSKp2wY-4dt-KcIXfeIq-78" vertex="1">
          <mxGeometry x="60" width="244" height="30" as="geometry">
            <mxRectangle width="244" height="30" as="alternateBounds" />
          </mxGeometry>
        </mxCell>
        <mxCell id="bQfWvRvFdCdmx63TbRXj-308" style="edgeStyle=orthogonalEdgeStyle;rounded=1;orthogonalLoop=1;jettySize=auto;html=1;entryX=0;entryY=0.5;entryDx=0;entryDy=0;labelBackgroundColor=none;fontColor=default;strokeColor=#788AA3;fontSize=16;" parent="bQfWvRvFdCdmx63TbRXj-365" source="bQfWvRvFdCdmx63TbRXj-212" target="bQfWvRvFdCdmx63TbRXj-275" edge="1">
          <mxGeometry relative="1" as="geometry">
            <mxPoint x="41.5" y="467" as="targetPoint" />
            <Array as="points">
              <mxPoint x="347" y="99" />
              <mxPoint x="347" y="378" />
            </Array>
          </mxGeometry>
        </mxCell>
        <mxCell id="bQfWvRvFdCdmx63TbRXj-380" style="edgeStyle=orthogonalEdgeStyle;rounded=1;orthogonalLoop=1;jettySize=auto;html=1;labelBackgroundColor=none;fontColor=default;strokeColor=#788AA3;fontSize=16;" parent="bQfWvRvFdCdmx63TbRXj-365" source="bQfWvRvFdCdmx63TbRXj-309" target="bQfWvRvFdCdmx63TbRXj-316" edge="1">
          <mxGeometry relative="1" as="geometry" />
        </mxCell>
        <mxCell id="bQfWvRvFdCdmx63TbRXj-309" value="&lt;span style=&quot;text-align: left; font-size: 16px;&quot;&gt;inventorytransferjournal&lt;/span&gt;&lt;span style=&quot;text-align: left; font-size: 16px;&quot;&gt;status&lt;/span&gt;" style="shape=table;startSize=30;container=1;collapsible=1;childLayout=tableLayout;fixedRows=1;rowLines=0;fontStyle=1;align=center;resizeLast=1;html=1;whiteSpace=wrap;labelBackgroundColor=none;fillColor=#B2C9AB;strokeColor=#788AA3;fontColor=#46495D;rounded=1;fontSize=16;" parent="bQfWvRvFdCdmx63TbRXj-365" vertex="1">
          <mxGeometry x="785" y="557" width="331" height="90" as="geometry" />
        </mxCell>
        <mxCell id="bQfWvRvFdCdmx63TbRXj-310" value="" style="shape=tableRow;horizontal=0;startSize=0;swimlaneHead=0;swimlaneBody=0;fillColor=none;collapsible=0;dropTarget=0;points=[[0,0.5],[1,0.5]];portConstraint=eastwest;top=0;left=0;right=0;bottom=1;html=1;labelBackgroundColor=none;strokeColor=#788AA3;fontColor=#46495D;rounded=1;fontSize=16;" parent="bQfWvRvFdCdmx63TbRXj-309" vertex="1">
          <mxGeometry y="30" width="331" height="30" as="geometry" />
        </mxCell>
        <mxCell id="bQfWvRvFdCdmx63TbRXj-311" value="PK" style="shape=partialRectangle;connectable=0;fillColor=none;top=0;left=0;bottom=0;right=0;fontStyle=1;overflow=hidden;html=1;whiteSpace=wrap;labelBackgroundColor=none;strokeColor=#788AA3;fontColor=#46495D;rounded=1;fontSize=16;" parent="bQfWvRvFdCdmx63TbRXj-310" vertex="1">
          <mxGeometry width="60" height="30" as="geometry">
            <mxRectangle width="60" height="30" as="alternateBounds" />
          </mxGeometry>
        </mxCell>
        <mxCell id="bQfWvRvFdCdmx63TbRXj-312" value="refinventorytransferjournalstatus" style="shape=partialRectangle;connectable=0;fillColor=none;top=0;left=0;bottom=0;right=0;align=left;spacingLeft=6;fontStyle=5;overflow=hidden;html=1;whiteSpace=wrap;labelBackgroundColor=none;strokeColor=#788AA3;fontColor=#46495D;rounded=1;fontSize=16;" parent="bQfWvRvFdCdmx63TbRXj-310" vertex="1">
          <mxGeometry x="60" width="271" height="30" as="geometry">
            <mxRectangle width="271" height="30" as="alternateBounds" />
          </mxGeometry>
        </mxCell>
        <mxCell id="bQfWvRvFdCdmx63TbRXj-313" value="" style="shape=tableRow;horizontal=0;startSize=0;swimlaneHead=0;swimlaneBody=0;fillColor=none;collapsible=0;dropTarget=0;points=[[0,0.5],[1,0.5]];portConstraint=eastwest;top=0;left=0;right=0;bottom=0;html=1;labelBackgroundColor=none;strokeColor=#788AA3;fontColor=#46495D;rounded=1;fontSize=16;" parent="bQfWvRvFdCdmx63TbRXj-309" vertex="1">
          <mxGeometry y="60" width="331" height="30" as="geometry" />
        </mxCell>
        <mxCell id="bQfWvRvFdCdmx63TbRXj-314" value="" style="shape=partialRectangle;connectable=0;fillColor=none;top=0;left=0;bottom=0;right=0;editable=1;overflow=hidden;html=1;whiteSpace=wrap;labelBackgroundColor=none;strokeColor=#788AA3;fontColor=#46495D;rounded=1;fontSize=16;" parent="bQfWvRvFdCdmx63TbRXj-313" vertex="1">
          <mxGeometry width="60" height="30" as="geometry">
            <mxRectangle width="60" height="30" as="alternateBounds" />
          </mxGeometry>
        </mxCell>
        <mxCell id="bQfWvRvFdCdmx63TbRXj-315" value="inventorytransferjournalstatus" style="shape=partialRectangle;connectable=0;fillColor=none;top=0;left=0;bottom=0;right=0;align=left;spacingLeft=6;overflow=hidden;html=1;whiteSpace=wrap;labelBackgroundColor=none;strokeColor=#788AA3;fontColor=#46495D;rounded=1;fontSize=16;" parent="bQfWvRvFdCdmx63TbRXj-313" vertex="1">
          <mxGeometry x="60" width="271" height="30" as="geometry">
            <mxRectangle width="271" height="30" as="alternateBounds" />
          </mxGeometry>
        </mxCell>
        <mxCell id="bQfWvRvFdCdmx63TbRXj-318" style="edgeStyle=orthogonalEdgeStyle;rounded=1;orthogonalLoop=1;jettySize=auto;html=1;entryX=1;entryY=0.5;entryDx=0;entryDy=0;labelBackgroundColor=none;fontColor=default;strokeColor=#788AA3;fontSize=16;" parent="bQfWvRvFdCdmx63TbRXj-365" source="bQfWvRvFdCdmx63TbRXj-310" target="bQfWvRvFdCdmx63TbRXj-305" edge="1">
          <mxGeometry relative="1" as="geometry">
            <Array as="points">
              <mxPoint x="760" y="607" />
              <mxPoint x="760" y="665" />
            </Array>
          </mxGeometry>
        </mxCell>
        <mxCell id="bQfWvRvFdCdmx63TbRXj-319" value="inventorytransferjournal" style="shape=table;startSize=30;container=1;collapsible=1;childLayout=tableLayout;fixedRows=1;rowLines=0;fontStyle=1;align=center;resizeLast=1;html=1;whiteSpace=wrap;labelBackgroundColor=none;fillColor=#B2C9AB;strokeColor=#788AA3;fontColor=#46495D;rounded=1;fontSize=16;" parent="bQfWvRvFdCdmx63TbRXj-365" vertex="1">
          <mxGeometry x="858" y="366" width="310.5" height="150" as="geometry" />
        </mxCell>
        <mxCell id="bQfWvRvFdCdmx63TbRXj-320" value="" style="shape=tableRow;horizontal=0;startSize=0;swimlaneHead=0;swimlaneBody=0;fillColor=none;collapsible=0;dropTarget=0;points=[[0,0.5],[1,0.5]];portConstraint=eastwest;top=0;left=0;right=0;bottom=1;html=1;labelBackgroundColor=none;strokeColor=#788AA3;fontColor=#46495D;rounded=1;fontSize=16;" parent="bQfWvRvFdCdmx63TbRXj-319" vertex="1">
          <mxGeometry y="30" width="310.5" height="30" as="geometry" />
        </mxCell>
        <mxCell id="bQfWvRvFdCdmx63TbRXj-321" value="PK" style="shape=partialRectangle;connectable=0;fillColor=none;top=0;left=0;bottom=0;right=0;fontStyle=1;overflow=hidden;html=1;whiteSpace=wrap;labelBackgroundColor=none;strokeColor=#788AA3;fontColor=#46495D;rounded=1;fontSize=16;" parent="bQfWvRvFdCdmx63TbRXj-320" vertex="1">
          <mxGeometry width="60" height="30" as="geometry">
            <mxRectangle width="60" height="30" as="alternateBounds" />
          </mxGeometry>
        </mxCell>
        <mxCell id="bQfWvRvFdCdmx63TbRXj-322" value="refinventorytransferjournal" style="shape=partialRectangle;connectable=0;fillColor=none;top=0;left=0;bottom=0;right=0;align=left;spacingLeft=6;fontStyle=5;overflow=hidden;html=1;whiteSpace=wrap;labelBackgroundColor=none;strokeColor=#788AA3;fontColor=#46495D;rounded=1;fontSize=16;" parent="bQfWvRvFdCdmx63TbRXj-320" vertex="1">
          <mxGeometry x="60" width="250.5" height="30" as="geometry">
            <mxRectangle width="250.5" height="30" as="alternateBounds" />
          </mxGeometry>
        </mxCell>
        <mxCell id="bQfWvRvFdCdmx63TbRXj-323" value="" style="shape=tableRow;horizontal=0;startSize=0;swimlaneHead=0;swimlaneBody=0;fillColor=none;collapsible=0;dropTarget=0;points=[[0,0.5],[1,0.5]];portConstraint=eastwest;top=0;left=0;right=0;bottom=0;html=1;labelBackgroundColor=none;strokeColor=#788AA3;fontColor=#46495D;rounded=1;fontSize=16;" parent="bQfWvRvFdCdmx63TbRXj-319" vertex="1">
          <mxGeometry y="60" width="310.5" height="30" as="geometry" />
        </mxCell>
        <mxCell id="bQfWvRvFdCdmx63TbRXj-324" value="FK" style="shape=partialRectangle;connectable=0;fillColor=none;top=0;left=0;bottom=0;right=0;editable=1;overflow=hidden;html=1;whiteSpace=wrap;labelBackgroundColor=none;strokeColor=#788AA3;fontColor=#46495D;rounded=1;fontSize=16;" parent="bQfWvRvFdCdmx63TbRXj-323" vertex="1">
          <mxGeometry width="60" height="30" as="geometry">
            <mxRectangle width="60" height="30" as="alternateBounds" />
          </mxGeometry>
        </mxCell>
        <mxCell id="bQfWvRvFdCdmx63TbRXj-325" value="refinventorytransfer" style="shape=partialRectangle;connectable=0;fillColor=none;top=0;left=0;bottom=0;right=0;align=left;spacingLeft=6;overflow=hidden;html=1;whiteSpace=wrap;labelBackgroundColor=none;strokeColor=#788AA3;fontColor=#46495D;rounded=1;fontSize=16;" parent="bQfWvRvFdCdmx63TbRXj-323" vertex="1">
          <mxGeometry x="60" width="250.5" height="30" as="geometry">
            <mxRectangle width="250.5" height="30" as="alternateBounds" />
          </mxGeometry>
        </mxCell>
        <mxCell id="bQfWvRvFdCdmx63TbRXj-350" style="shape=tableRow;horizontal=0;startSize=0;swimlaneHead=0;swimlaneBody=0;fillColor=none;collapsible=0;dropTarget=0;points=[[0,0.5],[1,0.5]];portConstraint=eastwest;top=0;left=0;right=0;bottom=0;html=1;labelBackgroundColor=none;strokeColor=#788AA3;fontColor=#46495D;rounded=1;fontSize=16;" parent="bQfWvRvFdCdmx63TbRXj-319" vertex="1">
          <mxGeometry y="90" width="310.5" height="30" as="geometry" />
        </mxCell>
        <mxCell id="bQfWvRvFdCdmx63TbRXj-351" value="FK" style="shape=partialRectangle;connectable=0;fillColor=none;top=0;left=0;bottom=0;right=0;editable=1;overflow=hidden;html=1;whiteSpace=wrap;labelBackgroundColor=none;strokeColor=#788AA3;fontColor=#46495D;rounded=1;fontSize=16;" parent="bQfWvRvFdCdmx63TbRXj-350" vertex="1">
          <mxGeometry width="60" height="30" as="geometry">
            <mxRectangle width="60" height="30" as="alternateBounds" />
          </mxGeometry>
        </mxCell>
        <mxCell id="bQfWvRvFdCdmx63TbRXj-352" value="refinventorytransferjournalstatus" style="shape=partialRectangle;connectable=0;fillColor=none;top=0;left=0;bottom=0;right=0;align=left;spacingLeft=6;overflow=hidden;html=1;whiteSpace=wrap;labelBackgroundColor=none;strokeColor=#788AA3;fontColor=#46495D;rounded=1;fontSize=16;" parent="bQfWvRvFdCdmx63TbRXj-350" vertex="1">
          <mxGeometry x="60" width="250.5" height="30" as="geometry">
            <mxRectangle width="250.5" height="30" as="alternateBounds" />
          </mxGeometry>
        </mxCell>
        <mxCell id="lSKp2wY-4dt-KcIXfeIq-74" style="shape=tableRow;horizontal=0;startSize=0;swimlaneHead=0;swimlaneBody=0;fillColor=none;collapsible=0;dropTarget=0;points=[[0,0.5],[1,0.5]];portConstraint=eastwest;top=0;left=0;right=0;bottom=0;html=1;labelBackgroundColor=none;strokeColor=#788AA3;fontColor=#46495D;rounded=1;fontSize=16;" parent="bQfWvRvFdCdmx63TbRXj-319" vertex="1">
          <mxGeometry y="120" width="310.5" height="30" as="geometry" />
        </mxCell>
        <mxCell id="lSKp2wY-4dt-KcIXfeIq-75" value="FK" style="shape=partialRectangle;connectable=0;fillColor=none;top=0;left=0;bottom=0;right=0;editable=1;overflow=hidden;html=1;whiteSpace=wrap;labelBackgroundColor=none;strokeColor=#788AA3;fontColor=#46495D;rounded=1;fontSize=16;" parent="lSKp2wY-4dt-KcIXfeIq-74" vertex="1">
          <mxGeometry width="60" height="30" as="geometry">
            <mxRectangle width="60" height="30" as="alternateBounds" />
          </mxGeometry>
        </mxCell>
        <mxCell id="lSKp2wY-4dt-KcIXfeIq-76" value="refreceivingjournal" style="shape=partialRectangle;connectable=0;fillColor=none;top=0;left=0;bottom=0;right=0;align=left;spacingLeft=6;overflow=hidden;html=1;whiteSpace=wrap;labelBackgroundColor=none;strokeColor=#788AA3;fontColor=#46495D;rounded=1;fontSize=16;" parent="lSKp2wY-4dt-KcIXfeIq-74" vertex="1">
          <mxGeometry x="60" width="250.5" height="30" as="geometry">
            <mxRectangle width="250.5" height="30" as="alternateBounds" />
          </mxGeometry>
        </mxCell>
        <mxCell id="bQfWvRvFdCdmx63TbRXj-353" style="edgeStyle=orthogonalEdgeStyle;rounded=1;orthogonalLoop=1;jettySize=auto;html=1;exitX=1;exitY=0.5;exitDx=0;exitDy=0;labelBackgroundColor=none;fontColor=default;strokeColor=#788AA3;fontSize=16;" parent="bQfWvRvFdCdmx63TbRXj-365" source="bQfWvRvFdCdmx63TbRXj-182" target="bQfWvRvFdCdmx63TbRXj-323" edge="1">
          <mxGeometry relative="1" as="geometry">
            <mxPoint x="661.5" y="347" as="targetPoint" />
            <Array as="points">
              <mxPoint x="710" y="88" />
              <mxPoint x="710" y="445" />
            </Array>
          </mxGeometry>
        </mxCell>
        <mxCell id="bQfWvRvFdCdmx63TbRXj-357" style="edgeStyle=orthogonalEdgeStyle;rounded=1;orthogonalLoop=1;jettySize=auto;html=1;exitX=0;exitY=0.5;exitDx=0;exitDy=0;entryX=1;entryY=0.5;entryDx=0;entryDy=0;labelBackgroundColor=none;fontColor=default;strokeColor=#788AA3;fontSize=16;" parent="bQfWvRvFdCdmx63TbRXj-365" source="bQfWvRvFdCdmx63TbRXj-320" target="bQfWvRvFdCdmx63TbRXj-354" edge="1">
          <mxGeometry relative="1" as="geometry" />
        </mxCell>
        <mxCell id="bQfWvRvFdCdmx63TbRXj-358" style="edgeStyle=orthogonalEdgeStyle;rounded=1;orthogonalLoop=1;jettySize=auto;html=1;entryX=0.002;entryY=0.567;entryDx=0;entryDy=0;labelBackgroundColor=none;fontColor=default;strokeColor=#788AA3;fontSize=16;entryPerimeter=0;" parent="bQfWvRvFdCdmx63TbRXj-365" source="bQfWvRvFdCdmx63TbRXj-310" target="bQfWvRvFdCdmx63TbRXj-350" edge="1">
          <mxGeometry relative="1" as="geometry">
            <Array as="points">
              <mxPoint x="734" y="603" />
              <mxPoint x="734" y="473" />
            </Array>
          </mxGeometry>
        </mxCell>
        <mxCell id="bQfWvRvFdCdmx63TbRXj-359" style="edgeStyle=orthogonalEdgeStyle;rounded=1;orthogonalLoop=1;jettySize=auto;html=1;exitX=0;exitY=0.5;exitDx=0;exitDy=0;entryX=1;entryY=0.5;entryDx=0;entryDy=0;labelBackgroundColor=none;fontColor=default;strokeColor=#788AA3;fontSize=16;" parent="bQfWvRvFdCdmx63TbRXj-365" source="bQfWvRvFdCdmx63TbRXj-182" target="bQfWvRvFdCdmx63TbRXj-215" edge="1">
          <mxGeometry relative="1" as="geometry" />
        </mxCell>
        <mxCell id="bQfWvRvFdCdmx63TbRXj-378" style="edgeStyle=orthogonalEdgeStyle;rounded=1;orthogonalLoop=1;jettySize=auto;html=1;exitX=0.5;exitY=1;exitDx=0;exitDy=0;entryX=0;entryY=0;entryDx=69.5;entryDy=0;entryPerimeter=0;labelBackgroundColor=none;fontColor=default;strokeColor=#788AA3;fontSize=16;" parent="bQfWvRvFdCdmx63TbRXj-365" source="bQfWvRvFdCdmx63TbRXj-369" target="bQfWvRvFdCdmx63TbRXj-377" edge="1">
          <mxGeometry relative="1" as="geometry" />
        </mxCell>
        <mxCell id="bQfWvRvFdCdmx63TbRXj-369" value="inventorytransfertype" style="shape=table;startSize=30;container=1;collapsible=1;childLayout=tableLayout;fixedRows=1;rowLines=0;fontStyle=1;align=center;resizeLast=1;html=1;whiteSpace=wrap;labelBackgroundColor=none;fillColor=#B2C9AB;strokeColor=#788AA3;fontColor=#46495D;rounded=1;fontSize=16;" parent="bQfWvRvFdCdmx63TbRXj-365" vertex="1">
          <mxGeometry x="13" y="490" width="270" height="90" as="geometry" />
        </mxCell>
        <mxCell id="bQfWvRvFdCdmx63TbRXj-370" value="" style="shape=tableRow;horizontal=0;startSize=0;swimlaneHead=0;swimlaneBody=0;fillColor=none;collapsible=0;dropTarget=0;points=[[0,0.5],[1,0.5]];portConstraint=eastwest;top=0;left=0;right=0;bottom=1;html=1;labelBackgroundColor=none;strokeColor=#788AA3;fontColor=#46495D;rounded=1;fontSize=16;" parent="bQfWvRvFdCdmx63TbRXj-369" vertex="1">
          <mxGeometry y="30" width="270" height="30" as="geometry" />
        </mxCell>
        <mxCell id="bQfWvRvFdCdmx63TbRXj-371" value="PK" style="shape=partialRectangle;connectable=0;fillColor=none;top=0;left=0;bottom=0;right=0;fontStyle=1;overflow=hidden;html=1;whiteSpace=wrap;labelBackgroundColor=none;strokeColor=#788AA3;fontColor=#46495D;rounded=1;fontSize=16;" parent="bQfWvRvFdCdmx63TbRXj-370" vertex="1">
          <mxGeometry width="60" height="30" as="geometry">
            <mxRectangle width="60" height="30" as="alternateBounds" />
          </mxGeometry>
        </mxCell>
        <mxCell id="bQfWvRvFdCdmx63TbRXj-372" value="refinventorytransfertype" style="shape=partialRectangle;connectable=0;fillColor=none;top=0;left=0;bottom=0;right=0;align=left;spacingLeft=6;fontStyle=5;overflow=hidden;html=1;whiteSpace=wrap;labelBackgroundColor=none;strokeColor=#788AA3;fontColor=#46495D;rounded=1;fontSize=16;" parent="bQfWvRvFdCdmx63TbRXj-370" vertex="1">
          <mxGeometry x="60" width="210" height="30" as="geometry">
            <mxRectangle width="210" height="30" as="alternateBounds" />
          </mxGeometry>
        </mxCell>
        <mxCell id="bQfWvRvFdCdmx63TbRXj-373" value="" style="shape=tableRow;horizontal=0;startSize=0;swimlaneHead=0;swimlaneBody=0;fillColor=none;collapsible=0;dropTarget=0;points=[[0,0.5],[1,0.5]];portConstraint=eastwest;top=0;left=0;right=0;bottom=0;html=1;labelBackgroundColor=none;strokeColor=#788AA3;fontColor=#46495D;rounded=1;fontSize=16;" parent="bQfWvRvFdCdmx63TbRXj-369" vertex="1">
          <mxGeometry y="60" width="270" height="30" as="geometry" />
        </mxCell>
        <mxCell id="bQfWvRvFdCdmx63TbRXj-374" value="" style="shape=partialRectangle;connectable=0;fillColor=none;top=0;left=0;bottom=0;right=0;editable=1;overflow=hidden;html=1;whiteSpace=wrap;labelBackgroundColor=none;strokeColor=#788AA3;fontColor=#46495D;rounded=1;fontSize=16;" parent="bQfWvRvFdCdmx63TbRXj-373" vertex="1">
          <mxGeometry width="60" height="30" as="geometry">
            <mxRectangle width="60" height="30" as="alternateBounds" />
          </mxGeometry>
        </mxCell>
        <mxCell id="bQfWvRvFdCdmx63TbRXj-375" value="inventorytransfertype" style="shape=partialRectangle;connectable=0;fillColor=none;top=0;left=0;bottom=0;right=0;align=left;spacingLeft=6;overflow=hidden;html=1;whiteSpace=wrap;labelBackgroundColor=none;strokeColor=#788AA3;fontColor=#46495D;rounded=1;fontSize=16;" parent="bQfWvRvFdCdmx63TbRXj-373" vertex="1">
          <mxGeometry x="60" width="210" height="30" as="geometry">
            <mxRectangle width="210" height="30" as="alternateBounds" />
          </mxGeometry>
        </mxCell>
        <mxCell id="bQfWvRvFdCdmx63TbRXj-377" value="Values :&amp;nbsp;&lt;br style=&quot;font-size: 16px;&quot;&gt;&lt;ul style=&quot;font-size: 16px;&quot;&gt;&lt;li style=&quot;font-size: 16px;&quot;&gt;Order de transfert.&lt;/li&gt;&lt;li style=&quot;font-size: 16px;&quot;&gt;Journal de transfert.&lt;/li&gt;&lt;li style=&quot;font-size: 16px;&quot;&gt;Journal de stock.&lt;/li&gt;&lt;li style=&quot;font-size: 16px;&quot;&gt;Journal de comptage&lt;/li&gt;&lt;/ul&gt;" style="shape=note;size=20;whiteSpace=wrap;html=1;align=left;labelBackgroundColor=none;fillColor=#B2C9AB;strokeColor=#788AA3;fontColor=#46495D;rounded=1;fontSize=16;" parent="bQfWvRvFdCdmx63TbRXj-365" vertex="1">
          <mxGeometry x="20" y="622" width="220" height="126" as="geometry" />
        </mxCell>
        <mxCell id="bQfWvRvFdCdmx63TbRXj-316" value="Values :&amp;nbsp;&lt;br style=&quot;font-size: 16px;&quot;&gt;&lt;ul style=&quot;font-size: 16px;&quot;&gt;&lt;li style=&quot;border-color: var(--border-color); font-size: 16px;&quot;&gt;créer&lt;/li&gt;&lt;li style=&quot;border-color: var(--border-color); font-size: 16px;&quot;&gt;Approuver&lt;/li&gt;&lt;li style=&quot;border-color: var(--border-color); font-size: 16px;&quot;&gt;annuler&lt;/li&gt;&lt;/ul&gt;" style="shape=note;size=20;whiteSpace=wrap;html=1;align=left;labelBackgroundColor=none;fillColor=#B2C9AB;strokeColor=#788AA3;fontColor=#46495D;rounded=1;fontSize=16;" parent="bQfWvRvFdCdmx63TbRXj-365" vertex="1">
          <mxGeometry x="859" y="719" width="160" height="130" as="geometry" />
        </mxCell>
        <mxCell id="bQfWvRvFdCdmx63TbRXj-376" style="edgeStyle=orthogonalEdgeStyle;rounded=1;orthogonalLoop=1;jettySize=auto;html=1;entryX=1;entryY=0.5;entryDx=0;entryDy=0;labelBackgroundColor=none;fontColor=default;strokeColor=#788AA3;fontSize=16;" parent="bQfWvRvFdCdmx63TbRXj-365" source="bQfWvRvFdCdmx63TbRXj-370" target="bQfWvRvFdCdmx63TbRXj-366" edge="1">
          <mxGeometry relative="1" as="geometry">
            <Array as="points">
              <mxPoint x="337" y="535" />
              <mxPoint x="337" y="734" />
              <mxPoint x="745" y="734" />
              <mxPoint x="745" y="238" />
            </Array>
          </mxGeometry>
        </mxCell>
        <mxCell id="lSKp2wY-4dt-KcIXfeIq-77" style="edgeStyle=orthogonalEdgeStyle;rounded=1;orthogonalLoop=1;jettySize=auto;html=1;labelBackgroundColor=none;fontColor=default;strokeColor=#788AA3;fontSize=16;" parent="1" source="lSKp2wY-4dt-KcIXfeIq-5" target="lSKp2wY-4dt-KcIXfeIq-74" edge="1">
          <mxGeometry relative="1" as="geometry">
            <mxPoint x="778" y="1848" as="targetPoint" />
            <Array as="points">
              <mxPoint x="84" y="1372" />
              <mxPoint x="84" y="846" />
            </Array>
          </mxGeometry>
        </mxCell>
        <mxCell id="lSKp2wY-4dt-KcIXfeIq-82" value="Product receiving management" style="swimlane;whiteSpace=wrap;html=1;labelBackgroundColor=none;fillColor=#B2C9AB;strokeColor=#788AA3;fontColor=#46495D;rounded=1;fontSize=16;" parent="1" vertex="1">
          <mxGeometry x="-998" y="1280" width="905" height="530" as="geometry" />
        </mxCell>
        <mxCell id="lSKp2wY-4dt-KcIXfeIq-4" value="receivingjournal" style="shape=table;startSize=30;container=1;collapsible=1;childLayout=tableLayout;fixedRows=1;rowLines=0;fontStyle=1;align=center;resizeLast=1;html=1;whiteSpace=wrap;labelBackgroundColor=none;fillColor=#B2C9AB;strokeColor=#788AA3;fontColor=#46495D;rounded=1;fontSize=16;" parent="lSKp2wY-4dt-KcIXfeIq-82" vertex="1">
          <mxGeometry x="329.5" y="47" width="270" height="150" as="geometry" />
        </mxCell>
        <mxCell id="lSKp2wY-4dt-KcIXfeIq-5" value="" style="shape=tableRow;horizontal=0;startSize=0;swimlaneHead=0;swimlaneBody=0;fillColor=none;collapsible=0;dropTarget=0;points=[[0,0.5],[1,0.5]];portConstraint=eastwest;top=0;left=0;right=0;bottom=1;html=1;labelBackgroundColor=none;strokeColor=#788AA3;fontColor=#46495D;rounded=1;fontSize=16;" parent="lSKp2wY-4dt-KcIXfeIq-4" vertex="1">
          <mxGeometry y="30" width="270" height="30" as="geometry" />
        </mxCell>
        <mxCell id="lSKp2wY-4dt-KcIXfeIq-6" value="PK" style="shape=partialRectangle;connectable=0;fillColor=none;top=0;left=0;bottom=0;right=0;fontStyle=1;overflow=hidden;html=1;whiteSpace=wrap;labelBackgroundColor=none;strokeColor=#788AA3;fontColor=#46495D;rounded=1;fontSize=16;" parent="lSKp2wY-4dt-KcIXfeIq-5" vertex="1">
          <mxGeometry width="60" height="30" as="geometry">
            <mxRectangle width="60" height="30" as="alternateBounds" />
          </mxGeometry>
        </mxCell>
        <mxCell id="lSKp2wY-4dt-KcIXfeIq-7" value="refreceivingjournal" style="shape=partialRectangle;connectable=0;fillColor=none;top=0;left=0;bottom=0;right=0;align=left;spacingLeft=6;fontStyle=5;overflow=hidden;html=1;whiteSpace=wrap;labelBackgroundColor=none;strokeColor=#788AA3;fontColor=#46495D;rounded=1;fontSize=16;" parent="lSKp2wY-4dt-KcIXfeIq-5" vertex="1">
          <mxGeometry x="60" width="210" height="30" as="geometry">
            <mxRectangle width="210" height="30" as="alternateBounds" />
          </mxGeometry>
        </mxCell>
        <mxCell id="lSKp2wY-4dt-KcIXfeIq-8" value="" style="shape=tableRow;horizontal=0;startSize=0;swimlaneHead=0;swimlaneBody=0;fillColor=none;collapsible=0;dropTarget=0;points=[[0,0.5],[1,0.5]];portConstraint=eastwest;top=0;left=0;right=0;bottom=0;html=1;labelBackgroundColor=none;strokeColor=#788AA3;fontColor=#46495D;rounded=1;fontSize=16;" parent="lSKp2wY-4dt-KcIXfeIq-4" vertex="1">
          <mxGeometry y="60" width="270" height="30" as="geometry" />
        </mxCell>
        <mxCell id="lSKp2wY-4dt-KcIXfeIq-9" value="FK" style="shape=partialRectangle;connectable=0;fillColor=none;top=0;left=0;bottom=0;right=0;editable=1;overflow=hidden;html=1;whiteSpace=wrap;labelBackgroundColor=none;strokeColor=#788AA3;fontColor=#46495D;rounded=1;fontSize=16;" parent="lSKp2wY-4dt-KcIXfeIq-8" vertex="1">
          <mxGeometry width="60" height="30" as="geometry">
            <mxRectangle width="60" height="30" as="alternateBounds" />
          </mxGeometry>
        </mxCell>
        <mxCell id="lSKp2wY-4dt-KcIXfeIq-10" value="refwarehouse" style="shape=partialRectangle;connectable=0;fillColor=none;top=0;left=0;bottom=0;right=0;align=left;spacingLeft=6;overflow=hidden;html=1;whiteSpace=wrap;labelBackgroundColor=none;strokeColor=#788AA3;fontColor=#46495D;rounded=1;fontSize=16;" parent="lSKp2wY-4dt-KcIXfeIq-8" vertex="1">
          <mxGeometry x="60" width="210" height="30" as="geometry">
            <mxRectangle width="210" height="30" as="alternateBounds" />
          </mxGeometry>
        </mxCell>
        <mxCell id="lSKp2wY-4dt-KcIXfeIq-11" style="shape=tableRow;horizontal=0;startSize=0;swimlaneHead=0;swimlaneBody=0;fillColor=none;collapsible=0;dropTarget=0;points=[[0,0.5],[1,0.5]];portConstraint=eastwest;top=0;left=0;right=0;bottom=0;html=1;labelBackgroundColor=none;strokeColor=#788AA3;fontColor=#46495D;rounded=1;fontSize=16;" parent="lSKp2wY-4dt-KcIXfeIq-4" vertex="1">
          <mxGeometry y="90" width="270" height="30" as="geometry" />
        </mxCell>
        <mxCell id="lSKp2wY-4dt-KcIXfeIq-12" value="FK" style="shape=partialRectangle;connectable=0;fillColor=none;top=0;left=0;bottom=0;right=0;editable=1;overflow=hidden;html=1;whiteSpace=wrap;labelBackgroundColor=none;strokeColor=#788AA3;fontColor=#46495D;rounded=1;fontSize=16;" parent="lSKp2wY-4dt-KcIXfeIq-11" vertex="1">
          <mxGeometry width="60" height="30" as="geometry">
            <mxRectangle width="60" height="30" as="alternateBounds" />
          </mxGeometry>
        </mxCell>
        <mxCell id="lSKp2wY-4dt-KcIXfeIq-13" value="refordertransferstatus" style="shape=partialRectangle;connectable=0;fillColor=none;top=0;left=0;bottom=0;right=0;align=left;spacingLeft=6;overflow=hidden;html=1;whiteSpace=wrap;labelBackgroundColor=none;strokeColor=#788AA3;fontColor=#46495D;rounded=1;fontSize=16;" parent="lSKp2wY-4dt-KcIXfeIq-11" vertex="1">
          <mxGeometry x="60" width="210" height="30" as="geometry">
            <mxRectangle width="210" height="30" as="alternateBounds" />
          </mxGeometry>
        </mxCell>
        <mxCell id="lSKp2wY-4dt-KcIXfeIq-68" style="shape=tableRow;horizontal=0;startSize=0;swimlaneHead=0;swimlaneBody=0;fillColor=none;collapsible=0;dropTarget=0;points=[[0,0.5],[1,0.5]];portConstraint=eastwest;top=0;left=0;right=0;bottom=0;html=1;labelBackgroundColor=none;strokeColor=#788AA3;fontColor=#46495D;rounded=1;fontSize=16;" parent="lSKp2wY-4dt-KcIXfeIq-4" vertex="1">
          <mxGeometry y="120" width="270" height="30" as="geometry" />
        </mxCell>
        <mxCell id="lSKp2wY-4dt-KcIXfeIq-69" value="FK" style="shape=partialRectangle;connectable=0;fillColor=none;top=0;left=0;bottom=0;right=0;editable=1;overflow=hidden;html=1;whiteSpace=wrap;labelBackgroundColor=none;strokeColor=#788AA3;fontColor=#46495D;rounded=1;fontSize=16;" parent="lSKp2wY-4dt-KcIXfeIq-68" vertex="1">
          <mxGeometry width="60" height="30" as="geometry">
            <mxRectangle width="60" height="30" as="alternateBounds" />
          </mxGeometry>
        </mxCell>
        <mxCell id="lSKp2wY-4dt-KcIXfeIq-70" value="purchaseorderlineid" style="shape=partialRectangle;connectable=0;fillColor=none;top=0;left=0;bottom=0;right=0;align=left;spacingLeft=6;overflow=hidden;html=1;whiteSpace=wrap;labelBackgroundColor=none;strokeColor=#788AA3;fontColor=#46495D;rounded=1;fontSize=16;" parent="lSKp2wY-4dt-KcIXfeIq-68" vertex="1">
          <mxGeometry x="60" width="210" height="30" as="geometry">
            <mxRectangle width="210" height="30" as="alternateBounds" />
          </mxGeometry>
        </mxCell>
        <mxCell id="lSKp2wY-4dt-KcIXfeIq-23" value="receivingjournalline&lt;span style=&quot;text-align: left; font-size: 16px;&quot;&gt;status&lt;/span&gt;" style="shape=table;startSize=30;container=1;collapsible=1;childLayout=tableLayout;fixedRows=1;rowLines=0;fontStyle=1;align=center;resizeLast=1;html=1;whiteSpace=wrap;labelBackgroundColor=none;fillColor=#B2C9AB;strokeColor=#788AA3;fontColor=#46495D;rounded=1;fontSize=16;" parent="lSKp2wY-4dt-KcIXfeIq-82" vertex="1">
          <mxGeometry x="329" y="250" width="316" height="90" as="geometry" />
        </mxCell>
        <mxCell id="lSKp2wY-4dt-KcIXfeIq-24" value="" style="shape=tableRow;horizontal=0;startSize=0;swimlaneHead=0;swimlaneBody=0;fillColor=none;collapsible=0;dropTarget=0;points=[[0,0.5],[1,0.5]];portConstraint=eastwest;top=0;left=0;right=0;bottom=1;html=1;labelBackgroundColor=none;strokeColor=#788AA3;fontColor=#46495D;rounded=1;fontSize=16;" parent="lSKp2wY-4dt-KcIXfeIq-23" vertex="1">
          <mxGeometry y="30" width="316" height="30" as="geometry" />
        </mxCell>
        <mxCell id="lSKp2wY-4dt-KcIXfeIq-25" value="PK" style="shape=partialRectangle;connectable=0;fillColor=none;top=0;left=0;bottom=0;right=0;fontStyle=1;overflow=hidden;html=1;whiteSpace=wrap;labelBackgroundColor=none;strokeColor=#788AA3;fontColor=#46495D;rounded=1;fontSize=16;" parent="lSKp2wY-4dt-KcIXfeIq-24" vertex="1">
          <mxGeometry width="60" height="30" as="geometry">
            <mxRectangle width="60" height="30" as="alternateBounds" />
          </mxGeometry>
        </mxCell>
        <mxCell id="lSKp2wY-4dt-KcIXfeIq-26" value="refreceivingjournallinestatus" style="shape=partialRectangle;connectable=0;fillColor=none;top=0;left=0;bottom=0;right=0;align=left;spacingLeft=6;fontStyle=5;overflow=hidden;html=1;whiteSpace=wrap;labelBackgroundColor=none;strokeColor=#788AA3;fontColor=#46495D;rounded=1;fontSize=16;" parent="lSKp2wY-4dt-KcIXfeIq-24" vertex="1">
          <mxGeometry x="60" width="256" height="30" as="geometry">
            <mxRectangle width="256" height="30" as="alternateBounds" />
          </mxGeometry>
        </mxCell>
        <mxCell id="lSKp2wY-4dt-KcIXfeIq-27" value="" style="shape=tableRow;horizontal=0;startSize=0;swimlaneHead=0;swimlaneBody=0;fillColor=none;collapsible=0;dropTarget=0;points=[[0,0.5],[1,0.5]];portConstraint=eastwest;top=0;left=0;right=0;bottom=0;html=1;labelBackgroundColor=none;strokeColor=#788AA3;fontColor=#46495D;rounded=1;fontSize=16;" parent="lSKp2wY-4dt-KcIXfeIq-23" vertex="1">
          <mxGeometry y="60" width="316" height="30" as="geometry" />
        </mxCell>
        <mxCell id="lSKp2wY-4dt-KcIXfeIq-28" value="" style="shape=partialRectangle;connectable=0;fillColor=none;top=0;left=0;bottom=0;right=0;editable=1;overflow=hidden;html=1;whiteSpace=wrap;labelBackgroundColor=none;strokeColor=#788AA3;fontColor=#46495D;rounded=1;fontSize=16;" parent="lSKp2wY-4dt-KcIXfeIq-27" vertex="1">
          <mxGeometry width="60" height="30" as="geometry">
            <mxRectangle width="60" height="30" as="alternateBounds" />
          </mxGeometry>
        </mxCell>
        <mxCell id="lSKp2wY-4dt-KcIXfeIq-29" value="receivingjournalline" style="shape=partialRectangle;connectable=0;fillColor=none;top=0;left=0;bottom=0;right=0;align=left;spacingLeft=6;overflow=hidden;html=1;whiteSpace=wrap;labelBackgroundColor=none;strokeColor=#788AA3;fontColor=#46495D;rounded=1;fontSize=16;" parent="lSKp2wY-4dt-KcIXfeIq-27" vertex="1">
          <mxGeometry x="60" width="256" height="30" as="geometry">
            <mxRectangle width="256" height="30" as="alternateBounds" />
          </mxGeometry>
        </mxCell>
        <mxCell id="lSKp2wY-4dt-KcIXfeIq-30" value="receivingjournalline" style="shape=table;startSize=30;container=1;collapsible=1;childLayout=tableLayout;fixedRows=1;rowLines=0;fontStyle=1;align=center;resizeLast=1;html=1;whiteSpace=wrap;labelBackgroundColor=none;fillColor=#B2C9AB;strokeColor=#788AA3;fontColor=#46495D;rounded=1;fontSize=16;" parent="lSKp2wY-4dt-KcIXfeIq-82" vertex="1">
          <mxGeometry x="18" y="48" width="270" height="360" as="geometry" />
        </mxCell>
        <mxCell id="lSKp2wY-4dt-KcIXfeIq-31" value="" style="shape=tableRow;horizontal=0;startSize=0;swimlaneHead=0;swimlaneBody=0;fillColor=none;collapsible=0;dropTarget=0;points=[[0,0.5],[1,0.5]];portConstraint=eastwest;top=0;left=0;right=0;bottom=1;html=1;labelBackgroundColor=none;strokeColor=#788AA3;fontColor=#46495D;rounded=1;fontSize=16;" parent="lSKp2wY-4dt-KcIXfeIq-30" vertex="1">
          <mxGeometry y="30" width="270" height="30" as="geometry" />
        </mxCell>
        <mxCell id="lSKp2wY-4dt-KcIXfeIq-32" value="PK" style="shape=partialRectangle;connectable=0;fillColor=none;top=0;left=0;bottom=0;right=0;fontStyle=1;overflow=hidden;html=1;whiteSpace=wrap;labelBackgroundColor=none;strokeColor=#788AA3;fontColor=#46495D;rounded=1;fontSize=16;" parent="lSKp2wY-4dt-KcIXfeIq-31" vertex="1">
          <mxGeometry width="60" height="30" as="geometry">
            <mxRectangle width="60" height="30" as="alternateBounds" />
          </mxGeometry>
        </mxCell>
        <mxCell id="lSKp2wY-4dt-KcIXfeIq-33" value="id" style="shape=partialRectangle;connectable=0;fillColor=none;top=0;left=0;bottom=0;right=0;align=left;spacingLeft=6;fontStyle=5;overflow=hidden;html=1;whiteSpace=wrap;labelBackgroundColor=none;strokeColor=#788AA3;fontColor=#46495D;rounded=1;fontSize=16;" parent="lSKp2wY-4dt-KcIXfeIq-31" vertex="1">
          <mxGeometry x="60" width="210" height="30" as="geometry">
            <mxRectangle width="210" height="30" as="alternateBounds" />
          </mxGeometry>
        </mxCell>
        <mxCell id="lSKp2wY-4dt-KcIXfeIq-34" value="" style="shape=tableRow;horizontal=0;startSize=0;swimlaneHead=0;swimlaneBody=0;fillColor=none;collapsible=0;dropTarget=0;points=[[0,0.5],[1,0.5]];portConstraint=eastwest;top=0;left=0;right=0;bottom=0;html=1;labelBackgroundColor=none;strokeColor=#788AA3;fontColor=#46495D;rounded=1;fontSize=16;" parent="lSKp2wY-4dt-KcIXfeIq-30" vertex="1">
          <mxGeometry y="60" width="270" height="30" as="geometry" />
        </mxCell>
        <mxCell id="lSKp2wY-4dt-KcIXfeIq-35" value="FK" style="shape=partialRectangle;connectable=0;fillColor=none;top=0;left=0;bottom=0;right=0;editable=1;overflow=hidden;html=1;whiteSpace=wrap;labelBackgroundColor=none;strokeColor=#788AA3;fontColor=#46495D;rounded=1;fontSize=16;" parent="lSKp2wY-4dt-KcIXfeIq-34" vertex="1">
          <mxGeometry width="60" height="30" as="geometry">
            <mxRectangle width="60" height="30" as="alternateBounds" />
          </mxGeometry>
        </mxCell>
        <mxCell id="lSKp2wY-4dt-KcIXfeIq-36" value="refreceivingjournal" style="shape=partialRectangle;connectable=0;fillColor=none;top=0;left=0;bottom=0;right=0;align=left;spacingLeft=6;overflow=hidden;html=1;whiteSpace=wrap;labelBackgroundColor=none;strokeColor=#788AA3;fontColor=#46495D;rounded=1;fontSize=16;" parent="lSKp2wY-4dt-KcIXfeIq-34" vertex="1">
          <mxGeometry x="60" width="210" height="30" as="geometry">
            <mxRectangle width="210" height="30" as="alternateBounds" />
          </mxGeometry>
        </mxCell>
        <mxCell id="lSKp2wY-4dt-KcIXfeIq-37" style="shape=tableRow;horizontal=0;startSize=0;swimlaneHead=0;swimlaneBody=0;fillColor=none;collapsible=0;dropTarget=0;points=[[0,0.5],[1,0.5]];portConstraint=eastwest;top=0;left=0;right=0;bottom=0;html=1;labelBackgroundColor=none;strokeColor=#788AA3;fontColor=#46495D;rounded=1;fontSize=16;" parent="lSKp2wY-4dt-KcIXfeIq-30" vertex="1">
          <mxGeometry y="90" width="270" height="30" as="geometry" />
        </mxCell>
        <mxCell id="lSKp2wY-4dt-KcIXfeIq-38" value="FK" style="shape=partialRectangle;connectable=0;fillColor=none;top=0;left=0;bottom=0;right=0;editable=1;overflow=hidden;html=1;whiteSpace=wrap;labelBackgroundColor=none;strokeColor=#788AA3;fontColor=#46495D;rounded=1;fontSize=16;" parent="lSKp2wY-4dt-KcIXfeIq-37" vertex="1">
          <mxGeometry width="60" height="30" as="geometry">
            <mxRectangle width="60" height="30" as="alternateBounds" />
          </mxGeometry>
        </mxCell>
        <mxCell id="lSKp2wY-4dt-KcIXfeIq-39" value="inventdimid" style="shape=partialRectangle;connectable=0;fillColor=none;top=0;left=0;bottom=0;right=0;align=left;spacingLeft=6;overflow=hidden;html=1;whiteSpace=wrap;labelBackgroundColor=none;strokeColor=#788AA3;fontColor=#46495D;rounded=1;fontSize=16;" parent="lSKp2wY-4dt-KcIXfeIq-37" vertex="1">
          <mxGeometry x="60" width="210" height="30" as="geometry">
            <mxRectangle width="210" height="30" as="alternateBounds" />
          </mxGeometry>
        </mxCell>
        <mxCell id="lSKp2wY-4dt-KcIXfeIq-40" style="shape=tableRow;horizontal=0;startSize=0;swimlaneHead=0;swimlaneBody=0;fillColor=none;collapsible=0;dropTarget=0;points=[[0,0.5],[1,0.5]];portConstraint=eastwest;top=0;left=0;right=0;bottom=0;html=1;labelBackgroundColor=none;strokeColor=#788AA3;fontColor=#46495D;rounded=1;fontSize=16;" parent="lSKp2wY-4dt-KcIXfeIq-30" vertex="1">
          <mxGeometry y="120" width="270" height="30" as="geometry" />
        </mxCell>
        <mxCell id="lSKp2wY-4dt-KcIXfeIq-41" value="FK" style="shape=partialRectangle;connectable=0;fillColor=none;top=0;left=0;bottom=0;right=0;editable=1;overflow=hidden;html=1;whiteSpace=wrap;labelBackgroundColor=none;strokeColor=#788AA3;fontColor=#46495D;rounded=1;fontSize=16;" parent="lSKp2wY-4dt-KcIXfeIq-40" vertex="1">
          <mxGeometry width="60" height="30" as="geometry">
            <mxRectangle width="60" height="30" as="alternateBounds" />
          </mxGeometry>
        </mxCell>
        <mxCell id="lSKp2wY-4dt-KcIXfeIq-42" value="refitem" style="shape=partialRectangle;connectable=0;fillColor=none;top=0;left=0;bottom=0;right=0;align=left;spacingLeft=6;overflow=hidden;html=1;whiteSpace=wrap;labelBackgroundColor=none;strokeColor=#788AA3;fontColor=#46495D;rounded=1;fontSize=16;" parent="lSKp2wY-4dt-KcIXfeIq-40" vertex="1">
          <mxGeometry x="60" width="210" height="30" as="geometry">
            <mxRectangle width="210" height="30" as="alternateBounds" />
          </mxGeometry>
        </mxCell>
        <mxCell id="lSKp2wY-4dt-KcIXfeIq-43" style="shape=tableRow;horizontal=0;startSize=0;swimlaneHead=0;swimlaneBody=0;fillColor=none;collapsible=0;dropTarget=0;points=[[0,0.5],[1,0.5]];portConstraint=eastwest;top=0;left=0;right=0;bottom=0;html=1;labelBackgroundColor=none;strokeColor=#788AA3;fontColor=#46495D;rounded=1;fontSize=16;" parent="lSKp2wY-4dt-KcIXfeIq-30" vertex="1">
          <mxGeometry y="150" width="270" height="30" as="geometry" />
        </mxCell>
        <mxCell id="lSKp2wY-4dt-KcIXfeIq-44" value="" style="shape=partialRectangle;connectable=0;fillColor=none;top=0;left=0;bottom=0;right=0;editable=1;overflow=hidden;html=1;whiteSpace=wrap;labelBackgroundColor=none;strokeColor=#788AA3;fontColor=#46495D;rounded=1;fontSize=16;" parent="lSKp2wY-4dt-KcIXfeIq-43" vertex="1">
          <mxGeometry width="60" height="30" as="geometry">
            <mxRectangle width="60" height="30" as="alternateBounds" />
          </mxGeometry>
        </mxCell>
        <mxCell id="lSKp2wY-4dt-KcIXfeIq-45" value="qty" style="shape=partialRectangle;connectable=0;fillColor=none;top=0;left=0;bottom=0;right=0;align=left;spacingLeft=6;overflow=hidden;html=1;whiteSpace=wrap;labelBackgroundColor=none;strokeColor=#788AA3;fontColor=#46495D;rounded=1;fontSize=16;" parent="lSKp2wY-4dt-KcIXfeIq-43" vertex="1">
          <mxGeometry x="60" width="210" height="30" as="geometry">
            <mxRectangle width="210" height="30" as="alternateBounds" />
          </mxGeometry>
        </mxCell>
        <mxCell id="lSKp2wY-4dt-KcIXfeIq-49" style="shape=tableRow;horizontal=0;startSize=0;swimlaneHead=0;swimlaneBody=0;fillColor=none;collapsible=0;dropTarget=0;points=[[0,0.5],[1,0.5]];portConstraint=eastwest;top=0;left=0;right=0;bottom=0;html=1;labelBackgroundColor=none;strokeColor=#788AA3;fontColor=#46495D;rounded=1;fontSize=16;" parent="lSKp2wY-4dt-KcIXfeIq-30" vertex="1">
          <mxGeometry y="180" width="270" height="30" as="geometry" />
        </mxCell>
        <mxCell id="lSKp2wY-4dt-KcIXfeIq-50" value="FK" style="shape=partialRectangle;connectable=0;fillColor=none;top=0;left=0;bottom=0;right=0;editable=1;overflow=hidden;html=1;whiteSpace=wrap;labelBackgroundColor=none;strokeColor=#788AA3;fontColor=#46495D;rounded=1;fontSize=16;" parent="lSKp2wY-4dt-KcIXfeIq-49" vertex="1">
          <mxGeometry width="60" height="30" as="geometry">
            <mxRectangle width="60" height="30" as="alternateBounds" />
          </mxGeometry>
        </mxCell>
        <mxCell id="lSKp2wY-4dt-KcIXfeIq-51" value="refunitinvent" style="shape=partialRectangle;connectable=0;fillColor=none;top=0;left=0;bottom=0;right=0;align=left;spacingLeft=6;overflow=hidden;html=1;whiteSpace=wrap;labelBackgroundColor=none;strokeColor=#788AA3;fontColor=#46495D;rounded=1;fontSize=16;" parent="lSKp2wY-4dt-KcIXfeIq-49" vertex="1">
          <mxGeometry x="60" width="210" height="30" as="geometry">
            <mxRectangle width="210" height="30" as="alternateBounds" />
          </mxGeometry>
        </mxCell>
        <mxCell id="lSKp2wY-4dt-KcIXfeIq-52" style="shape=tableRow;horizontal=0;startSize=0;swimlaneHead=0;swimlaneBody=0;fillColor=none;collapsible=0;dropTarget=0;points=[[0,0.5],[1,0.5]];portConstraint=eastwest;top=0;left=0;right=0;bottom=0;html=1;labelBackgroundColor=none;strokeColor=#788AA3;fontColor=#46495D;rounded=1;fontSize=16;" parent="lSKp2wY-4dt-KcIXfeIq-30" vertex="1">
          <mxGeometry y="210" width="270" height="30" as="geometry" />
        </mxCell>
        <mxCell id="lSKp2wY-4dt-KcIXfeIq-53" value="FK" style="shape=partialRectangle;connectable=0;fillColor=none;top=0;left=0;bottom=0;right=0;editable=1;overflow=hidden;html=1;whiteSpace=wrap;labelBackgroundColor=none;strokeColor=#788AA3;fontColor=#46495D;rounded=1;fontSize=16;" parent="lSKp2wY-4dt-KcIXfeIq-52" vertex="1">
          <mxGeometry width="60" height="30" as="geometry">
            <mxRectangle width="60" height="30" as="alternateBounds" />
          </mxGeometry>
        </mxCell>
        <mxCell id="lSKp2wY-4dt-KcIXfeIq-54" value="refunittrans" style="shape=partialRectangle;connectable=0;fillColor=none;top=0;left=0;bottom=0;right=0;align=left;spacingLeft=6;overflow=hidden;html=1;whiteSpace=wrap;labelBackgroundColor=none;strokeColor=#788AA3;fontColor=#46495D;rounded=1;fontSize=16;" parent="lSKp2wY-4dt-KcIXfeIq-52" vertex="1">
          <mxGeometry x="60" width="210" height="30" as="geometry">
            <mxRectangle width="210" height="30" as="alternateBounds" />
          </mxGeometry>
        </mxCell>
        <mxCell id="lSKp2wY-4dt-KcIXfeIq-55" style="shape=tableRow;horizontal=0;startSize=0;swimlaneHead=0;swimlaneBody=0;fillColor=none;collapsible=0;dropTarget=0;points=[[0,0.5],[1,0.5]];portConstraint=eastwest;top=0;left=0;right=0;bottom=0;html=1;labelBackgroundColor=none;strokeColor=#788AA3;fontColor=#46495D;rounded=1;fontSize=16;" parent="lSKp2wY-4dt-KcIXfeIq-30" vertex="1">
          <mxGeometry y="240" width="270" height="30" as="geometry" />
        </mxCell>
        <mxCell id="lSKp2wY-4dt-KcIXfeIq-56" style="shape=partialRectangle;connectable=0;fillColor=none;top=0;left=0;bottom=0;right=0;editable=1;overflow=hidden;html=1;whiteSpace=wrap;labelBackgroundColor=none;strokeColor=#788AA3;fontColor=#46495D;rounded=1;fontSize=16;" parent="lSKp2wY-4dt-KcIXfeIq-55" vertex="1">
          <mxGeometry width="60" height="30" as="geometry">
            <mxRectangle width="60" height="30" as="alternateBounds" />
          </mxGeometry>
        </mxCell>
        <mxCell id="lSKp2wY-4dt-KcIXfeIq-57" value="coefficient" style="shape=partialRectangle;connectable=0;fillColor=none;top=0;left=0;bottom=0;right=0;align=left;spacingLeft=6;overflow=hidden;html=1;whiteSpace=wrap;labelBackgroundColor=none;strokeColor=#788AA3;fontColor=#46495D;rounded=1;fontSize=16;" parent="lSKp2wY-4dt-KcIXfeIq-55" vertex="1">
          <mxGeometry x="60" width="210" height="30" as="geometry">
            <mxRectangle width="210" height="30" as="alternateBounds" />
          </mxGeometry>
        </mxCell>
        <mxCell id="lSKp2wY-4dt-KcIXfeIq-58" style="shape=tableRow;horizontal=0;startSize=0;swimlaneHead=0;swimlaneBody=0;fillColor=none;collapsible=0;dropTarget=0;points=[[0,0.5],[1,0.5]];portConstraint=eastwest;top=0;left=0;right=0;bottom=0;html=1;labelBackgroundColor=none;strokeColor=#788AA3;fontColor=#46495D;rounded=1;fontSize=16;" parent="lSKp2wY-4dt-KcIXfeIq-30" vertex="1">
          <mxGeometry y="270" width="270" height="30" as="geometry" />
        </mxCell>
        <mxCell id="lSKp2wY-4dt-KcIXfeIq-59" style="shape=partialRectangle;connectable=0;fillColor=none;top=0;left=0;bottom=0;right=0;editable=1;overflow=hidden;html=1;whiteSpace=wrap;labelBackgroundColor=none;strokeColor=#788AA3;fontColor=#46495D;rounded=1;fontSize=16;" parent="lSKp2wY-4dt-KcIXfeIq-58" vertex="1">
          <mxGeometry width="60" height="30" as="geometry">
            <mxRectangle width="60" height="30" as="alternateBounds" />
          </mxGeometry>
        </mxCell>
        <mxCell id="lSKp2wY-4dt-KcIXfeIq-60" value="unitprice" style="shape=partialRectangle;connectable=0;fillColor=none;top=0;left=0;bottom=0;right=0;align=left;spacingLeft=6;overflow=hidden;html=1;whiteSpace=wrap;labelBackgroundColor=none;strokeColor=#788AA3;fontColor=#46495D;rounded=1;fontSize=16;" parent="lSKp2wY-4dt-KcIXfeIq-58" vertex="1">
          <mxGeometry x="60" width="210" height="30" as="geometry">
            <mxRectangle width="210" height="30" as="alternateBounds" />
          </mxGeometry>
        </mxCell>
        <mxCell id="lSKp2wY-4dt-KcIXfeIq-61" style="shape=tableRow;horizontal=0;startSize=0;swimlaneHead=0;swimlaneBody=0;fillColor=none;collapsible=0;dropTarget=0;points=[[0,0.5],[1,0.5]];portConstraint=eastwest;top=0;left=0;right=0;bottom=0;html=1;labelBackgroundColor=none;strokeColor=#788AA3;fontColor=#46495D;rounded=1;fontSize=16;" parent="lSKp2wY-4dt-KcIXfeIq-30" vertex="1">
          <mxGeometry y="300" width="270" height="30" as="geometry" />
        </mxCell>
        <mxCell id="lSKp2wY-4dt-KcIXfeIq-62" value="FK" style="shape=partialRectangle;connectable=0;fillColor=none;top=0;left=0;bottom=0;right=0;editable=1;overflow=hidden;html=1;whiteSpace=wrap;labelBackgroundColor=none;strokeColor=#788AA3;fontColor=#46495D;rounded=1;fontSize=16;" parent="lSKp2wY-4dt-KcIXfeIq-61" vertex="1">
          <mxGeometry width="60" height="30" as="geometry">
            <mxRectangle width="60" height="30" as="alternateBounds" />
          </mxGeometry>
        </mxCell>
        <mxCell id="lSKp2wY-4dt-KcIXfeIq-63" value="refinventorytransferstatus" style="shape=partialRectangle;connectable=0;fillColor=none;top=0;left=0;bottom=0;right=0;align=left;spacingLeft=6;overflow=hidden;html=1;whiteSpace=wrap;labelBackgroundColor=none;strokeColor=#788AA3;fontColor=#46495D;rounded=1;fontSize=16;" parent="lSKp2wY-4dt-KcIXfeIq-61" vertex="1">
          <mxGeometry x="60" width="210" height="30" as="geometry">
            <mxRectangle width="210" height="30" as="alternateBounds" />
          </mxGeometry>
        </mxCell>
        <mxCell id="lSKp2wY-4dt-KcIXfeIq-64" style="shape=tableRow;horizontal=0;startSize=0;swimlaneHead=0;swimlaneBody=0;fillColor=none;collapsible=0;dropTarget=0;points=[[0,0.5],[1,0.5]];portConstraint=eastwest;top=0;left=0;right=0;bottom=0;html=1;labelBackgroundColor=none;strokeColor=#788AA3;fontColor=#46495D;rounded=1;fontSize=16;" parent="lSKp2wY-4dt-KcIXfeIq-30" vertex="1">
          <mxGeometry y="330" width="270" height="30" as="geometry" />
        </mxCell>
        <mxCell id="lSKp2wY-4dt-KcIXfeIq-65" value="FK" style="shape=partialRectangle;connectable=0;fillColor=none;top=0;left=0;bottom=0;right=0;editable=1;overflow=hidden;html=1;whiteSpace=wrap;labelBackgroundColor=none;strokeColor=#788AA3;fontColor=#46495D;rounded=1;fontSize=16;" parent="lSKp2wY-4dt-KcIXfeIq-64" vertex="1">
          <mxGeometry width="60" height="30" as="geometry">
            <mxRectangle width="60" height="30" as="alternateBounds" />
          </mxGeometry>
        </mxCell>
        <mxCell id="lSKp2wY-4dt-KcIXfeIq-66" value="refpurchaseorder" style="shape=partialRectangle;connectable=0;fillColor=none;top=0;left=0;bottom=0;right=0;align=left;spacingLeft=6;overflow=hidden;html=1;whiteSpace=wrap;labelBackgroundColor=none;strokeColor=#788AA3;fontColor=#46495D;rounded=1;fontSize=16;" parent="lSKp2wY-4dt-KcIXfeIq-64" vertex="1">
          <mxGeometry x="60" width="210" height="30" as="geometry">
            <mxRectangle width="210" height="30" as="alternateBounds" />
          </mxGeometry>
        </mxCell>
        <mxCell id="lSKp2wY-4dt-KcIXfeIq-67" value="Values :&amp;nbsp;&lt;br style=&quot;font-size: 16px;&quot;&gt;&lt;ul style=&quot;font-size: 16px;&quot;&gt;&lt;li style=&quot;border-color: var(--border-color); font-size: 16px;&quot;&gt;créer&lt;/li&gt;&lt;li style=&quot;border-color: var(--border-color); font-size: 16px;&quot;&gt;en revision&lt;/li&gt;&lt;li style=&quot;border-color: var(--border-color); font-size: 16px;&quot;&gt;Approuver&lt;/li&gt;&lt;li style=&quot;border-color: var(--border-color); font-size: 16px;&quot;&gt;Rejeter&lt;/li&gt;&lt;li style=&quot;font-size: 16px;&quot;&gt;reçu&lt;/li&gt;&lt;li style=&quot;font-size: 16px;&quot;&gt;annuler&lt;/li&gt;&lt;/ul&gt;" style="shape=note;size=20;whiteSpace=wrap;html=1;align=left;labelBackgroundColor=none;fillColor=#B2C9AB;strokeColor=#788AA3;fontColor=#46495D;rounded=1;fontSize=16;" parent="lSKp2wY-4dt-KcIXfeIq-82" vertex="1">
          <mxGeometry x="689" y="121" width="184" height="167" as="geometry" />
        </mxCell>
        <mxCell id="lSKp2wY-4dt-KcIXfeIq-71" style="edgeStyle=orthogonalEdgeStyle;rounded=1;orthogonalLoop=1;jettySize=auto;html=1;exitX=0;exitY=0.5;exitDx=0;exitDy=0;labelBackgroundColor=none;fontColor=default;strokeColor=#788AA3;fontSize=16;" parent="lSKp2wY-4dt-KcIXfeIq-82" source="lSKp2wY-4dt-KcIXfeIq-5" target="lSKp2wY-4dt-KcIXfeIq-34" edge="1">
          <mxGeometry relative="1" as="geometry" />
        </mxCell>
        <mxCell id="lSKp2wY-4dt-KcIXfeIq-72" style="edgeStyle=orthogonalEdgeStyle;rounded=1;orthogonalLoop=1;jettySize=auto;html=1;exitX=0.003;exitY=0.347;exitDx=0;exitDy=0;labelBackgroundColor=none;fontColor=default;strokeColor=#788AA3;exitPerimeter=0;fontSize=16;" parent="lSKp2wY-4dt-KcIXfeIq-82" source="lSKp2wY-4dt-KcIXfeIq-24" target="lSKp2wY-4dt-KcIXfeIq-11" edge="1">
          <mxGeometry relative="1" as="geometry">
            <mxPoint x="338.53" y="420.99999999999955" as="sourcePoint" />
            <mxPoint x="336.03" y="150" as="targetPoint" />
            <Array as="points">
              <mxPoint x="301" y="290" />
              <mxPoint x="301" y="152" />
            </Array>
          </mxGeometry>
        </mxCell>
        <mxCell id="lSKp2wY-4dt-KcIXfeIq-73" style="edgeStyle=orthogonalEdgeStyle;rounded=1;orthogonalLoop=1;jettySize=auto;html=1;exitX=0;exitY=0.5;exitDx=0;exitDy=0;entryX=1;entryY=0.5;entryDx=0;entryDy=0;labelBackgroundColor=none;fontColor=default;strokeColor=#788AA3;fontSize=16;" parent="lSKp2wY-4dt-KcIXfeIq-82" source="lSKp2wY-4dt-KcIXfeIq-24" target="lSKp2wY-4dt-KcIXfeIq-61" edge="1">
          <mxGeometry relative="1" as="geometry" />
        </mxCell>
        <mxCell id="eW4BuxD6Nn7oft9EgNwY-144" style="edgeStyle=orthogonalEdgeStyle;rounded=1;orthogonalLoop=1;jettySize=auto;html=1;labelBackgroundColor=none;fontColor=default;strokeColor=#788AA3;fontSize=16;" edge="1" parent="lSKp2wY-4dt-KcIXfeIq-82" source="lSKp2wY-4dt-KcIXfeIq-27" target="lSKp2wY-4dt-KcIXfeIq-67">
          <mxGeometry relative="1" as="geometry">
            <mxPoint x="346" y="461" as="sourcePoint" />
            <mxPoint x="298" y="373" as="targetPoint" />
            <Array as="points">
              <mxPoint x="770" y="325" />
            </Array>
          </mxGeometry>
        </mxCell>
        <mxCell id="lSKp2wY-4dt-KcIXfeIq-81" style="edgeStyle=orthogonalEdgeStyle;rounded=1;orthogonalLoop=1;jettySize=auto;html=1;labelBackgroundColor=none;fontColor=default;strokeColor=#788AA3;fontSize=16;exitX=0.999;exitY=0.507;exitDx=0;exitDy=0;exitPerimeter=0;entryX=0.001;entryY=0.407;entryDx=0;entryDy=0;entryPerimeter=0;" parent="1" source="lSKp2wY-4dt-KcIXfeIq-31" target="lSKp2wY-4dt-KcIXfeIq-78" edge="1">
          <mxGeometry relative="1" as="geometry">
            <Array as="points">
              <mxPoint x="-695" y="1373" />
              <mxPoint x="-695" y="1136" />
              <mxPoint x="-735" y="1136" />
              <mxPoint x="-735" y="1037" />
            </Array>
            <mxPoint x="566.2700000000001" y="1031.01" as="sourcePoint" />
            <mxPoint x="1356" y="858" as="targetPoint" />
          </mxGeometry>
        </mxCell>
      </root>
    </mxGraphModel>
  </diagram>
</mxfile>
